<?xml version="1.0" encoding="utf-8"?>
<!-- Generator: Adobe Illustrator 16.0.0, SVG Export Plug-In . SVG Version: 6.00 Build 0)  -->
<!DOCTYPE svg PUBLIC "-//W3C//DTD SVG 1.1//EN" "http://www.w3.org/Graphics/SVG/1.1/DTD/svg11.dtd">
<svg version="1.1" id="Layer_1" xmlns="http://www.w3.org/2000/svg" xmlns:xlink="http://www.w3.org/1999/xlink" x="0px" y="0px"
	 width="612px" height="792px" viewBox="0 0 612 792" enable-background="new 0 0 612 792" xml:space="preserve">
<g>
	<path d="M525.536,452.491c-0.105,0.108-0.222,0.317-0.348,0.668C525.334,452.925,525.444,452.704,525.536,452.491z"/>
	<path d="M150.074,101.76c-0.081,0.087-0.178,0.18-0.25,0.265c0.086-0.037-1.417,1.324-1.275,1.7
		C148.673,104.055,150.386,101.524,150.074,101.76z"/>
	<path d="M524.822,439.326c-0.168,0.079-0.33,0.155-0.483,0.229C524.619,440.452,524.604,439.784,524.822,439.326z"/>
	<path d="M524.822,439.326c0.196-0.092,0.403-0.188,0.615-0.288C525.117,438.907,524.937,439.086,524.822,439.326z"/>
	<path d="M531.565,431.904c-0.024-0.26-0.063-0.504-0.425-0.426c0.317,1.547-1.466,0.806-0.851-0.425
		c-2.951,0.593-5.603-0.604-7.227,0.851c1.174-0.672,1.907,1.104,0.85,1.275c-1.22-1.626-2.606-0.257-3.825,0.425
		c0.102-0.606,0.699-0.717,0.85-1.275c-2.614,0.645-4.408,2.11-7.227,2.551c-0.096,0.804,0.479,0.938,0.425,1.7
		c-1.056-0.553-1.764,1.247-2.125,0c0.731,0.022,1.09-0.327,1.275-0.851c-5.336,0.899-7.137,5.333-12.753,5.952
		c-0.886,3.919-9.286-0.105-11.903,3.825c1.345,0.683,3.7,1.009,2.551,2.976c2.045,0.728,4.319,1.748,5.951,1.701
		c-0.33,0.095-0.839,0.012-0.85,0.425c1.005,0.32,3.152,0.402,4.251,1.7c-0.97,0.584-1.599-1.096-1.701,0
		c5.128,1.958,5.819,8.352,11.903,9.353c0.072,0.636-0.152,1.568,0.425,1.7c-0.13-0.516,1.229-1.466,1.275-0.425
		c-0.542,0.574-1.292,0.85,0,1.275c0.049-0.519,0.127-1.007,0.851-0.851c0.019,0.585-0.2,0.934-0.426,1.275
		c2.46,2.383,5.801,0.812,8.077,1.275c-0.09,0.477-0.472,0.661-0.85,0.85c-0.758,0.255-1.766-1.245-2.126,0
		c3.392,1.675,5.29-1.013,6.802-2.55c0.254-0.757-1.246-1.766,0-2.126c0.066,0.5-0.073,1.207,0.425,1.275
		c0.595-1.222,0.64-4.868-0.425-2.125c0.259-1.017-0.533-3.085,0.425-3.401c0.097,0.754-0.428,2.129,0.851,1.7
		c-0.365-1.817,0.104-2.894-0.851-4.676c1.273,1.595,1.111-3.154,0.348-2.368c-0.092,0.213-0.202,0.434-0.348,0.668
		c0.126-0.351,0.242-0.56,0.348-0.668c1.223-2.825-1.882-3.831-0.772-5.709c-2.392-0.798-2.226-3.13-2.551-5.101
		c1.644,1.379,2.264-1.575,2.976-1.275c-1.231-0.238,0.652-0.663,0.425-1.275c-0.063-0.042-0.121-0.07-0.176-0.093
		c-0.212,0.1-0.419,0.196-0.615,0.288c-0.219,0.458-0.203,1.126-0.483,0.229c0.153-0.074,0.315-0.15,0.483-0.229
		c0.114-0.24,0.295-0.419,0.615-0.288c2.413-1.131,5.642-2.766,5.697-5.542c-0.095,0.489-0.614,0.71-0.845,0.108
		c0.116-0.875,1.583-0.4,1.7-1.275C531.731,432.305,531.487,432.266,531.565,431.904z M503.934,455.71
		c-0.518-0.9-1.6-1.235-1.7-2.551C503.349,453.46,504.145,454.082,503.934,455.71z M517.537,462.937
		c-0.099-1.641,3.792-0.952,3.826,0C521.214,463.466,518.912,462.586,517.537,462.937z"/>
	<path d="M485.654,291.621c0.504-1.196,1.82-1.581,2.551-2.551c5.137-0.956,9.34-2.846,10.627-7.652
		c-1.99,0.418-2.686,2.132-4.676,2.551c0.125-0.503,1.712-1.606,0.425-2.125c-0.613,1.511-1.722,2.529-2.976,3.401
		c-0.165-1.11-0.218-2.333-0.85-2.976c0.365,4.05-3.09,4.279-4.677,6.376c0.096-0.93,1.918-2.288,0.851-2.976
		c-4.506,3.148-6.962,7.581-14.453,8.502c0.745,0.389,2.121,0.146,2.55,0.851c-2.239,0.536-4.61-1.568-5.101,0.85
		c1.471-0.151,2.262-0.498,3.4,0.425c-1.002,0.131-0.791,1.477-2.125,1.275c-1.414-0.145-1.508-1.61-2.551-2.125
		c-1.368,1.074-0.34,1.899,0,3.401c0.836,0.127,0.843-0.574,1.275-0.85C477.412,298.19,479.141,291.064,485.654,291.621z
		 M497.132,283.118c0.527,0.693-1.512,2.437-2.976,2.551C495.136,284.806,496.152,283.981,497.132,283.118z"/>
	<path d="M466.524,297.146c-0.13,1.287-1.315,1.519-0.85,3.401C467.919,300.065,467.832,298.404,466.524,297.146z"/>
	<path d="M462.273,303.098c-0.516-0.759-0.077-2.473-0.85-2.976C460.52,301.077,461.12,302.923,462.273,303.098z"/>
	<path d="M459.298,304.374c2.255,0.721,2.744,3.207,4.676,4.251c1.017-3.007-4.057-3.589-4.251-6.802
		C459.233,302.325,459.242,303.326,459.298,304.374z"/>
	<path d="M465.249,306.074c-0.27,2.821,2.684,2.418,2.126,5.526C470.479,310.381,466.588,306.907,465.249,306.074z"/>
	<path d="M472.477,309.9c0.889,0.669,0.747,2.37,1.7,2.976c0.678-1.564-0.098,1.72,1.275,0.85c-0.327-3.357-2.589-4.78-5.102-5.951
		c0.861,0.98,0.452,3.232,1.7,3.826C472.123,310.964,471.899,310.031,472.477,309.9z"/>
	<path d="M495.007,309.475c-0.89-0.245-1.214-1.054-2.551-0.85c-0.987,0.713-1.797,1.604-2.976,2.125
		c4.257-0.573,6.16,1.208,8.927,2.125c-0.679-2.297-3.852-2.1-5.951-2.976C493.116,308.683,494.439,310.785,495.007,309.475z"/>
	<path d="M477.152,315.001c1.031-1.951-0.533-3.536,0-4.676c-1.056,0.553-1.765-1.247-2.126,0
		C476.69,310.929,476.36,313.525,477.152,315.001z"/>
	<path d="M482.679,312.45c0.427,0.565,0.401,1.582,1.275,1.701c0.169-1.747-2.245-3.115-3.401-2.125
		c1.388,0.738,1.073,3.178,2.551,3.826C483.595,314.334,481.816,312.932,482.679,312.45z"/>
	<path d="M367.051,389.394c0.519,6.285,0.831,15.037,6.377,14.879C373.117,397.498,371.373,392.157,367.051,389.394z"/>
	<path d="M369.602,405.122c2.215,9.83,4.92,19.17,8.077,28.058c2.671-8.319-3.426-16.3-3.826-25.507
		C372.132,407.126,371.511,405.48,369.602,405.122z"/>
	<path d="M502.233,453.159c0.101,1.315,1.183,1.65,1.7,2.551C504.145,454.082,503.349,453.46,502.233,453.159z"/>
	<path d="M497.132,283.118c-0.979,0.863-1.996,1.688-2.976,2.551C495.62,285.555,497.659,283.812,497.132,283.118z"/>
	<path d="M494.581,314.576c-0.625-0.813-3.335-1.737-2.55-2.55c2.366,0.75,4.53,1.704,5.951,3.401
		c-0.706-3.262-3.479-4.458-7.652-4.251c-1.042,0.566,0.767,1.283-0.425,1.7c-2.554-0.626-4.278,0.124-6.377-1.275
		c0.827,2.149,2.718,3.234,4.251,4.676c0.28-1.555-0.919-1.631-0.85-2.976C491.224,314.461,491.678,314.736,494.581,314.576z"/>
	<path d="M480.128,312.45c-0.001,0.236,0.345,0.483,0.425,0c-0.629-0.221-1.071-0.629-1.7-0.85c-0.304,1.568-0.75,3.248,0.425,4.251
		C479.628,314.784,478.451,312.191,480.128,312.45z"/>
	<path d="M377.679,454.859c-0.624-4.215-1.847-11.112-1.7-14.453c0.047-1.071,0.99-1.427,0.85-2.551
		c-0.587-4.691-3.4-9.093-4.676-13.604c-2.055-7.267-3.451-14.219-5.102-21.68c-1.266-1.002-2.74-1.795-3.826-2.977
		c-0.16,5.549,2.197,10.837,2.126,14.879c-3.006-5.921-0.652-17.202-7.227-19.555c1.728,29.752,9.824,55.23,22.53,75.243
		C379.961,465.103,378.436,459.97,377.679,454.859z"/>
	<path d="M517.537,462.937c1.375-0.351,3.677,0.529,3.826,0C521.329,461.984,517.438,461.296,517.537,462.937z"/>
	<path d="M361.95,394.92c-0.562-2.279-0.812-7.114,0-9.352c-0.228,6.321,0.119,12.067,4.251,14.028
		c-1.204-4.724,0.013-9.105-1.275-12.752c-0.566-1.603-2.443-2.539-3.401-3.826c-2.583-3.475-4.446-7.617-7.227-10.202
		c0.293,5.677-0.419,10.35-0.425,15.729c1.511,0.661,0.256-1.444,1.275-1.275c-0.109,2.093,0.376,3.591,2.125,3.826
		c0.232-0.618-0.496-2.197,0.426-2.125C357.293,391.993,359.792,394.823,361.95,394.92z"/>
	<path d="M385.756,406.823c-1.855-3.579-7.676-5.975-11.053-9.353c0.06,4.277,0.759,5.51,0.85,9.353
		c3.102,0.866,4.41,3.524,7.652,4.251c-0.448-2.278,0.729-2.435,1.7-1.275c0.246-1.38-0.29-1.978-0.425-2.976
		C384.982,406.884,385.443,407.58,385.756,406.823z"/>
	<path d="M392.982,420.426c-7.145-2.066-10.475-7.946-16.579-11.053c0.89,5.487,1.634,11.119,3.826,15.304
		c0.669-1.173,0.018-3.666,1.275-4.251c2.159,2.021,6.608,2.998,9.352,2.126C390.045,421.985,393.321,421.928,392.982,420.426z"/>
	<path d="M149.824,102.025c0.072-0.085,0.169-0.178,0.25-0.265C150.031,101.792,149.953,101.874,149.824,102.025z"/>
</g>
<path d="M548.994,212.126c-2.304-3.306-7.703-5.449-8.927-9.352c-0.357-1.141,0.152-2.996,0-4.251
	c-0.682-5.611-3.324-12.553-5.951-18.28c-7.933-17.289-14.353-34.746-29.332-43.36c-9.19-10.79-21.298-20.929-33.158-27.631
	c5.054,4.866,11.49,10.614,14.879,15.729c-10.87-12.851-23.872-23.569-40.587-30.575c5.784,4.796,13.91,8.743,17.631,13.997
	c-10.318-9.236-22.143-16.967-36.559-22.105c0.33-0.095,0.839-0.012,0.851-0.425c-0.804-0.095-0.938,0.479-1.701,0.425
	c-10.163-11.074-27.067-17.847-48.461-14.028c-12.367-3.962-23.356-13.673-37.409-15.304c-2.387-0.277-5.062,0.269-7.651,0
	c-3.604-0.374-7.336-1.812-11.053-2.125c-9.599-0.811-19.729,1.713-30.183,1.275c-6.946-0.291-13.556,0.892-20.405,0.425
	c-4.507-0.308-7.781-0.678-11.478-0.851c-28.437-1.323-51.477,9.817-65.466,22.531c2.438-3.516,8.127-6.041,9.352-9.353
	c-3.699,3.734-7.463,6.059-12.753,9.353c-3.53,2.198-7.142,5.438-10.202,6.801c-4.071,1.813-7.007,1.544-11.903,2.551
	c-2.794,0.574-6.999,4.417-10.203,7.227c-3.188,2.796-6.597,5.166-8.252,6.962c0.312-0.236-1.401,2.295-1.525,1.965
	c-0.142-0.376,1.361-1.737,1.275-1.7c-4.635,1.975-7.015,7.052-10.203,9.777c0.503-1.074,2.781-2.579,2.125-3.401
	c-2.781,3.313-7.293,7.158-8.077,11.052c4.322-6.713,9.439-9.331,14.878-14.878c-10.612,12.202-18.987,28.908-28.482,40.81
	c6.016-9.149,14.649-22.349,20.405-31.033c1.057-1.595,3.169-4.132,0-0.425c-1.06,1.24-2.179,3.297-4.676,5.526
	c-0.836,0.747-2.155,0.604-2.976,1.275c-3.252,2.658-5.067,6.567-9.353,8.927c-0.428,2.123-0.504,4.597-0.85,6.802
	c-6.87,7.129-11.675,16.25-17.004,25.081c-5.235,8.676-12.02,16.694-15.729,25.506c3.196-4.316,7.096-10.189,10.627-12.753
	c-18.82,22.272-32.347,49.839-41.235,82.044c-1.427-0.783-0.21-0.051-0.425,1.275c-0.562-0.005-0.389-0.745-0.85-0.85
	c-0.638,14.595-2.553,35.902-1.275,51.012c1.802-30.77,4.904-62.704,18.704-79.919c-9.502,14.211-14.521,35.095-15.668,56.379
	c0.097-0.964,0.318-1.803,0.79-2.391c-3.841,14.863-2.441,34.967-3.401,52.712c-0.097-1.612,0.126-4.97,0-6.802
	c-0.229-3.339-0.323-1.289-0.425,1.275c-0.816,20.62,4.47,39.647,6.801,54.838c-5.16-19.637-7.994-41.601-7.651-66.741
	c-1.125,11.912-5.925,22.415-4.251,35.708c-0.063-1.056,0.22-1.764,0.851-2.125c-1.746,7.109-1.902,25.452,0.425,31.883
	c0.862,2.382,3.512,3.883,4.251,5.951c2.215,6.196,1.042,13.43,2.125,19.555c1.059,5.979,4.741,9.811,5.102,15.304
	c-1.668-4.426-3.026-9.16-5.102-13.179c0.303,15.284,8.047,25.394,10.203,37.409c-0.618-1.649-1.138-3.396-2.125-4.677
	c0.907,7.829,5.533,14.949,8.509,19.207c-0.001-0.028-0.007-0.049-0.007-0.077c0.397,0.312,0.644,0.773,0.85,1.275
	c-0.259-0.366-0.545-0.772-0.843-1.198c0.045,1.643,1.209,1.865,1.693,2.049c-0.447,0.023-0.335,0.544,0.425,0.425
	c2.971,10.559,11.52,16.714,17.429,23.806c10.3,12.359,14.593,27.212,22.53,42.936c7.436,6.451,7.457,20.316,15.304,26.356
	c0.978-2.462-0.04-5.662-0.85-7.652c11.569,9.402,15.257,26.687,28.057,34.858c-4.125-5.937-9.014-13.373-11.903-19.13
	c5.648,5.973,12.48,13.025,18.279,17.43c-2.533-2.713-5.337-7.412-7.227-9.353c0.612-0.227,1.037,1.656,1.275,0.425
	c-6.34-10.381-14.044-21.664-14.879-36.133c1.778,12.533,6.601,22.022,13.178,29.757c-1.209-0.774-1.55-2.417-2.976-2.976
	c4.834,9.053,10.738,19.301,17.429,25.081c-0.963-1.164-3.158-2.881-2.551-4.251c3.69,3.821,7.674,9.611,11.478,11.902
	c-6.296-11.133-15.318-19.54-22.956-29.332c6.178,5.867,11.816,14.539,17.854,19.13c4.699,1.833,9.962,12.7,14.454,16.153
	c-4.61-0.107-6.673-7.008-8.502-5.951c0.72-0.787-1.784-4.747-3.401-5.102c1.989,3.68,4.14,7.196,7.227,9.777
	c-0.945-0.184-2.305-0.977-2.55,0.426c0.941,0.385,4.116,2.42,3.826,1.275c-0.963-0.199-3.422-1.074-2.55-1.701
	c0.974,1.076,6.406,1.354,3.4,2.551c1.202,0.352,1.102-0.599,2.125-0.425c0.466,1.444,8.511,3.037,10.628,3.4
	c-8.474-2.802-14.616-9.141-17.429-15.304c1.417,1.275,2.158,3.227,3.826,4.252c-0.607-3.35-5.129-6.017-7.227-10.203
	c0.998,0.62,0.951,1.058,1.7,0c2.123,2.746,4.557,7.035,6.165,9.059c0.039-0.055,0.099-0.103,0.212-0.131
	c1.407,2.028,1.309,3.766,4.676,5.951c-0.322-2.52-3.479-4.447-2.976-6.377c5.806,6.337,14.662,9.333,21.346,13.546
	c-0.221-0.216-0.394-0.479-0.516-0.793c1.492,0.492,1.818,2.149,3.826,2.126c-1.264-2.704-4.763-3.172-5.951-5.951
	c0.493,0.061,0.946,0.725,1.258,0.03c-0.095-0.071-0.19-0.144-0.285-0.216c-2.405-1.436-7.128-2.396-6.925-4.916
	c0.902,1.548,2.136,1.548,2.125,0c1.404,2.28,3.09,3.617,4.799,4.916c0.103,0.062,0.208,0.122,0.302,0.186
	c-0.005,0.014-0.012,0.019-0.017,0.03c1.162,0.882,2.328,1.769,3.418,2.945c0.562-1.064-1.681-1.331-0.425-1.7
	c1.129,0.447,3.099,2.26,3.826,1.7c-2.43-3.196-4.302-0.952-5.951-5.952c5.422,0.957,7.964,7.054,13.603,6.377
	c-4.876-1.17-7.52-4.257-9.777-6.377c1.958,0.262,5.437,2.255,3.826,3.401c3.974,0.281,6.548,4.217,11.052,2.551
	c-2.255-0.045-0.502-0.241,0-0.851c-2.782-0.193-4.438-1.513-6.801-2.125c-2.091-5.192-8.359-5.918-12.753-8.502
	c-3.114-1.832-5.696-4.375-8.502-6.377c-17.948-12.809-32.502-26.512-46.336-43.36c-18.107-22.054-35.431-49.9-41.235-82.895
	c0.588,1.112,0.222,3.179,1.7,3.4c0.235-0.228,0.033-1.745-0.142-3.244c-0.246,0.38-0.188,0.099-0.049-0.437
	c-0.166-1.488-0.259-2.829,0.19-2.695c0.508,0.15,0.048,1.776-0.19,2.695c0.016,0.146,0.032,0.29,0.049,0.437
	c0.116-0.179,0.291-0.487,0.567-1.007c0.269-1.431-0.548-3.948,0.425-4.676c-0.54,6.632,0.927,11.259,2.55,15.729
	c-0.09,0.514-0.472,0.262-0.85,0c8.66,29.297,24.07,53.707,41.66,74.393c17.655,20.763,37.971,39.841,63.34,52.713
	c2.896,3.908,8.495,7.373,13.604,7.651c-1.494-1.065-4.677-2.68-4.676-3.825c4.829,2.256,9.46,4.71,15.729,5.526
	c0.127-0.836-0.574-0.844-0.85-1.275c5.273-0.309,9.646,1.786,12.753,1.275c-1.111-0.605-3.858-1.788-3.4-2.551
	c1.547,0.448,4.211,2.006,5.951,0.85c-1.607-0.376-3.649-0.317-4.676-1.274c0.618-0.233,2.197,0.496,2.125-0.426
	c-1.635-0.896-2.896-0.13-3.826-2.125c0.102-0.798,0.7,0.24,0.85-0.426c-1.689,0.739-2.487-3.187-4.251-2.125
	c1.584,1.108,2.777,2.607,3.826,4.251c-1.453-0.531-3.491-0.478-3.826-2.126c0.885,0.249,1.374,0.894,2.125,1.275
	c-1.421-4.388-6.161-5.458-9.777-7.651c2.155,0.494,4.654,2.58,6.802,1.7c1.733,2.266,5.202,3.232,6.802,3.826
	c0.712,0.265,1.147,0.433,1.38,0.524c-0.822-0.349-3.739-1.68-3.506-2.65c3.646,0.467,9.238,2.663,14.453,2.976
	c5.145,0.266,4.14-0.738-0.425-0.425c-1.567-0.842-4.658-0.159-5.952-1.275c3.202,0.511,7.031,0.61,9.352-0.851
	c-4.383,0.836-7.879-1.466-10.627-0.85c1.089,0.045,2.027,0.24,2.551,0.85c-2.768-0.065-5.069-0.599-7.227-1.274
	c2.164-1.023,4.471,0.738,5.951-0.851c-0.636-0.072-1.569,0.152-1.7-0.425c1.005-0.837,3.802,0.118,4.676-0.851
	c-0.377-0.125-1.861-1.15-0.85-1.275c4.386,1.587,10.5,5.062,15.304,5.951c-1.775-0.643-4.339-2.732-4.251-3.825
	c1.792,0.572,5.267,3.185,6.802,1.275c-1.061-0.215-1.747-0.804-2.551-1.275c2.95-0.672,5.563,1.225,7.227,0.425
	c-0.246-0.382-2.292-1.026-1.275-1.275c2.095,1.021,4.884,1.351,6.801,2.551c-2.392,1.576-5.867,2.067-8.502,3.4
	c8.03,1.595,10.992-4.102,16.154-5.951c-0.668-0.04-1.474,0.057-1.275-0.85c1.127-0.5,2.503,0.814,2.551,0
	c-0.565-0.428-1.582-0.402-1.7-1.275c1.67,0.607,4.369,2.418,5.952,1.7c-2.055-0.639-4.179-1.206-5.527-2.551
	c3.45,0.054,6.735,0.716,8.077,1.7c0.752,3.094-1.793,6.37-2.55,9.353c2.388-0.588,2.662-3.288,4.676-4.251
	c0.008,0.636-1.579,1.738-0.425,2.125c2.371-2.812,3.041-4.823,4.676-8.502c0.353,1.11-1.285,2.333,0,2.976
	c0.571-2.262,0.433-5.235,1.275-7.227c0.066,0.501-0.073,1.207,0.425,1.275c1.531-4.403,0.142-10.6,0.425-14.453
	c2.636,4.995,2.365,12.759,2.551,19.13c2.126-3.135,1.598-10.653,1.7-14.454c1.756,4.764,0.831,12.222-1.274,15.729
	c4.513-2.287,4.349-10.818,3.825-15.729c1.713,3.538,1.129,10.399,0.851,13.604c1.522-1.453,1.383-4.568,2.125-6.802
	c0.753,1.452,1.337,5.681,1.701,8.077c-0.035-0.231-0.199,3.872,0.425,1.7c0.475-3.641,1.181-6.92,0-10.202
	c0.839-1.003,1.001-2.684,1.275-4.251c0.187-1.665-2.123-3.695-0.425-4.251c1.379,0.478,2.226,3.706,3.4,2.976
	c-1.549-2.561-3.883-4.336-3.4-8.928c-0.374-1.838-1.919-2.939,0-3.825c0.257,1.868,0.918,3.332,2.55,3.825
	c-0.057-2.519-3.08-6.857-1.275-7.227c-4.587-7.033-10.125-15.38-15.729-19.979c6.91,4.205,12.525,8.927,15.729,14.879
	c-0.308-0.573,1.616,5.231,1.275,2.125c-0.021-0.198-1.344-4.011-1.7-4.676c-4.341-8.101-13.44-11.938-20.404-16.579
	c-1.222-5.297-4.519-8.519-6.802-12.753c1.328,0.797,1.647,2.603,2.976,3.4c-1.701-4.535-6.694-8.04-8.077-11.478
	c1.109,1.115,4.452,4.199,4.251,3.826c-2.126-2.408-4.195-4.874-6.376-7.227c-4.923-3.58-8.779-8.226-13.178-12.328
	c2.828,1.709,6.791,5.96,9.777,8.927c0.678-0.165-0.507-2.003-0.85-2.551c0.005-1.192,1.16,1.013,0.85-0.85
	c1.273,0.279-0.406,0.908,0,1.7c1.949-0.681,2.714,3.139,3.401,5.102c-3.71-13.122-10.966-20.221-17.854-31.883
	c-2.635-4.461-5.738-8.979-7.652-13.604c-2.731-6.597-8.169-18.015-8.502-24.23c-2.811-5.472-6.412-14.473-5.101-21.255
	c0.423,6.803,1.542,12.911,4.251,17.429c0.624-4.171-2.233-7.112-1.275-10.202c1.779,8.281,3.91,16.211,7.651,22.53
	c-0.809-3.021-2.917-6.996-2.976-9.353c6.785,19.288,16.746,35.399,26.356,51.862c-0.095,0.723,0.479,1.052,0.425,0
	c-1.756-3.348-4.984-7.481-5.526-10.627c5.913,7.406,8.582,18.057,14.453,25.506c-2.179-4.623-4.761-8.842-6.801-13.604
	c8.907,12.098,15.488,21.622,22.105,35.283c2.386,1.531-1.195-2.941-2.126-4.676c-1.474-2.746-3.043-6.102-2.976-7.652
	c4.101,6.244,7.735,15.22,12.328,19.555c-1.816-1.64-1.218-3.721-1.275-4.676c3.024,3.92,5.977,10.175,9.352,12.328
	c-0.716-1.284-3.122-2.611-2.125-4.251c2.015,1.528,3.422,3.663,4.251,6.376c2.622,1.209,4.171,5.743,6.377,5.952
	c-2.416-2.119-4.142-4.928-5.952-7.652c8.284,7.74,14.436,20.46,23.806,27.632c-2.034-2.22-5.273-5.49-5.951-7.651
	c2.464,3.203,6.149,5.187,8.077,8.927c2.146-0.326-1.339-1.177-0.851-2.551c3.191,2.107,8.377,8.357,11.053,6.802
	c1.032,0.574,0.265,0.85,0.851,1.275c1.227-1.038,1.693-0.367,1.7-1.7c4.04,3.188,10.813,5.905,17.429,5.101
	c-1.824-0.301-3.557-0.693-4.676-1.7c7.309,1.428,12.635,4.621,19.555,4.676c-0.93-0.628-2.288-0.828-2.976-1.7
	c1.437-0.45,3.467,2.098,2.976,0.851c-1.267-0.311-2.949-2.41-2.125-3.401c3.082,2.874,8.478,5.484,11.902,8.077
	c0.907,0.687,2.346,3.824,3.4,2.551c-0.179-3.93-2.905-5.313-4.251-8.077c4.505,0.871,7.765,2.674,11.903,2.551
	c-2.524-0.31-4.283-1.385-5.951-2.551c2.956,0.732,6.293,3.337,9.352,2.551c-1.653-0.33-3.479-0.487-4.251-1.7
	c6.726,1.84,14.843,4.746,21.256,1.275c-2.477-1.066-7.062-0.024-8.503-2.126c6.875-0.952,13.676,0.103,19.555-1.275
	c-8.229-0.313-16.721,0.541-22.104-1.7c7.493-1.748,17.173-5.188,25.081-6.802c2.436-0.497,7.486-0.113,7.227-3.4
	c-1.403,1.276-7.481,1.865-6.802,0.425c-1.856,0.26-5.056,1.783-6.377,0c1.222-0.806,4.24-0.469,5.526,0
	c-0.848-1.703-3.945-1.155-4.676-2.976c7.17-0.583,15.049,2.486,19.555-1.275c-1.547-1.288-6.426,0.758-7.227-1.275
	c1.018,0.258,1.939,0.611,3.4,0.425c0.003-0.618,0.01-1.052,0.425-1.274c5.996-3.222,10.988-0.73,15.304-5.952
	c2.337-2.826,5.598-7.902,4.251-10.202c-1.481,4.188-6.771,6.828-10.202,7.651c1.529-2.583,7.263-3.218,6.802-6.376
	c-0.817,1.449-2.283,2.251-4.251,2.551c0.829-1.928,1.166-0.213,1.275-2.551c0.375-1.061-1.59,2.186-2.976,2.125
	c2.086-3.301,5.198-7.834,6.802-10.202c-1.445,2.123-1.414,1.513-1.701-0.425c-0.841,3.838-5.023,6.592-7.651,7.227
	c0.462-0.102,1.021-0.7,0.425-0.851c-1.327,2.357-3.984,3.385-6.376,4.677c0.968-1.631,3.684-3.221,1.275-2.551
	c0.749-0.384,1.315-0.951,1.7-1.7c-3.186,1.494-5.473,6.143-8.928,5.951c5.235-4.533,10.584-6.634,12.754-11.903
	c-2.33,1.071-3.729,3.073-5.952,4.251c0.058-0.967,2.56-1.646,1.275-2.55c-1.94,3.141-6.251,6.688-10.202,5.951
	c5.037-1.816,10.449-7.919,12.328-12.753c-2.509,2.309-4.762,4.874-7.652,6.802c0.03-1.178,2.834-3.386,1.7-2.976
	c-1.093,0.483-2.008,3.352-2.976,2.55c-0.015-1.314,2.149-2.636,1.275-3.4c-0.374,1.482-3.024,2.907-2.551,3.826
	c-0.042-0.472,0.891-1.008,0.851-0.426c-0.488,7.105-20.419,6.317-25.506,3.826c1.577-0.122,2.92-0.48,3.4-1.7
	c-0.102,0.17-6.129,1.895-6.376,0.425c0.091,0.539,1.96-0.462,2.125-0.425c-4.953-1.119-6.767,0.935-10.627-2.551
	c1.557-0.16,5.091-0.555,4.676-1.275c-7.999,1.479-15.15-1.088-17.854-4.676c5.188,3.676,14.945,5.711,21.681,2.125
	c-11.301,2.763-17.338-3.324-23.381-7.227c2.773,1.126,8.769,2.835,11.478,1.275c-4.062-0.047-8.536,0.318-9.353-2.976
	c1.966-0.019,4.205,0.237,5.102-0.851c-2.796,0.096-7.933,0.292-7.227-1.7c1.944,0.334,5.183,1.605,7.227,0.425
	c-4.464-0.637-9.292-0.909-10.627-4.676c1.33,0.247,3.381,1.979,4.676,0.851c-7.08-2.557-12.72-8.818-17.43-12.328
	c4.737,2.066,8.516,7.354,14.454,6.802c-5.048-1.329-9.199-3.554-11.478-7.652c1.694,0.443,3.778,2.725,5.101,2.126
	c-2.258-1.144-4.66-2.142-5.951-4.251c0.895,0.543,2.896,2.178,3.826,1.275c-2.83-1.138-5.139-2.797-6.802-5.102
	c1.758,0.942,4.465,3.176,6.376,2.551c-5.428-2.508-10.479-5.392-13.178-10.628c0.077,1.63-0.348,0.154-1.275,0.426
	c-0.347,1.92,0.819,5.354-0.851,5.951c0.435-7.598-2.036-14.614-4.676-20.405c0.116,1.322,1.516,3.558,0.851,4.251
	c-1.45-2.487-3.088-8.166-5.952-10.627c-0.176,1.476,2.427,2.358,1.275,3.4c-3.011-5.613-5.662-7.224-6.376-10.628
	c2.035,0.84,1.341,5.246,2.976,3.401c1.23,2.864,0.465,2.976,3.4,3.4c-1.078-4.105-4.501-6.379-5.101-9.777
	c2.135,1.979,3.458,7.022,5.526,7.652c-11.2-20.828-24.696-41.925-26.781-70.992c-0.377-5.245-0.784-10.551-0.851-13.603
	c0.036,1.666,1.366-3.798-0.851-4.251c-0.072,0.636,0.152,1.568-0.425,1.7c0.14-1.84-0.586-2.815-1.7-3.401
	c-0.453,26.491,4.767,48.964,12.753,66.315c3.338,7.253,7.902,13.15,10.202,19.555c-0.702-1.576-3.385-6.16-5.951-8.927
	c1.068,2.338,2.595,6.468,2.551,8.502c-13.171-23.388-23.357-49.76-21.681-87.996c-3.144-3.658-6.521-7.083-9.352-11.053
	c3.366,2.726,5.985,6.201,9.352,8.927c-0.203-6.155,0.755-11.148,0.426-17.429c-7.144-10.854-14.6-23.66-18.705-36.134
	c5.547,11.315,11.7,22.025,18.705,31.883c0.946-5.431-0.004-12.756,1.274-17.854c-0.035,7.121,0.731,13.439,0.426,20.83
	c3.36,5.141,6.675,10.329,10.627,14.878c-0.594-5.926-0.79-14.511,0-20.405c1.253,11.076-0.712,25.368,7.652,29.332
	c0.112-12.782-0.527-26.316,3.4-35.284c-1.893,10.964-2.168,25.462-1.275,37.834c6.113,5.754,11.812,10.171,19.555,13.604
	c-1.574-3.102-5.087-4.266-7.227-6.802c1.451-3.544-2.879-10.295-0.425-13.178c-0.4-9.69-2.201-21.828,0-31.458
	c2.432-10.638,4.113-23.486,8.077-31.882c6.916-2.152,12.701-5.437,18.704-8.502c-0.711,1.698-1.719,3.099-2.551,4.676
	c5.377-1.85,7.881-6.573,12.328-9.352c4.398,0.568,6.485-3.428,8.927-3.401c-0.663,2.596-2.904,3.614-3.825,5.952
	c4.601-2.768,7.307-7.43,13.603-8.502c-1.724,2.814-5.087,6.245-5.526,8.927c4.618-8.525,11.626-12.818,18.279-19.979
	c3.623-3.899,6.813-9.125,10.203-11.478c2.268-1.574,5.971-2.945,9.352-4.676c3.387-1.734,6.681-4.41,9.777-4.676
	c0.921-0.079,2.141,0.797,2.977,0.85c4.905,0.312,7.832-3.868,12.753-5.101c-0.094,0.534-0.662,0.869,0.425,0.85
	c11.874-4.422,18.921-13.671,26.356-22.53c0.528,1.554-1.929,2.277-0.851,2.976c3.393-3.976,5.744-8.993,8.077-14.028
	c-2.643,11.776-11.066,19.922-18.704,26.356c-3.196,2.692-6.669,4.203-8.502,6.801c11.528-3.35,16.927-12.829,23.806-20.83
	c0.062,0.779-1.496,2.991-0.426,2.125c3.359-6.135,5.785-13.203,7.652-20.83c0.125,0.377,1.15,1.861,1.275,0.85
	c-2.176-2.605-1.91-11.89,0.425-14.028c2.396,0.729,4.913,3.581,7.651,2.551c-2.008-2.734-7.749-4.575-5.525-8.927
	C543.108,210.934,546.422,212.991,548.994,212.126z M58.002,342.208c-0.87,0.565-0.23-4.005-0.425-5.526
	C58.447,336.116,57.807,340.687,58.002,342.208z M55.452,356.661c0.481-0.59,0.864,2.512,0.85,3.826
	C55.665,359.565,55.577,358.094,55.452,356.661z M98.812,275.892c0.754-1.134,0.31,2.491,0.425,3.401
	C98.483,280.427,98.927,276.802,98.812,275.892z M84.784,437.855c-0.652,1.226-2.323-3.529-2.976-5.102
	C81.906,432.082,83.711,436.703,84.784,437.855z M76.282,226.58c0.361,0.078,0.401-0.166,0.425-0.425
	C77.437,226.854,74.396,232.717,76.282,226.58z M62.678,383.442c-0.413,0.012-0.33,0.52-0.425,0.85
	c-1.125-4.969-2.245-9.941-3.826-14.454c0.837-0.894,0.898,1.828,1.275,2.976c1.355,4.12,3.333,10.982,4.676,15.729
	c0.413-0.012,0.33-0.52,0.425-0.85c1.058,0.064,0.125,1.439,0,1.7c3.086,6.305,6.84,21.297,11.053,28.907
	c-1.38,0.427-1.229-1.892-1.7-2.976C70.177,406.175,65.583,394.147,62.678,383.442z M67.354,406.823
	c1.401,3.133,2.533,6.535,3.401,10.202C69.354,413.892,68.222,410.49,67.354,406.823z M70.755,417.45
	C73.479,422.01,71.726,422.396,70.755,417.45L70.755,417.45z M73.731,456.984c1.071,0.771,1.054,2.631,2.125,3.401
	C75.494,462.069,74.093,458.07,73.731,456.984z M75.006,428.928c1.067,1.342,1.57,3.248,2.125,5.102
	C75.929,432.823,75.576,430.768,75.006,428.928z M77.132,434.454c1.906,2.487,2.46,6.325,4.251,8.928
	C80.323,444.008,78.102,436.868,77.132,434.454z M75.856,419.576c2.273,3.536,3.617,8.002,5.526,11.902
	C79.457,429.292,77.541,423.42,75.856,419.576z M84.358,452.309c-1.334-2.99-4.396-10.839-1.7-5.101
	c0.447,0.952,1.25,1.858,1.275,3.4c1.184,3.442,2.974,3.719,3.4,6.376C87.472,457.845,85.189,454.172,84.358,452.309z
	 M87.759,459.11c2.41,3.542,3.77,8.133,5.952,11.903C91.624,468.846,89.523,463.018,87.759,459.11z M94.136,472.288
	c0.099-0.672,1.903,3.95,2.976,5.102C96.459,478.616,94.788,473.86,94.136,472.288z M97.537,479.09
	c1.379,2.472,5.358,9.645,7.652,14.028C102.13,488.95,99.585,484.269,97.537,479.09z M183.832,591.742
	c-1.895-0.096-3.454-4.192-5.101-5.951C180.398,586.115,182.282,589.887,183.832,591.742z M187.233,592.167
	c-0.595-2.097-2.683-2.701-2.976-5.101C185.244,588.304,188.569,591.405,187.233,592.167z M194.46,597.693
	c2.392-0.4,4.48,3.166,7.227,3.826C199.173,602.042,197.059,598.5,194.46,597.693z M201.687,593.018
	c-2.953-2.008-5.743-4.176-8.502-6.377C195.393,587.695,199.29,590.734,201.687,593.018z M191.484,584.516
	c-6.806-3.822-13.619-11.319-18.704-18.279C176.826,571.126,184.748,579.483,191.484,584.516z M187.658,588.341
	c0.991,0.742,7.642,3.511,7.227,5.526c-0.171,0.831-3.984-2.724-4.25-2.975c1.591,2.234,3.935,3.716,5.526,5.951
	c0.93-0.288-0.806-1.413-1.275-1.701c1.964-0.653,2.885,2.819,4.622,3.991c0.154,0.104,0.312,0.196,0.479,0.26
	c-0.168-0.063-0.326-0.155-0.479-0.26c-2.989-1.594-8.307-4.038-10.999-9.518c-9.749-8.389-19.037-17.237-26.781-27.631
	C167.888,568.074,178.867,581.759,187.658,588.341z M143.022,555.184c-1.204-0.224-3.435-3.077-4.251-5.102
	C140.262,551.709,141.532,553.556,143.022,555.184z M141.747,396.195c-4.974-12.294-10.939-24.986-15.304-38.684
	c-4.171-13.091-9.29-27.834-10.202-43.36c-1.854-31.571,0.954-59.741,13.603-79.494c1.626-2.539,4.325-7.267,5.526-7.652
	c-0.717,0.23-3.848,5.679-5.101,7.652c-12.267,19.318-15.344,48.169-13.178,79.069c2.208,31.499,15.619,56.938,25.081,82.045
	C142.292,396.53,141.771,396.643,141.747,396.195z M142.598,399.171c-0.271-0.669-0.041-1.222-0.425-2.125
	C144.578,400.175,144.257,403.264,142.598,399.171z M316.889,560.284c0.816-0.787,1.625,2.039,1.701,3.401
	C317.167,563.407,317.849,561.025,316.889,560.284z M331.343,586.641c-1.602-3.642-3.688-6.797-5.102-10.627
	C329.515,578.59,331.919,582.299,331.343,586.641z M318.59,561.135c5.213,3.288,9.178,7.825,11.478,14.028
	C326.195,570.533,320.104,568.123,318.59,561.135z M318.59,558.584c0.308-1.3-0.733-1.25-0.426-2.551
	c2.608,1.785,4.108,4.678,6.377,6.802C322.883,562.784,320.637,559.661,318.59,558.584z M316.039,547.957
	c3.022,1.937,5.299,4.619,7.651,7.227c1.151,0.787-0.972-0.109-0.85-0.851c-2.548-0.994-3.933-3.153-6.377-4.251
	C316.815,548.881,315.864,548.98,316.039,547.957z M221.667,492.269c-0.682,18.793,0.65,39.583,9.352,51.437
	c-3.875-1.236-5.481-6.969-7.227-11.902C220.337,522.039,217.765,504.497,221.667,492.269z M217.415,569.637
	c-1.165,0.301-3.474-1.899-4.251-3.4C214.603,567.348,215.86,568.642,217.415,569.637z M181.282,521.601
	c0.476,0.883,0.458,0.9-0.425,0.425c-0.508-2.326-2.042-3.625-2.55-5.951C179.588,517.626,180.238,519.811,181.282,521.601z
	 M171.929,363.038c-0.035-0.102,1.614,6.475,0.851,6.376C171.565,365.665,171.989,363.21,171.929,363.038z M171.504,362.188
	c-0.637-0.922-0.725-2.393-0.85-3.826C171.135,357.771,171.519,360.873,171.504,362.188z M169.804,350.284
	c-0.754,1.134-0.31-2.49-0.425-3.4C170.133,345.75,169.688,349.375,169.804,350.284z M168.954,334.981
	c0.924,0.221,0.191,5.751,0.425,8.077C168.455,342.837,169.188,337.306,168.954,334.981z M181.282,560.71
	c2.256,1.454,6.876,7.841,11.053,10.202C188.187,569.673,184.481,564.312,181.282,560.71z M233.994,603.22
	c1.715-0.991,3.364,1.726,5.101,2.126C237.696,606.021,235.653,603.697,233.994,603.22z M236.12,601.094
	c2.373-0.677,2.107,3.209,5.101,3.826C239.016,605.839,237.459,602.455,236.12,601.094z M252.273,604.07
	c-1.081-0.478-2.073-1.045-2.976-1.701C250.207,601.352,252.325,602.72,252.273,604.07z M258.225,608.746
	c-7.475-0.212-16.724-2.194-21.255-8.502c-0.762-0.054-0.896,0.521-1.7,0.425c-0.955-1.312-2.089-2.445-3.401-3.4
	c6.515,0.942,9.42,8.494,18.279,10.202c-4.03-2.101-8.532-3.895-10.202-7.227c3.198,2.188,8.468,5.984,13.603,7.651
	c-2.708-2.251-7.139-2.779-8.927-5.951C249.712,603.655,254.433,605.736,258.225,608.746z M238.245,593.867
	c1.62-0.334,4.049,2.178,6.376,2.551C242.785,596.969,240.32,594.493,238.245,593.867z M158.326,506.297
	c-4.328-7.662-9.302-16.174-8.927-25.506c0.748,0.102,0.969,0.73,0.85,1.7c0.965-0.452,0.162-2.673,0.425-3.826
	c2.383,20.214,17.543,40.04,28.057,54.413c11.17,15.271,24.743,27.158,38.259,37.834c1.334-0.473,1.123-0.199,2.125,0.425
	c-0.081,0.482-0.426,0.236-0.425,0c-1.852-0.917,0.312,0.852,0.851,1.275c13.193,9.62,27.894,17.733,43.36,25.081
	C216.116,581.212,182.028,548.259,158.326,506.297z M229.743,544.556c9.777,11.478,19.382,23.129,34.008,29.757
	C248.883,569.626,236.928,558.343,229.743,544.556z M311.788,592.167c-2.669-0.874-3.286-3.799-5.102-5.526
	C308.719,586.458,311.015,589.676,311.788,592.167z M307.111,587.916c-5.577-3.351-13.156-8.381-16.579-15.304
	C296.238,577.534,302.72,581.681,307.111,587.916z M293.083,511.397C290.052,508.5,292.232,505.998,293.083,511.397L293.083,511.397
	z M289.683,506.297c-1.334,0.856-2.441-3.329-2.551-3.826C288.818,501.715,287.583,505.612,289.683,506.297z M286.282,502.046
	c-1.348-1.77-2.562-3.673-2.976-6.377C285.202,496.891,285.742,499.468,286.282,502.046z M290.107,573.037
	c-2.132,0.322-3.854-2.134-5.101-3.4c-24.437-24.832-44.475-57.556-55.263-96.073c0.498-0.068,0.358-0.774,0.425-1.275
	c0.361-0.078,0.401,0.166,0.425,0.426c10.105,29.878,23.135,56.56,40.81,79.068C277.239,559.215,284.363,565.459,290.107,573.037z
	 M280.33,489.293c-1.272,0.967-1.82-2.415-2.976-2.977C277.518,484.95,279.44,488.61,280.33,489.293z M277.354,483.767
	c-5.527-6.717-10.193-16.369-13.178-24.231C269.017,465.961,272.479,475.526,277.354,483.767z M264.602,457.41
	c-4.526-8.793-6.915-19.726-8.077-31.883C258.706,436.105,262.55,449.534,264.602,457.41z M261.201,428.078
	c-1.018-4.509-1.833-9.22-2.125-14.453c1.78,4.029,2.302,9.316,2.976,14.453C261.42,427.145,261.237,425.355,261.201,428.078z
	 M281.181,350.709c-0.317-1.092-0.06-1.567-0.425-2.976C282.653,350.534,282.975,356.885,281.181,350.709z M279.055,339.657
	c-0.766,1.075-1.624-4.81-2.125-6.801C278.169,334.591,278.09,337.646,279.055,339.657z M276.504,331.58
	c-0.274-2.702-1.238-4.713-1.275-7.652C275.852,325.799,277.283,331.111,276.504,331.58z M274.804,323.078
	c-0.273-2.702-1.238-4.713-1.275-7.652C274.151,317.297,275.583,322.609,274.804,323.078z M270.978,282.268
	c0.949,1.042,0.173,7.474,0.425,10.627C270.454,291.854,271.23,285.422,270.978,282.268z M271.828,300.973
	c-0.836,0.809-0.253-3.41-0.425-4.676C272.24,295.488,271.656,299.707,271.828,300.973z M276.93,461.661
	c-3.52-5.832-4.241-14.464-4.676-23.381C273.891,445.439,275.949,456.674,276.93,461.661z M275.654,465.487
	c-0.7-1,0.449-3.549-0.851-5.102c-1.154,0.387,0.434,1.489,0.425,2.125c-1.221,0.282-1.812-4.573-1.7-3.825
	c0.134-1.266,1.971,1.874,2.125,2.125c2.017,3.277,4.313,9.035,5.526,13.179c3.121,4.247,4.48,10.257,7.227,14.878
	C283.538,481.946,279.904,470.322,275.654,465.487z M323.69,539.88c0.235,1.199-1.13-2.646-2.125-2.976
	c0.225-0.342,0.443-0.69,0.425-1.275c0.807,0.752,1.319,1.798,2.125,2.551C323.366,538.562,323.157,538.213,323.69,539.88z
	 M279.48,452.733c0.523,0.186,0.873,0.545,0.85,1.275c1.684-0.54-1.281-3.266,0.851-2.976c1.851,12.036,5.39,22.384,11.478,30.183
	c-1.198,0.474-1.915-3.175-3.401-3.826c7.326,15.788,17.669,29.775,29.757,41.235c1.815,1.721,5.62,5.604,8.502,8.927
	C304.999,510.818,286.386,486.497,279.48,452.733z M489.055,562.41c-0.445,1.404-3.2,4.161-5.951,4.676
	C484.523,564.963,487.638,564.535,489.055,562.41z M485.229,555.184c-0.931,3.2-4.813,6.841-8.077,8.076
	C479.315,560.918,482.688,558.304,485.229,555.184z M457.598,559.435c2.457-0.235,3.969-1.416,6.376-1.7
	C464.938,559.516,453.126,560.385,457.598,559.435z M459.298,576.863c-1.594,0.729-6.207,0.833-7.227-0.425
	C453.759,574.263,457.552,576.367,459.298,576.863z M454.196,558.584c0.341,1.616-2.01,0.541-2.976,0.851
	C451.28,558.219,452.994,558.657,454.196,558.584z M361.1,437.431c1.087,0.754,0.953,2.73,1.7,3.825
	C362.379,442.999,361.521,438.456,361.1,437.431z M374.277,576.863c-2.271-1.555-4.661-2.99-6.801-4.676
	C368.648,572.449,375.479,577.007,374.277,576.863z M404.035,584.516c-2.117-0.179-3.203-0.975-5.952-1.275
	c0.551-0.617,4.055,0.338,6.802,0.85C407.068,584.497,407.321,584.792,404.035,584.516z M432.517,547.106
	c0.756,0.982-2.972,0.132-3.826,0C428.063,545.995,431.077,547.56,432.517,547.106z M427.415,545.406
	c-4.859-0.566-9.448-2.458-12.753-5.952C418.672,539.981,422.808,544.061,427.415,545.406z M420.613,538.604
	c-1.933,0.506-4.731-1.779-6.801-2.551C415.453,535.839,418.87,537.507,420.613,538.604z M357.699,542.431
	c7.58,19.95,31.574,23.641,50.587,31.032c-7.542-0.679-14.754-5.367-22.53-7.227c6.926,3.324,15.305,7.301,23.806,7.651
	c-2.642,1.871,3.491-0.596,0.85,1.275c4.923,0.643,14.023,3.216,21.255,4.251c-21.931,0.092-46.742-8.539-62.064-19.979
	C364.317,555.488,356.303,549.818,357.699,542.431z M355.573,433.18c0.165,2.453,0.741,4.541,0.851,5.525
	c0.232,2.109,0.087,0.417-0.426-1.274c-0.452-1.495-1.308-3.786-1.7-5.952C355.173,431.596,354.698,433.062,355.573,433.18z
	 M350.472,567.086c1.382,1.852-2.747-3.528-3.825-4.676C347.775,562.426,349.734,565.265,350.472,567.086z M403.185,298.422
	c-1.025-0.78,0.583-2.506,0-4.251C405.224,294.565,403.029,297.173,403.185,298.422z M380.654,73.118
	c8.441-0.364,15.155,0.999,22.53,1.701c-6.74,0.362-14.688-1.748-22.955-1.275C379.574,73.318,380.202,73.1,380.654,73.118z
	 M385.33,192.146c-0.29-0.541,2.208,3.06,2.551,4.676C388.203,197.332,385.546,193.89,385.33,192.146z M376.403,73.118
	c-4.709,0.676-10.004,0.765-14.453,1.701C365.856,73.341,370.895,72.995,376.403,73.118z M346.646,59.94
	c-2.143,0.997-5.009-0.935-7.228-1.275C341.271,57.958,344.27,59.758,346.646,59.94z M367.901,181.094
	c0.013-0.504,1.471,2.309,1.7,2.976C370.142,185.636,368.227,183.063,367.901,181.094z M365.775,165.791
	c-0.02-0.554,2.857,2.996,4.251,3.826C368.713,169.925,366.999,166.985,365.775,165.791z M370.452,171.317
	c0.264-0.467,0.326-0.816,0.288-1.113c-2.058-4.075-4.567-8.321-7.343-12.56c-2.683-3.763-5.616-7.461-8.249-10.983
	c-5.378-7.192-11.486-13.807-17.004-19.979c7.977,7.736,17.627,19.315,25.253,30.962c2.623,3.68,5.006,7.422,6.629,11.123
	c0.237,0.541,0.645,0.903,0.714,1.438c0.044,0.087,0.094,0.176,0.137,0.263c1.715,1.552,5.726,6.332,5.951,9.353
	c1.646,2.039,2.83,4.539,3.826,7.227c-1.359-2.325-2.927-4.441-3.826-7.227C374.465,177.223,373.425,173.303,370.452,171.317z
	 M372.577,190.021c0.7,0.63,3.546,6.333,4.676,9.353C375.22,196.731,374.125,193.15,372.577,190.021z M377.253,199.798
	c0.496,0.638,1.229,1.04,1.275,2.125c0.414-0.012,0.33-0.52,0.426-0.85c0.343,2.112,3.548,8.149,3.4,11.903
	C381.007,208.231,379.021,204.123,377.253,199.798z M390.856,325.204c-0.814,0.923-0.269-3.108-0.425-4.251
	C391.246,320.029,390.7,324.061,390.856,325.204z M390.856,317.126c-0.87,0.565-0.229-4.005-0.425-5.526
	C391.302,311.035,390.661,315.605,390.856,317.126z M394.683,292.045c-1.727,4.348-3.658,10.343-5.102,13.604
	c-0.411-2.965,1.527-6.335,2.551-10.203c1.945-7.352,2.608-16.071,1.275-25.506c0.01-1.783,1.329,6.997,1.275,9.777
	c3.932-34.608-2.509-67.421-14.028-91.397c0.093-1.555,0.584-1.631,0-2.976c-1.692-2.394-2.235-4.727-2.976-7.227
	c4.13,7.592,9.454,18.452,12.328,28.907c4.241,15.436,7.609,32.269,7.651,51.437c0.031,14.105-2.599,27.911-2.976,42.085
	C394.003,299.008,395.081,295.625,394.683,292.045z M402.334,313.726c-0.841,1.568-2.883,1.935-4.676,2.551
	C398.072,314.281,400.823,314.624,402.334,313.726z M395.533,320.527c5.055-3.73,11.917-5.654,16.578-9.777
	C408.964,315.104,401.242,318.384,395.533,320.527z M415.088,298.422c-2.152,1.249-2.908,3.894-4.677,5.526
	c0.733,0.566,2.451-1.498,3.401-2.125c-0.67,3.16-6.535,4.799-8.077,8.502c-2.642-0.375-3.602,0.934-5.102,1.701
	c-0.962-3.544,5.411-1.294,6.377-4.676c-0.132-0.577-1.064-0.353-1.7-0.425c2.797-1.615,2.885-3.331,5.101-5.526
	c-0.103-1.096-0.731,0.583-1.7,0c11.811-17.261,20.212-40.122,18.279-69.717C431.392,256.923,423.398,281.608,415.088,298.422z
	 M451.646,284.819c-0.38-1.035,1.896-2.187,0-2.125c11.285-14.93,16.805-35.624,17.004-61.64c2.871,22.619-4.238,42.1-11.903,56.963
	c13.183-15.648,29.295-54.698,16.579-82.044c9.789,8.149,6.919,35.127,4.251,50.587c6.632-11.537,9.879-31.708,6.377-49.312
	c5.979,15.225,2.184,34.164-4.251,48.887c-3.977,9.097-7.412,19.111-11.903,24.656c-2.398,2.961-6.079,5.077-8.927,8.077
	c-7.5,7.901-11.52,16.608-22.105,20.405C442.301,295.028,447.396,290.345,451.646,284.819z M436.768,304.374
	c2.572-4.513,6.896-7.274,10.202-11.053c-0.749,2.132,0.986,0.237,2.126-1.275C448.168,297.638,442.247,301.916,436.768,304.374z
	 M449.096,295.872c0.428-1.05,2.188-5.14,2.551-5.952c2.067-4.644,6.62-7.182,10.202-11.053c1.448-1.565,2.216-4.942,4.251-4.676
	C461.453,282.44,455.157,289.038,449.096,295.872z M466.1,279.718c0.023-2.25,3.318-4.896,6.377-5.526
	C470.617,276.3,468.145,277.795,466.1,279.718z M489.905,270.791c-0.63-0.521,1.4-1.977,2.976-1.701
	C492.345,270.113,490.62,269.947,489.905,270.791z M495.856,259.738c-6.089,4.813-13.507,9.888-19.979,12.753
	c-2.789,1.235-5.379,2.001-8.502,1.275c20.183-8.104,35.427-21.049,44.211-39.959c2.759-5.94,5.175-15.534,8.076-20.83
	c0.361-7.857,1.078-15.359,0.851-23.806C526.576,220.998,513.857,245.508,495.856,259.738z M532.841,208.726
	c-1.657,7.271-3.71,14.145-6.377,20.405c1.146-6.083,4.914-13.223,5.951-20.83C532.241,206.768,533.191,207.718,532.841,208.726z"/>
</svg>
