<?xml version="1.0" encoding="utf-8"?>
<!-- Generator: Adobe Illustrator 16.0.0, SVG Export Plug-In . SVG Version: 6.00 Build 0)  -->
<!DOCTYPE svg PUBLIC "-//W3C//DTD SVG 1.1//EN" "http://www.w3.org/Graphics/SVG/1.1/DTD/svg11.dtd">
<svg version="1.1" id="Layer_1" xmlns="http://www.w3.org/2000/svg" xmlns:xlink="http://www.w3.org/1999/xlink" x="0px" y="0px"
	 width="612px" height="792px" viewBox="0 0 612 792" enable-background="new 0 0 612 792" xml:space="preserve">
<path fill-rule="evenodd" clip-rule="evenodd" d="M406.27,42.374c6.193-2.3,13.893-8.36,19.135-8.578
	c-3.605,0.15,6.995,1.479,5.279,3.299c-4.53,1.628-11.371,0.946-13.197,5.279c2.076-0.755,1.604,1.036,2.64,1.32
	c5.8-1.316,13.381-3.267,20.456,0c-0.74,0.14-1.027,0.732-1.32,1.32c1.896-0.137,3.352,0.167,3.959,1.32
	c-8.123,0.895-14.858,3.177-20.455,6.598c0.408,1.791-0.838,5.237,0.66,5.939c3.504-0.234,2.296-5.182,4.619-6.599
	c0.846,1.133,2.633,1.325,3.299,2.64c1.785-1.733,2.551-4.487,5.938-4.619c0.631,1.229-1.976,2.205,0,2.639
	c2.657-0.532,8.67,3.029,11.878-0.66c0.103,0.776-0.113,1.873,0.659,1.979c1.196-0.821,4.083-3.345,5.278-1.979
	c-3.562,4.136-8.495,6.901-9.896,13.197c6.393-3.944,9.678-10.998,21.115-9.898c-2.355,3.145-8.841,2.157-10.559,5.938
	c0.988,0.113,2.436-0.235,2.64,0.66c-5.109,0.836-7.278,8.109-7.918,11.217c5.379-1.22,10.504-2.693,15.177-4.619
	c1.668,2.51,7.373,0.985,9.238,3.299c-5.299,0.646-13.881,1.507-12.537,6.598c1.276,0.55,1.334-1.356,1.979-1.319
	c6.043,0.347,19.806,0.923,23.096,3.959c-3.182-0.173-9.48-2.244-10.559,1.32c6.482,0.117,14.067-0.87,17.156,2.639
	c-8.824,1.953-23.613-2.059-26.394,5.939c5.8,1.39,10.288-2.014,12.537-1.98c-0.524,0.073-2,2.182-0.66,1.98
	c2.403-0.204,4.294,0.104,5.938,0.66c1.026,2.346-2.24,0.398-1.979,1.979c1.683,0.077,3.395,0.125,3.299,1.979
	c-2.553,1.846-9.355-0.558-11.877,1.32c4.656,2.821,12.869,2.087,15.176,7.258c-6.182-0.306-15.9-8.536-19.795-2.639
	c7.996,3.44,20.457,2.417,24.414,9.897c-3.471,0.759-6.361-4.041-7.258,0c4.775,1.164,11.105,0.771,13.197,4.619
	c-6.766,2.174-16.934-3.726-23.096,0c1.684,0.077,3.395,0.124,3.299,1.979c-3.294,0.159-7.973-2.088-9.897,0.66
	c7.485,1.312,16.074,1.522,23.755,2.639c-6.715,6.283-20.156-0.702-26.395,1.32c7.992,4.219,18.457,5.595,27.715,1.979
	c0.129,3.208-4.259,1.9-5.279,3.959c1.539,0.221,2.843,0.676,3.299,1.979c-3.441,1.544-6.279-0.164-9.897,0.66
	c0.208,0.892,0.939,1.26,0.66,2.639c-2.969-0.613-6.159-2.417-7.919,0.66c3.352,1.708,6.842,3.276,9.238,5.938
	c-8.183,1.607-18.507,2.961-28.373,4.619c10.465,6.299,22.344-1.205,31.672-3.959c1.227,6.639-14.02,5.421-9.237,9.238
	c-3.52,0-7.038,0-10.558,0c0.426,1.591,4.808,2.62,3.299,3.959c-0.6-1.159-2.312-1.207-3.299-1.979
	c-0.113,1.131,3.742,2.595,0.66,2.64c-2.206-1.094-4.394-2.206-6.6-3.299c2.166,3.333,7.012,3.986,8.578,7.918
	c-2.598,1.006-4.584-1.943-5.278-0.66c1.498,1.047,2.648,4.788,1.979,5.938c-2.77-0.749-4.275-2.762-6.598-3.959
	c-0.189,1.164,3.106,2.043,1.318,2.639c-4.236-2.802-6.531-7.545-13.196-7.918c2.28,4.758,8.641,5.436,11.878,9.238
	c-4.499-0.561-7.396-2.722-10.559-4.619c2.093,3.406,6.737,4.26,8.578,7.918c-2.489-0.426-3.848-3.093-3.959-0.66
	c-8.663-6.039-15.47-20.348-29.693-16.497c4.469,0.811,9.45,1.107,11.877,3.959c-5.825,0.1-11.871-3.075-15.836-2.64
	c1.607,0.373,3.395,0.565,3.299,2.64c-5.325-0.008-10.212-4.476-15.836-5.279c-5.168-0.738-10.715,0.588-15.837,0
	c-10.965-1.258-21.634-6.88-32.333-3.959c4.568,0.271,9.111,0.566,11.218,3.299c-9.839-0.446-19.146-3.168-28.374-3.959
	c-8.277-0.709-15.688-2.658-23.095-3.299c3.968,2.191,9.902,2.415,13.197,5.279c-5.409,0.332-11.468-2.286-15.837,0
	c-7.357-1.218-20.723-2.001-26.394,3.299c0.968,0.007,5.399-0.25,3.299,0.66c-4.898,1.575-9.901-0.422-12.537,2.64
	c0.069,2.378,3.943,4.376,1.979,6.599c-1.393-2.786-3.416-4.942-5.278-7.259c-1.196,1.663-3.844,1.876-4.619,3.959
	c1.231,6.598,8.918,7.717,8.578,14.517c-1.483-2.489-3.526-7.893-5.279-7.918c1.771,5.713,8.077,10.394,7.259,16.497
	c-1.432-3.408-3.404-6.274-5.279-9.238c5.065,12.323,11.683,26.573,16.497,36.952c-2.414,0.61-3.021-3.959-3.96-2.64
	c-0.08,2.94,1.628,4.091,1.98,6.599c-3.134,4.033,0.374,10.022,0.659,15.836c-1.905,2.418-2.546-4.049-3.959-1.979
	c-0.317,2.564,0.711,9.918-0.66,9.238c-0.401-1.578,0.829-4.788-0.659-5.279c-3.673,12.384-7.209,24.904-13.857,34.312
	c2.692-8.088,7.693-17.378,7.259-26.394c-2.862,8.537-6.055,15.733-12.537,19.136c-0.564-3.63,2.886-7.828,2.64-10.558
	c-4.136,1.803-3.279,8.599-7.259,10.558c-0.631-1.229,1.976-2.205,0-2.639c-3.288,3.672-5.842,8.19-11.878,10.558
	c0.325-4.075,2.967-5.832,3.96-9.238c-8.199,4.339-5.647,19.428-12.538,25.075c-0.309-5.596,3.533-10.533,2.64-14.517
	c-4.178,6.6-4.349,17.206-7.258,25.074c-0.632-4.167,1.976-8.56,0.659-11.217c-0.343,2.538-1.203,4.952-2.639,4.619
	c-0.068,7.744,1.419,14.052-0.66,20.456c6.297,3.643,16.785,3.015,26.395,4.619c6.335,1.057,12.496,2.428,18.476,3.299
	c12.279,1.789,33.046,9.379,46.189,8.578c10.408-0.635,16.12-9.872,27.054-11.218c6.324-0.779,12.959-0.373,19.137-0.66
	c20.934-0.974,44.428-2.388,60.706,2.639c5.193,1.604,9.314,5.47,14.517,5.939c2.912,0.262,6.433-1.701,8.578-0.66
	c11.955-15.011,46.148-9.013,67.965-9.238c2.993,4.132,9.783,6.22,8.578,13.197c-1.85,10.714-8.682,28.306-16.496,38.931
	c-7.498,10.194-26.525,14.518-42.891,12.537c0.117-2.317-2.229-2.17-2.639-3.959c5.184-0.092,10.471,1.462,14.516,1.32
	c28.668-1.013,35.254-24.123,38.932-51.469c-4.684-6.288-15.191-5.793-25.074-5.279c-12.88,0.67-30.637,0.241-36.951,9.898
	c-5.256,8.036-0.562,15.829-4.619,26.394c-3.856-6.702-9.592-11.524-11.218-20.456c-15.581,8.26-12.476,32.041-27.714,42.23
	c-4.695,3.14-13.997,5.729-20.455,7.259c-25.945,6.146-67.492,5.206-69.285-25.075c-7.507-7.947-20.85-7.92-33.652-10.558
	c-20.394-4.2-42.062-11.024-61.366-12.537c0.513,3.088,3.794,7.891,0.659,10.558c-1.295-3.324-0.983-8.254-3.299-10.558
	c0.396,10.604,5.113,20.397,5.938,28.374c-2.936-4.323-5.365-9.152-6.599-15.177c0.109,9.041,2.313,16.013,5.279,20.456
	c-2.876-2.057,1.259,1.536-0.66,1.979c-0.772-0.987-0.82-2.699-1.979-3.299c-0.104,4.295,2.762,9.098,1.319,12.537
	c-1.48-2.699-4.631-3.727-7.258-5.279c-0.544,2.348,4.089,2.89,1.979,4.619c-1.069-1.163-3.313-4.561-3.959-3.959
	c0.589,1.859,1.443,6.876,0,8.578c-1.076-1.783-1.646-4.074-4.619-3.959c-0.466-3.054,0.266-7.305-3.3-7.258
	c0.093,4.882-1.25,8.179-2.639,9.897c-1.95-1.569,0.63-7.668-1.32-9.238c-1.275,2.463-1.979,5.5-4.619,6.599
	c-0.659-4.179,2.445-4.593,2.64-7.918c-5.285-0.667-3.143,6.095-7.918,5.939c0.027-2.637,4.867-3.897,2.64-6.599
	c-1.134,0.043-1.326,4.291-2.64,1.979c0.514-0.146,0.767-0.553,0.659-1.32c-0.457,0.517-3.682,1.469-3.959,0
	c1.658-2.35-0.609-3.651,0-7.258c0.527-3.12,3.749-6.027,3.959-9.238c0.494-7.528-4.259-14.871-7.918-19.796
	c0.593-3.012-1.099-3.74-1.319-5.938c-10.711-10.845-27.764-15.347-38.932-25.734c-25.408-9.586-44.448,11.526-40.911,38.931
	c0.693,5.37,3.412,10.11,1.979,15.837c5.763,12.04,6.659,26.238,13.197,38.271c8.108,6.076,7.789,14.505,14.517,20.456
	c-0.236-0.21-0.322-1.253-0.659-1.32c5.607,1.109,9.634,10.146,14.517,14.518c-1.135,0.26-1.691-0.979-1.979,0
	c3.171,3.991,10.243,5.328,15.177,3.959c-2.766,2.493-9.063,2.35-11.218,1.979c1.35,0.85,0.696,3.703,2.64,3.959
	c4.075-2.963,10.301-3.776,11.217-9.897c0.113,0.987-0.235,2.435,0.66,2.639c2.569-0.069,1.135-4.144,3.3-4.618
	c0.423,9.881-9.155,9.76-14.518,13.856c0,1.1,0,2.199,0,3.299c-3.331-2.023-5.43-7.033-3.959-11.877
	c-2.994-1.404-5.584-3.214-7.258-5.938c0.446-2.247,2.192,2.907,2.639,0.66c-1.751-0.889-1.981-3.298-4.618-3.3
	c-0.435,2.413,1.428,2.531,1.319,4.619c-3.518-0.47-1.135-4.708-3.3-5.279c-0.147,0.513-0.018,1.302-0.659,1.32
	c-5.308-6.57-9.219-14.537-14.517-21.115c1.312,7.049,8.645,11.585,8.578,17.815c-6.937-5.381-7.613-17.021-13.857-23.095
	c-7.067-14.558-15.438-31.098-13.856-52.128c-1.09-0.01-0.37-1.83-1.32-1.979c-0.695,3.704-0.78,8.017-0.66,12.537
	c-4.484-2.333,0.272-13.909-3.299-17.156c-0.113,1.867,0.567,4.527-1.319,4.619c-1.109-5.372,1.104-10.635-0.66-15.836
	c-0.677,2.622-0.297,6.302-2.64,7.258c-4.09-8.875-2.189-22.628-5.938-30.353c-0.98-0.02-2.948,2.701-2.64,0
	c2.67-2.201,0.214-2.664-0.659-5.279c5.063-3.151,0.036-5.236,1.319-9.897c-1.735-0.196-0.52,2.56-2.64,1.979
	c1.64-6.868,0.98-8.417,1.979-14.517c-1.149-0.05-2.052,0.147-2.64,0.66c0.344-3.742,1.281-2.788,2.64-5.279
	c-1.247-0.148-1.455,0.744-2.64,0.66c-0.76-3.642,2.693-6.515,0.66-9.238c0.035,1.234-0.508,1.397-1.319,0.66
	c0.771,2.03-0.815,2.931-3.3,4.619c-0.363-5.422,1.432-8.686,2.64-12.537c-1.131-0.113-2.595,3.742-2.64,0.66
	c1.873-3.231,2.561-7.955,1.32-12.537c-1.533,0.289-1.767,2.914-3.3,1.32c4.336-8.233,1.186-14.26,5.938-21.775
	c-1.702,0.057-0.693,2.825-3.299,1.979c1.203-11.075-2.261-17.595,5.938-25.734c-1.499-0.481-1.974-1.985-2.64-3.299
	c1.759-0.661,2.176-2.663,3.3-3.959c-6.462-1.348,2-10.835-1.979-8.578c2.188-3.75,5.658-6.219,7.258-10.558
	c-1.33-3.42-0.802-3.515,0.66-6.599c-0.95,0.738-1.61,0.711-1.979-0.66c2.36-2.241,9.668-3.632,6.599-7.258
	c1.161-1.698,2.869-2.849,3.959-4.619c-0.987-0.112-2.435,0.236-2.64-0.66c2.224-2.396,5.014-4.225,6.599-7.259
	c-0.882-0.658-1.296-1.783-2.64-1.979c0.144-2.936,3.214-2.945,4.619-4.619c0.262-1.582-3.005,0.366-1.979-1.979
	c1.236-2.723,5.215-2.704,6.599-5.279c-0.78,0.76-2.332,0.747-3.959,0.66c1.099-4.044,6.36-4.527,4.619-7.918
	c5.052-2.046,11.28-7.507,9.237-12.537c6.323-3.576,9.822-9.974,15.837-13.857c-2.99-0.132,0.249-1.249,0.66-1.979
	c2.599-4.619,5.101-11.733,8.578-15.836c2.826-0.518,2.69,0.096,5.278-0.66c-0.25,2.23,1.144,2.815,1.979,3.959
	c0.474-3.486,0.852-7.067,2.64-9.238c0.361,0.959-0.771,3.411,0.66,3.299c2.207-4.611,7.076-6.56,10.558-9.898
	c0.228,1.752,1.731,2.228,3.299,2.64c2.418-3.96,4.694-8.063,5.938-13.197c3.445,0.295,2.416,5.063,4.619,6.599
	c0.952-1.468,1.657-3.182,1.32-5.938c2.686-1.31,4.256-1.412,6.599-3.959c0.914,1.065,0.558,3.402,1.979,3.959
	c-0.35-3.182,2.46-0.688,3.959-1.32c1.985-0.838,3.167-4.537,5.278-3.299c0.241,4.87-6.28,6.462-3.959,11.218
	c2.327-6.911,6.895-11.582,11.218-16.497c0.51,1.686-2.582,3.034-0.66,3.959c1.684-1.836,1.907-5.131,5.938-4.619
	c0.478,2.016-0.674,2.404-0.659,3.959c1.556-0.204,1.228-2.292,3.299-1.979c0.775,1.75-1.265,3.885,0,3.959
	c3.518-2.641,5.867-6.451,7.919-10.558c2.338,1.305,1.303,0.86,3.959,0c0.836,2.012-2.257,3.36-0.66,3.959
	c1.614-2.564,2.62-5.738,5.938-6.599c-1.478,7.984-10.392,12.04-9.897,19.796c4.301-5.768,8.63-14.451,14.517-16.497
	c-0.519,3.441-2.61,5.309-3.299,8.578c5.193-4.044,5.927-12.548,13.196-14.517c0.856,1.637-1.472,3.202,0,3.299
	c2.466-2.813,3.261-7.297,7.919-7.918c0.3,2.965-3.25,5.515-1.979,7.258c7.491-0.646,7.967-8.309,14.517-9.897
	c0.3,4.492-5.427,6.434-4.619,9.238c7.875-1.586,9.417-13.014,16.496-13.197c-4.539,5.062-3.557,4.623-5.278,9.898
	c2.466-2.813,4.225-6.333,8.578-7.258c1.098,2.073-2.454,2.696-0.66,3.299c5.761-5.514,11.41-1.904,18.476-5.939
	c-0.858,5.087-8.562,6.826-8.578,10.558c2.481-0.836,4.188-5.905,5.939-5.279c-0.395,0.987-3.321,2.753-1.98,3.299
	c2.834-2.445,5.473-5.085,7.919-7.918c0.906,1.504-1.701,2.48,0,2.639c4.442-2.161,10.845-5.864,15.177-5.938
	c-2.477,1.923-4.676,4.123-6.599,6.599c10.625-0.011,16.707-10.069,28.374-11.218c0.253,2.233-2.922,1.039-1.98,3.959
	c1.782,0.825,2.573,1.616,2.64,2.639c2.034-0.165,2.023-2.375,3.3-3.299c0.154,2.704,0.322,5.396,1.319,7.258
	c0.819-4.239,1.248-8.87,3.959-11.217c0.425,4.512-1.801,8.25,0.66,11.217c2.094-1.52,1.681-2.114,5.278-1.319
	c-0.01-3.53,0.62-6.419,3.3-7.259c1.269,1.371,0.765,4.515,1.979,5.939c2.425,0.214,5.842-0.563,7.258,0.66
	c0.739-3.88,1.398-7.84,1.98-11.877c2.113-0.134,1.076,2.883,3.299,2.64c1.32,6.031-4.172,11.69,0,14.517
	c3.674-4.024,6.57-8.826,12.537-10.558c-1.951,3.853-7.579,7.261-6.599,11.877c6.911-1.667,8.724-8.433,15.177-10.558
	c-1.609,4.527-6.484,5.508-8.578,9.238c0.15-0.268,1.965,0.391,1.32,1.32c-0.975,1.402-4.055,2.329-0.66,3.959
	c3.866-4.492,6.725-9.991,11.877-13.197c-0.698,6.286-9.174,9.487-9.238,15.836c3.129-1.062,3.297-8.565,6.6-7.258
	C409.006,35.004,406.257,40.146,406.27,42.374z M352.161,21.918c-1.989,0.871-4.072,1.646-4.619,3.959
	C349.278,26.968,351.52,24.002,352.161,21.918z M357.439,27.857c-0.53,0.349-1.07,0.688-1.979,0.66
	c0.277,1.262,0.238,2.84,1.979,2.64C357.439,30.057,357.439,28.957,357.439,27.857z M305.972,31.156
	c-1.993-1.949-2.897,2.789-4.619,3.299C303.336,36.395,303.808,31.225,305.972,31.156z M402.97,40.394
	c-1.071,1.128-1.997,2.402-1.979,4.619C403.139,44.962,402.398,42.022,402.97,40.394z M437.282,44.354
	c-5.456-1.489-10.952,2.678-15.837,3.959C426.318,49.217,431.645,44.881,437.282,44.354z M419.467,54.251
	c-0.067-1.258-2.459,0.526-3.3,0.66c0.007,1.752-0.249,3.769,0.659,4.619C418.593,58.657,417.944,55.369,419.467,54.251z
	 M445.201,56.23c-4.57-1.04-11.172,1.579-15.178,3.299c0.057,0.937,0.109,1.869-0.659,1.979c1.602,1.344,5.447-0.682,5.938-2.639
	C437.629,61.601,442.217,57.047,445.201,56.23z M439.922,64.149c-1.805,0.614-2.814,2.025-4.619,2.639c0,1.54,0,3.08,0,4.619
	C438.752,70.897,440.359,68.546,439.922,64.149z M454.438,77.346c-1.132-1.513-4.69,0.104-3.959,2.639
	C452.246,79.553,452.988,78.095,454.438,77.346z M472.914,81.305c-2.58-1.239-9.125-0.784-10.557,1.32
	C466.613,82.922,470.091,82.44,472.914,81.305z M466.316,97.142c-1.54,0-3.08,0-4.619,0c-0.568,0.532-0.393,1.808-1.32,1.979
	c2.678,2.594,5.436-0.374,6.599-0.66C468.925,96.93,465.445,99.75,466.316,97.142z M452.459,126.175
	c1.746,2.872,5.422,3.816,9.238,4.619C458.688,129.184,457.941,125.312,452.459,126.175z M447.84,139.372
	c1.427,2.479,7.127,3.642,10.558,1.98C455.152,140.691,450.828,138.152,447.84,139.372z M330.386,141.352
	c2.729,1.317,8.558,4.302,10.558,0.66C337.678,141.538,334.371,141.105,330.386,141.352z M311.25,142.671
	c1.614,1.906,5.853,1.187,9.238,1.32C318.874,142.086,314.636,142.805,311.25,142.671z M291.454,223.833
	c-1.686,0.074-1.31,2.209-1.319,3.959C292.52,228.417,291.055,225.194,291.454,223.833z M244.604,273.323
	c-2.438,0.848-2.648,1.961-1.979,4.619C243.946,277.063,244.096,275.013,244.604,273.323z M238.007,293.118
	C235,296.097,239.307,302.155,238.007,293.118L238.007,293.118z M435.963,319.512c-22.091-7.941-66.838-7.016-82.482,5.939
	c-0.766,12.847-13.835,31.361-7.258,42.891c3.002,5.262,15.221,7.87,24.414,8.578c25.518,1.965,49.236-6.227,58.067-21.116
	c2.874-4.846,7.284-17.904,7.919-24.415C436.988,327.634,436.495,323.512,435.963,319.512z M234.707,363.723
	c-2.238,3.362,0.766,7.134,1.979,9.238C238.408,370.115,234.367,367.38,234.707,363.723z"/>
</svg>
