<?xml version="1.0" encoding="utf-8"?>
<!-- Generator: Adobe Illustrator 16.0.0, SVG Export Plug-In . SVG Version: 6.00 Build 0)  -->
<!DOCTYPE svg PUBLIC "-//W3C//DTD SVG 1.1//EN" "http://www.w3.org/Graphics/SVG/1.1/DTD/svg11.dtd">
<svg version="1.1" id="jasmine_xA0_Image_1_" xmlns="http://www.w3.org/2000/svg" xmlns:xlink="http://www.w3.org/1999/xlink"
	 x="0px" y="0px" width="861.84px" height="1096.8px" viewBox="0 0 861.84 1096.8" enable-background="new 0 0 861.84 1096.8"
	 xml:space="preserve">
<path d="M48.737,441.707c2.976,8.783,7.481,16.594,14.283,23.005c0.854,0.804,1.501,1.859,2.123,2.872
	c2.286,3.728,5.096,6.939,8.961,9.2c-0.959-2.234-3.188-3.69-4.058-6.353c1.729,0.366,2.783,1.178,3.719,2.314
	c1.777,2.159,3.614,4.271,5.478,6.357c1.358,1.521,1.423,1.501,0.539,3.303c-2.049,4.179-3.898,8.448-4.74,13.042
	c-0.547,2.978-0.903,6.014-1.046,9.039c-0.277,5.848,1.622,11.088,5.391,15.498c2.218,2.595,4.832,4.871,7.406,7.133
	c1.044,0.917,1.405,1.674,1.077,3.062c-0.885,3.737-1.795,7.444-3.197,11.042c-1.867,4.79-2.871,9.794-3.372,14.93
	c-0.977,10.016,2.991,17.56,11.146,23.129c4.246,2.899,8.783,5.262,13.544,7.181c1.479,0.596,2.511,1.519,3.399,2.845
	c1.688,2.521,3.535,4.939,5.391,7.342c1.301,1.686,1.378,1.657,0.139,3.485c-7.007,10.342-14.952,19.783-25.603,26.624
	c-0.195,0.126-0.357,0.312-0.517,0.486c-0.039,0.042-0.006,0.15-0.006,0.377c2.26-0.078,4.326-0.8,6.318-1.783
	c3.552-1.753,6.667-4.133,9.459-6.907c4.592-4.565,9.175-9.146,13.621-13.852c2.854-3.02,5.454-6.277,8.171-9.426
	c0.456-0.527,0.931-1.038,1.581-1.762c3.361,3.687,6.861,6.903,11.852,7.888c-0.687-0.418-1.363-0.854-2.062-1.25
	c-3.108-1.765-5.689-4.119-7.834-6.967c-0.632-0.839-1.021-1.644,0.476-2.505c3.292,3.851,7.162,7.015,11.976,8.82
	c1.1,0.413,2.261,0.661,3.494,0.793c-5.772-2.615-10.848-6.036-14.526-11.414c1.299-2.017,2.336-4.065,4.227-5.892
	c0.685,0.842,1.244,1.482,1.75,2.162c3.235,4.341,7.028,8.098,11.677,10.909c2.294,1.387,4.671,2.664,7.515,2.73
	c-5.147-2.355-9.677-5.507-13.464-9.656c0.076-0.169,0.152-0.339,0.229-0.508c1.094,0.408,2.188,0.815,3.283,1.224
	c0.089-0.138,0.178-0.275,0.267-0.413c-2.919-2.112-6.084-3.943-8.628-6.877c0.843-0.326,1.417-0.549,2.114-0.818
	c0.188-0.662,0.399-1.402,0.669-2.35c1.97,0.983,2.938,2.809,4.428,4.037c1.519,1.252,2.98,2.571,4.468,3.861
	c0.129-0.124,0.258-0.248,0.387-0.372c-0.53-0.631-1.049-1.273-1.594-1.892c-1.799-2.039-3.649-4.033-5.4-6.112
	c-1.523-1.811-1.474-1.85,0.222-3.472c0.171-0.163,0.313-0.354,0.602-0.684c-0.272-0.894-0.609-1.859-0.861-2.846
	c-0.869-3.4,1.345-6.856,4.701-7.381c1.661-0.26,2.101,0.053,2.47,1.737c0.683,3.121,1.215,6.285,2.087,9.353
	c1.713,6.027,4.723,11.36,9.214,15.782c0.966,0.952,1.407,2.079,1.766,3.327c2.037,7.09,5.367,13.523,10.053,19.217
	c5.525,6.713,12.559,10.757,21.27,11.802c1.139,0.137,2.343,0.57,3.304,1.194c3.384,2.198,6.962,3.914,10.849,5.009
	c2.512,0.708,2.732,1.228,1.372,3.531c-1.37,2.322-2.171,4.797-2.385,7.474c-0.278,3.473,0.857,6.32,3.842,8.237
	c0.942,0.604,1.649,1.801,3.106,1.577c-0.253-0.806-0.641-1.51-0.647-2.218c-0.008-0.729,0.356-1.46,0.613-2.39
	c0.534,0.396,0.835,0.534,1.019,0.766c2.303,2.893,5.28,4.856,8.634,6.304c1.148,0.495,2.068,1.182,2.382,2.664
	c-0.301,0.17-0.603,0.446-0.944,0.515c-5.678,1.128-11.4,1.881-17.146,0.745c-2.163-0.428-4.228-1.4-6.304-2.208
	c-1.64-0.638-2.602-1.796-2.396-3.689c0.042-0.388-0.055-0.79-0.13-1.694c-0.436,1.054-0.698,1.69-1.063,2.572
	c-0.582-0.432-1.114-0.724-1.518-1.141c-2.479-2.568-4.253-5.593-5.586-8.884c-1.513-3.733-2.352-7.636-2.863-11.618
	c-0.13-1.012-0.317-2.017-0.507-3.198c-0.221,0.291-0.355,0.386-0.362,0.488c-0.547,8.136,1.095,15.767,5.473,22.693
	c1.058,1.673,2.423,3.187,3.826,4.594c0.994,0.998,1.427,1.974,1.301,3.38c-0.36,3.999-0.3,8.004,0.523,11.949
	c4.012,19.228,15.03,32.483,33.619,39.198c4.121,1.488,8.444,1.779,12.789,1.505c1.597-0.101,2.932,0.164,4.22,1.204
	c7.353,5.934,20.571,7.269,30.419-0.273c0.572-0.438,1.159-0.86,1.692-1.342c0.915-0.827,1.854-1.536,2.842-1.183
	c0.959-1.479,1.73-2.825,2.655-4.056c1.345-1.788,2.758-3.53,4.231-5.214c0.546-0.624,1.282-1.308,2.041-1.479
	c2.836-0.645,5.224-1.951,7.145-4.131c0.147-0.167,0.402-0.238,0.588-0.343c2.348,1.175,3.268,2.948,2.501,5.217
	c-3.324,9.838-8.25,18.734-15.785,26.006c-4.511,4.353-9.656,7.647-15.981,8.708c-1.382,0.231-2.781,0.357-4.714,0.599
	c2.635,1.255,4.9,1.381,7.181,1.229c4.522-0.302,8.502-2.115,12.204-4.609c4.915-3.312,8.918-7.56,12.107-12.507
	c2.204-3.42,4.047-7.072,6.047-10.624c0.372-0.661,0.722-1.337,1.303-2.414c1.192,2.294,2.161,4.174,1.62,6.302
	c-2.372,9.335-6,18.075-12.628,25.28c-1.346,1.463-2.957,2.682-4.444,4.015c-0.388,0.347-0.771,0.696-1.061,1.206
	c2.065-0.089,3.858-0.831,5.553-1.898c4.741-2.987,8.001-7.293,10.785-12.03c0.443-0.754,0.918-1.489,1.389-2.227
	c0.027-0.044,0.146-0.029,0.493-0.088c-0.112,0.893-0.188,1.724-0.324,2.546c-2.524,15.307-7.097,30.023-12.739,44.44
	c-4.812,12.297-9.909,24.472-15.847,36.27c-5.48,10.889-12.044,21.116-19.345,30.875c-1.245,1.665-2.457,3.355-3.676,5.041
	c-0.183,0.251-0.316,0.538-0.293,1.008c0.482-0.448,1.003-0.862,1.443-1.349c10.799-11.937,19.805-25.086,26.949-39.525
	c6.711-13.564,12.762-27.409,18.012-41.602c4.512-12.196,7.641-24.753,9.644-37.596c0.118-0.757,0.281-1.507,0.424-2.26
	c0.18,0.008,0.359,0.016,0.539,0.022c0,1.139,0.016,2.277-0.002,3.416c-0.255,15.603-1.057,31.171-2.555,46.711
	c-2.044,21.192-4.867,42.279-8.604,63.232c-1.402,7.863-3.316,15.661-5.447,23.364c-2.834,10.247-6.089,20.379-9.205,30.548
	c-0.817,2.668-1.788,5.288-2.371,8.1c0.275-0.485,0.573-0.961,0.824-1.459c3.821-7.593,6.688-15.568,9.543-23.557
	c6.16-17.24,10.082-35.011,13.058-53.039c3.507-21.248,6.037-42.605,7.671-64.071c0.395-5.182,0.521-10.383,0.775-15.574
	c0.039-0.788,0.113-1.574,0.5-2.461c0.227,0.522,0.521,1.027,0.672,1.572c4.769,17.361,11.601,33.88,20.179,49.698
	c0.543,1.002,0.8,2.264,0.837,3.416c0.107,3.407,0.038,6.82,0.038,10.23c0.2,0.012,0.4,0.023,0.601,0.035
	c0.283-2.816,0.567-5.632,0.914-9.08c1.946,2.453,3.15,4.745,4.632,6.832c1.575,2.217,3.077,4.487,4.694,6.673
	c1.554,2.099,3.215,4.119,4.829,6.174c0.135-0.092,0.271-0.183,0.406-0.273c-0.47-0.783-0.94-1.565-1.41-2.348
	c-3.906-6.517-7.8-13.039-11.727-19.542c-0.903-1.497-1.166-3.039-1.109-4.796c0.292-9.034,0.462-18.073,0.67-27.11
	c0.019-0.792,0.003-1.585,0.446-2.578c0.299,0.458,0.663,0.887,0.887,1.379c3.504,7.719,6.896,15.488,10.522,23.148
	c1.561,3.299,3.593,6.374,5.41,9.55c0.168-0.077,0.336-0.153,0.504-0.23c-0.192-0.521-0.335-1.067-0.584-1.561
	c-6.02-11.941-11.245-24.229-16.092-36.687c-0.707-1.819-1.122-3.623-1.097-5.59c0.062-5.119,0.009-10.24,0.001-15.36
	c0-0.55,0-1.1,0.235-1.699c1.348,2.874,1.896,5.984,2.853,8.96c0.976,3.031,1.986,6.051,2.981,9.076
	c0.173-0.036,0.347-0.071,0.521-0.106c-0.133-0.786-0.231-1.579-0.405-2.356c-2.002-8.979-4.061-17.945-5.992-26.938
	c-0.484-2.252-0.687-4.583-0.821-6.89c-0.581-9.901-1.093-19.807-1.615-29.712c-0.053-0.997-0.007-2,0.426-3.121
	c0.283,0.781,0.536,1.574,0.854,2.341c5.462,13.139,9.59,26.826,16.201,39.489c2.4,4.596,4.931,9.122,7.695,13.539
	c-2.963-7.535-6.907-14.645-9.545-22.295c0.155-0.086,0.311-0.171,0.467-0.257c0.52,0.774,1.059,1.536,1.556,2.325
	c4.95,7.87,10.376,15.393,16.627,22.283c1.257,1.386,1.587,2.725,1.405,4.541c-1.203,12.069-0.881,24.123,0.688,36.145
	c0.134,1.027,0.399,2.04,0.631,3.053c0.049,0.215,0.215,0.403,0.579,1.056c0.389-1.928,0.107-3.461,0.161-4.964
	c0.058-1.599,0.072-3.198,0.134-4.797c0.061-1.599,0.164-3.195,0.234-4.794c0.069-1.598,0.111-3.197,0.183-4.796
	c0.068-1.519,0.159-3.036,0.237-4.554c0.083-1.598,0.146-3.196,0.247-4.793s0.228-3.191,0.358-4.786
	c0.128-1.552,0.276-3.103,0.459-5.134c4.009,3.492,7.596,6.616,11.183,9.741c0.122-0.095,0.244-0.188,0.366-0.283
	c-0.258-0.388-0.471-0.816-0.781-1.157c-2.956-3.258-5.895-6.534-8.916-9.73c-1.089-1.151-1.443-2.322-1.225-3.896
	c2.201-15.805,5.607-31.329,10.589-46.499c1.337-4.07,3.889-7.442,6.134-11.556c0.414,0.964,0.69,1.412,0.805,1.898
	c3.467,14.759,8.258,29.095,14.26,42.992c4.201,9.727,9.68,18.762,16.591,26.862c0.386,0.452,0.843,0.843,1.454,1.135
	c-5.915-10.005-11.34-20.211-15.115-31.21c-3.725-10.853-7.416-21.715-9.658-33.114c0.286,0.235,0.604,0.442,0.855,0.71
	c9.424,9.998,17.819,20.752,24.167,33c0.993,1.916,1.943,3.862,2.777,5.852c6.272,14.95,11.022,30.323,13.774,46.356
	c3.131,18.239,4.943,36.617,6.664,55.014c1.781,19.035,3.442,38.082,6.18,57.014c0.984,6.808,1.962,13.616,2.955,20.423
	c0.149,1.022,0.365,2.034,0.76,3.078c0.428-0.875,0.492-1.825,0.462-2.764c-0.288-9.033-0.212-18.097-0.972-27.09
	c-2.115-25.027-4.528-50.029-6.938-75.031c-0.729-7.561-1.831-15.086-2.756-22.628c-0.075-0.617-0.096-1.241-0.182-2.398
	c2.026,2.631,2.402,5.499,4.131,7.742c-0.142-0.641-0.239-1.295-0.431-1.921c-1.983-6.504-4.001-12.997-5.968-19.506
	c-0.717-2.372-1.395-4.761-1.97-7.171c-3.015-12.647-7.049-24.933-12.812-36.619c-0.919-1.862-1.752-3.778-2.464-5.729
	c-6.604-18.105-15.181-35.249-25.219-51.673c-1.057-1.729-1.232-3.068-0.033-4.754c1.938-2.727,3.707-5.575,5.545-8.373
	c0.131-0.2,0.335-0.396,0.361-0.613c0.359-2.906,2.291-5.061,3.609-7.495c3.809-7.032,7.811-13.96,11.534-21.036
	c2.014-3.828,3.412-7.925,3.744-12.32c0.107-1.432,0.806-2.688,1.692-4.04c0.525,0.474,0.908,0.74,1.191,1.088
	c2.021,2.479,3.977,5.016,6.053,7.449c0.956,1.121,0.946,2.343,0.774,3.612c-1.116,8.238-2.144,16.491-3.457,24.698
	c-0.604,3.777-1.794,7.46-2.706,11.189c-0.436,1.78-0.844,3.568-1.356,5.743c0.604-0.342,0.886-0.502,1.462-0.829
	c-0.373,3.827-1.36,7.339-2.091,10.887c-0.742,3.603-1.562,7.19-2.439,10.764c-0.866,3.529-1.974,7.003-2.19,10.724
	c0.327-0.789,0.682-1.568,0.978-2.37c4.893-13.227,8.979-26.688,11.51-40.579c1.247-6.844,2.231-13.734,3.358-20.6
	c0.271-1.657,0.619-3.303,0.974-4.944c0.111-0.52,0.356-1.011,0.67-1.872c9.149,9.498,18.179,18.721,28.771,26.178
	c0.115-0.118,0.23-0.236,0.346-0.354c-0.773-0.742-1.518-1.517-2.322-2.223c-8.988-7.881-17.029-16.665-24.732-25.779
	c-1.081-1.278-1.383-2.479-1.067-4.143c2.905-15.334,5.352-30.733,6.082-46.355c0.015-0.315,0.063-0.629,0.181-0.944
	c1.582,12.078,1.753,24.261,2.373,36.409c0.203-0.006,0.406-0.012,0.609-0.018c0.148-2.68,0.423-5.36,0.425-8.041
	c0.01-12.477,0.374-24.975-0.225-37.425c-0.515-10.685-2.184-21.312-3.296-31.969c-0.506-4.851-0.896-9.712-1.349-14.568
	c-0.297-3.184-0.58-6.37-0.941-9.547c-0.124-1.089,0.028-2.017,0.624-2.956c10.486-16.52,19.207-33.968,27.132-51.827
	c2.498-5.628,4.821-11.334,7.244-16.996c0.565-1.322,1.123-2.659,1.832-3.905c7.753-13.626,15.548-27.228,23.3-40.853
	c2.548-4.478,2.499-4.638,7.765-4.924c3.874-0.21,7.616-0.897,11.267-2.111c2.116-0.704,4.205-1.529,6.229-2.467
	c3.4-1.578,6.766-3.24,10.091-4.973c1.046-0.545,1.916-0.597,2.919-0.046c1.891,1.038,3.847,1.965,5.691,3.079
	c0.787,0.476,1.456,1.231,2.016,1.982c1.658,2.22,3.553,3.978,6.283,4.939c2.004,0.706,3.722,2.187,5.686,3.051
	c1.959,0.862,4.039,1.486,6.117,2.013c0.955,0.243,1.602,0.597,1.986,1.476c0.256,0.585,0.59,1.14,0.812,1.736
	c1.395,3.734,2.794,7.466,4.133,11.22c0.344,0.963,0.431,2.015,0.718,3.002c0.286,0.984,0.636,1.955,1.026,2.903
	c2.047,4.975,5.59,8.862,9.461,12.414c1.616,1.483,3.801,2.331,5.667,3.559c3.642,2.396,7.923,3.251,11.823,5.019
	c5.981,2.711,12.135,4.844,18.572,6.271c6.387,1.416,12.799,2.896,18.98,4.995c5.124,1.741,10.416,2.52,15.635,3.432
	c7.53,1.317,15.227,1.989,22.915,1.103c2.606-0.3,5.175-0.916,7.761-1.389c0.079-0.014,0.158-0.059,0.234-0.053
	c4.335,0.321,6.899-2.56,9.354-5.392c3.081-3.555,6.299-7.037,8.442-11.302c1.863-3.706,3.705-7.423,5.555-11.135
	c0.035-0.071,0.039-0.162,0.084-0.224c2.611-3.617,3.139-8.111,5.072-12.007c0.662-1.335,1.529-2.583,2.409-3.792
	c0.749-1.03,1.723-1.896,2.472-2.927c1.642-2.26,4.167-2.954,6.658-1.571c0.877,0.486,1.73,1.215,2.287,2.041
	c1.741,2.585,3.408,5.228,4.947,7.937c0.527,0.928,0.768,2.109,0.83,3.192c0.16,2.81,1.279,5.251,2.643,7.612
	c0.608,1.054,1.812,1,2.158-0.17c0.449-1.517,0.75-3.128,0.781-4.706c0.086-4.34,0.639-8.61,1.628-12.821
	c0.872-3.716,2.521-7.052,5.109-9.908c0.785-0.866,1.356-1.925,2.139-2.793c0.548-0.607,1.288-1.04,2.375-1.888
	c0.247,1.383,0.513,2.261,0.544,3.147c0.267,7.341,1.789,14.433,4.195,21.348c3.163,9.093,7.193,17.789,12.073,26.088
	c0.418,0.711,0.923,1.373,1.72,1.854c-0.528-1.137-1.06-2.273-1.584-3.411c-4.087-8.871-7.812-17.875-10.608-27.256
	c-2.052-6.883-2.955-13.91-3.229-21.048c-0.076-2,0.231-2.24,3.069-2.437c0.255,0.653,0.61,1.354,0.81,2.097
	c5.213,19.469,10.408,38.942,15.61,58.415c0.186,0.695,0.372,1.392,0.608,2.071c2.031,5.846,2.411,11.848,1.748,18.188
	c-0.695,0.081-1.381,0.136-2.057,0.244c-1.1,0.176-2.203,0.346-3.287,0.595c-1.039,0.238-1.718,0.863-1.649,2.024
	c0.069,1.17,0.321,2.248,1.681,2.589c1.693,0.426,3.388,0.848,5.334,1.335c0.057,0.667,0.18,1.433,0.177,2.199
	c-0.013,3.439-0.013,6.88-0.108,10.317c-0.363,13.141,0.95,26.209,1.723,39.298c0.296,5.024,1.045,10.021,1.52,15.036
	c0.239,2.543,0.452,5.1,0.461,7.651c0.072,21.048-0.599,42.073-2.246,63.06c-1.627,20.741-3.82,41.428-7.011,61.985
	c-3.483,22.446-7.304,44.841-10.977,67.258c-0.569,3.474-1.13,6.948-1.714,10.419c-0.141,0.841-0.354,1.669-0.611,2.871
	c-0.744-0.646-1.25-0.993-1.645-1.439c-6.633-7.509-12.571-15.543-18.131-23.87c-0.8-1.198-0.84-2.261-0.445-3.591
	c4.138-13.966,7.712-28.075,10.479-42.381c1.491-7.709,2.474-15.477,2.543-23.346c0.017-1.804,0.253-3.605,0.419-5.822
	c-0.701,0.485-1.311,0.678-1.474,1.061c-0.618,1.454-1.394,2.933-1.576,4.466c-2.487,20.877-7.577,41.204-12.85,61.495
	c-0.151,0.58-0.44,1.124-0.873,2.202c-2.077-3.074-3.974-5.734-5.241-8.717c-1.25-2.938-2.105-6.045-3.166-9.176
	c-1.297,0.612-0.93,1.566-0.859,2.367c0.324,3.707,1.285,7.247,3.028,10.541c1.271,2.402,2.558,4.807,4.012,7.101
	c1.019,1.608,1.241,3.099,0.714,4.956c-1.969,6.924-3.79,13.89-5.657,20.842c-0.161,0.601-0.257,1.219-0.177,1.92
	c1.561-1.966,2.498-4.258,3.438-6.531c0.947-2.291,1.791-4.625,2.65-6.951c0.875-2.373,1.715-4.76,2.72-7.558
	c0.663,0.863,1.112,1.368,1.476,1.93c5.566,8.623,11.731,16.784,18.788,24.245c1.048,1.107,1.038,2.222,0.866,3.522
	c-0.825,6.265-1.812,12.516-2.396,18.804c-0.934,10.028-1.988,20.061-1.412,30.223c0.145-0.854,0.324-1.705,0.43-2.564
	c1.768-14.528,3.523-29.059,5.294-43.587c0.093-0.762,0.292-1.512,0.541-2.773c6.248,5.936,12.772,10.736,20.149,14.503
	c-0.368-0.419-0.709-0.867-1.107-1.254c-5.516-5.342-11.004-10.711-16.581-15.988c-1.453-1.375-1.749-2.781-1.412-4.7
	c3.282-18.671,6.489-37.355,9.712-56.038c3.809-22.079,6.953-44.254,9.24-66.541c2.232-21.733,3.505-43.533,3.859-65.383
	c0.016-0.948,0.08-1.896,0.488-2.924c0.211,0.537,0.492,1.058,0.621,1.614c0.838,3.583,1.689,7.164,2.432,10.768
	c0.287,1.397,0.41,2.852,0.423,4.282c0.241,27.038,0.351,54.078,0.722,81.115c0.173,12.633,0.822,25.261,1.299,37.889
	c0.075,1.985,0.38,3.962,0.851,5.935c0.528-37.122,1.056-74.243,1.583-111.365c0.145-0.046,0.287-0.093,0.432-0.139
	c1.056,2.696,2.078,5.406,3.178,8.085c1.087,2.646,2.253,5.259,3.792,7.75c-0.224-0.8-0.43-1.605-0.672-2.399
	c-2.049-6.731-4.162-13.444-6.118-20.203c-0.504-1.738-0.717-3.617-0.727-5.433c-0.084-14.64-0.088-29.279-0.115-43.919
	c-0.001-0.783,0-1.564,0-2.347c0.195-0.032,0.389-0.064,0.584-0.096c1.939,7.021,3.878,14.042,5.817,21.062
	c0.119-0.029,0.239-0.059,0.358-0.088c-0.387-1.692-0.764-3.387-1.162-5.076c-1.654-7.006-3.246-14.027-5.006-21.006
	c-0.752-2.984-0.809-5.821,0.414-8.673c0.465-1.085,0.78-2.234,1.301-3.755c0.501,0.772,0.861,1.163,1.037,1.624
	c1.708,4.482,3.506,8.936,5.021,13.484c0.75,2.254,0.962,4.688,1.42,7.04c1.117,5.726,2.229,11.452,3.361,17.175
	c0.105,0.537,0.337,1.05,0.51,1.574c0.041-0.011,0.083-0.021,0.125-0.031c-0.939-6.038-1.879-12.075-2.853-18.337
	c1.362,0.261,1.423,1.184,1.786,1.807c2.899,4.974,5.752,9.975,8.679,14.932c0.761,1.288,1.734,2.449,2.61,3.669
	c0.137-0.076,0.273-0.153,0.41-0.23c-0.334-0.652-0.635-1.323-1.008-1.953c-5.096-8.635-9.346-17.677-12.9-27.042
	c-0.643-1.694-1.022-3.535-1.225-5.34c-1.107-9.882-0.887-19.811-0.845-29.728c0.007-1.656,0.356-3.343,0.769-4.959
	c4.531-17.763,8.191-35.704,11.126-53.796c2.742-16.902,5.195-33.839,6.315-50.943c0.102-1.553,0.079-3.198,1.559-4.521
	c2.801,3.801,5.195,7.788,8.988,10.701c-0.264-0.475-0.514-0.958-0.793-1.424c-2.062-3.42-4.119-6.843-6.199-10.252
	c-0.914-1.497-0.863-2.922-0.178-4.543c4.9-11.586,8.832-23.515,12.085-35.653c2.38-8.883,4.808-17.806,5.579-26.995
	c0.615-7.32,0.691-14.698,0.732-22.052c0.06-10.563-0.448-21.114-1.718-31.609c-2.027-16.763-5.724-33.154-12.603-48.608
	c-3.898-8.755-7.902-17.482-12.06-26.124c-4.496-9.347-10.335-17.889-17.368-25.507c-7.052-7.637-14.373-15.027-21.681-22.423
	c-2.185-2.21-4.726-4.069-7.093-6.1c-0.579-0.498-1.117-1.045-1.924-1.803c5.286,1.153,24.311,12.547,36.338,23.436
	c10.693,9.68,19.961,20.502,27.288,33.047c-0.092-0.442-0.153-0.895-0.284-1.325c-0.141-0.458-0.332-0.901-0.527-1.339
	c-2.703-6.087-5.904-11.883-9.909-17.227c-9.284-12.388-20.823-22.29-33.749-30.662c-8.283-5.365-16.994-9.907-26.212-13.46
	c-10.999-4.24-22.316-6.858-34.178-6.598c-1.851,0.041-3.38-0.453-4.881-1.553c-5.895-4.316-12.258-7.82-18.929-10.804
	c-10.668-4.771-21.889-6.433-33.466-6.173c-3.197,0.071-6.389,0.358-9.585,0.445c-1.092,0.03-2.261-0.053-3.276-0.414
	c-9.298-3.303-18.79-5.73-28.556-7.269c-5.111-0.805-10.076-2.524-15.119-3.784c-9.857-2.463-19.75-4.769-29.828-6.168
	c-0.396-0.055-0.791-0.131-1.189-0.158c-7.891-0.535-15.779-1.119-23.674-1.565c-2.579-0.146-5.078-0.434-7.518-1.326
	c-2.547-0.932-5.213-0.891-7.806-0.303c-3.817,0.866-7.618,1.837-11.37,2.952c-2.288,0.68-4.504,1.641-6.689,2.617
	c-1.383,0.618-2.359,0.32-3.44-0.647c-3.455-3.093-7.011-6.073-10.478-9.153c-4.117-3.659-8.738-6.424-13.924-8.305
	c-2.854-1.035-5.592-2.38-8.438-3.437c-3.968-1.474-7.938-2.987-12.006-4.135c-2.266-0.64-4.729-0.717-7.109-0.77
	c-1.315-0.028-2.872,0.178-3.914,0.881c-1.824,1.229-3.566,0.865-5.48,0.674c-8.438-0.838-16.896-1.492-25.387-1.082
	c-3.833,0.185-7.364,1.464-10.575,3.548c-1.172,0.761-2.366,1.215-3.767,1.372c-3.88,0.434-7.383,1.969-10.783,3.827
	c-1.012,0.554-2.229,1.028-3.355,1.032c-8.828,0.033-16.839,2.793-24.334,7.207c-4.068,2.396-8.236,4.56-12.475,6.643
	c-5.158,2.535-10.057,5.595-15.101,8.37c-1.388,0.764-2.886,1.331-4.342,1.971c-7.484,3.289-15.707,3.59-23.46,5.79
	c-8.766,2.487-17.739,4.213-26.275,7.541c-9.225,3.596-17.259,8.985-24.661,15.472c-4.127,3.617-7.606,7.733-10.674,12.258
	c-0.783,1.155-1.944,2.083-3.03,2.999c-3.238,2.727-6.528,5.394-9.792,8.09c-0.862,0.712-1.642,1.541-2.567,2.154
	c-11.653,7.724-20.905,17.816-28.765,29.251c-9.729,14.155-15.891,29.746-18.073,46.794c-1.396,10.916-1.703,21.855,1.134,32.661
	c0.215,0.82,0.184,1.749,0.07,2.602c-0.398,3.012-0.809,6.027-1.372,9.012c-0.214,1.133-0.658,2.329-1.333,3.251
	c-11.052,15.117-18.608,31.867-23.286,49.938c-0.596,2.3-1.685,3.8-3.691,4.945c-3.054,1.741-6,3.67-8.997,5.511
	c-0.125,0.076-0.305,0.063-0.609,0.12c-0.28-1.524,0.635-2.7,1.13-3.957c0.498-1.262,1.131-2.472,1.729-3.693
	c0.633-1.292,1.293-2.569,1.73-4.055c-0.362,0.415-0.823,0.778-1.072,1.252c-1.889,3.606-3.834,7.189-5.551,10.877
	c-0.702,1.508-1.512,2.726-2.88,3.691c-2.347,1.656-4.749,3.295-6.311,5.806c-0.667,1.072-1.213,2.219-1.897,3.484
	c-0.462-0.048-1.003-0.051-1.517-0.171c-1.246-0.29-2.462-0.76-3.721-0.929c-2.836-0.382-2.678-0.679-2.706-3.175
	c-0.093-8.01,1-15.773,4.429-23.129c2.516-5.396,5.917-10.042,10.662-13.67c0.368-0.281,0.698-0.613,0.919-1.224
	c-0.468,0.116-0.968,0.164-1.399,0.36c-4.176,1.898-7.515,4.836-10.274,8.449c-5.947,7.786-8.548,16.72-8.91,26.393
	c-0.08,2.131-0.012,4.268-0.012,6.662c-1.459-0.421-1.561-1.456-1.947-2.243c-0.377-0.767-0.539-1.795-1.739-1.605
	c-0.873,0.138-1.455,1.26-1.298,2.546c0.105,0.859,0.373,1.699,0.591,2.647c-0.547,0.365-1.132,0.645-1.568,1.076
	c-0.556,0.55-1.126,1.159-1.447,1.854c-0.493,1.069,0.015,1.722,1.155,1.708c0.158-0.002,0.315-0.046,0.475-0.066
	c3.657-0.452,3.701-0.475,5.353,2.681c0.659,1.259,1.28,2.603,1.57,3.98c1.282,6.098,3.347,11.847,7.036,16.935
	c0.135,0.186,0.185,0.433,0.395,0.95c-0.693,0.04-1.272,0.153-1.834,0.093c-11.226-1.194-18.939-7.759-21.605-18.801
	c-3.121-12.92-1.699-25.415,4.217-37.358c0.73-1.476,1.461-2.953,2.191-4.429c-0.146-0.102-0.29-0.204-0.436-0.306
	c-0.771,0.847-1.629,1.63-2.299,2.55c-4.979,6.835-7.803,14.481-8.249,22.931c-0.275,5.2-0.13,10.405,0.959,15.53
	c1.866,8.79,6.079,15.938,14.299,20.251c0.208,0.109,0.387,0.279,0.565,0.435c0.051,0.044,0.055,0.142,0.177,0.5
	c-3.966,0.628-7.931-0.199-12.041,0.633c-0.312-1.588-0.581-2.965-0.851-4.343c-0.137-0.007-0.274-0.014-0.411-0.021
	c0,1.027-0.095,2.064,0.022,3.078c0.169,1.468-0.438,2.258-1.819,2.602c-0.773,0.192-1.514,0.574-2.293,0.67
	c-2.055,0.252-3.875-0.057-5.438-1.739c-3.326-3.582-6.02-7.45-6.969-12.361c-0.698-3.612-0.235-6.849,2.625-9.451
	c0.169-0.154,0.278-0.376,0.396-0.578c0.023-0.04-0.04-0.13-0.113-0.341c-2.903,1.504-4.328,3.9-4.483,7.06
	c-0.168,3.427,0.56,6.704,2.178,9.721c0.902,1.683,2.052,3.235,3.117,4.827c0.435,0.649,0.943,1.249,1.639,2.16
	c-0.896,0.133-1.479,0.284-2.064,0.294c-2.479,0.046-4.962-0.029-7.437,0.084c-8.975,0.409-16.48,3.652-21.562,11.42
	c-0.541,0.826-1.138,1.271-2.174,1.021c-11.958-2.887-23.244-7.151-32.406-15.776c-0.581-0.547-1.123-1.14-1.65-1.74
	c-0.446-0.507-0.846-1.056-1.266-1.585c-0.169,0.124-0.338,0.247-0.507,0.371c0.388,0.841,0.728,1.708,1.171,2.518
	c2.854,5.217,7.205,8.93,12.212,11.932c5.593,3.353,11.597,5.755,17.883,7.465c0.693,0.188,1.382,0.396,2.065,0.617
	c0.139,0.045,0.243,0.194,0.52,0.427c-0.385,0.363-0.709,0.782-1.129,1.046c-4.928,3.097-8.353,7.374-10.257,12.88
	c-0.258,0.744-0.622,1.486-1.088,2.118c-4.885,6.617-7.259,14.18-7.177,22.246c0.091,9.038-0.326,18.042-0.607,27.061
	c-0.018,0.542-0.08,1.082-0.131,1.746c-1.245-0.177-1.59-1.174-2.087-1.898c-3.194-4.648-5.562-9.702-7.297-15.064
	c-3.922-12.119-5.022-24.561-4.17-37.203c0.149-2.215,0.803-4.396,1.238-6.59c0.134-0.676,0.314-1.343,0.049-2.199
	c-0.603,1.089-1.298,2.138-1.788,3.275c-1.37,3.177-2.312,6.494-2.577,9.949C43.729,418.448,44.852,430.236,48.737,441.707z
	 M569.463,78.443c0,0.218-0.001,0.436-0.002,0.653c-0.77,0-1.539,0-2.31,0c-0.005-0.126-0.011-0.252-0.015-0.378
	C567.912,78.626,568.688,78.535,569.463,78.443z M576.547,78.514c-0.014,0.165-0.027,0.33-0.042,0.496
	c-0.716-0.035-1.433-0.069-2.149-0.104c-0.02-0.201-0.04-0.402-0.06-0.603C575.047,78.374,575.797,78.444,576.547,78.514z
	 M592.781,195.437c1.354-1.76,1.926-3.538,1.441-5.792c-0.382-1.773-0.465-3.658-0.37-5.477c0.198-3.815,3.545-6.267,7.062-5.346
	c-0.253,3.284-18.953,47.108-21.364,50.009c0-0.288-0.045-0.522,0.006-0.733c0.992-4.028,1.994-8.054,2.996-12.08
	c1.143-4.586,2.566-9.095,4.955-13.182C589.029,200.229,590.936,197.837,592.781,195.437z M593.926,82.447
	c1.836,0.514,3.678,1.035,5.459,1.708c1.777,0.672,3.775,0.93,5.144,2.533c-6.002-0.009-11.542-1.403-16.272-5.361
	C590.251,81.22,592.074,81.929,593.926,82.447z M620.607,86.161c-1.935,0-3.926-0.081-5.906,0.023
	c-1.793,0.095-3.477-0.164-5.172-0.747c-4.762-1.637-9.553-3.191-14.331-4.781c-0.898-0.299-1.791-0.616-2.687-0.924
	c0.01-0.153,0.019-0.306,0.027-0.459c0.471,0.028,0.953-0.005,1.407,0.095c8.51,1.859,17.018,3.731,25.522,5.613
	c0.381,0.084,0.737,0.284,1.1,0.443c0.055,0.024,0.094,0.118,0.107,0.186S620.662,85.754,620.607,86.161z M608.342,281.637
	c0.909-3.208,1.738-6.123,3.488-8.758c7.956-11.982,15.324-24.309,21.607-37.264c0.271-0.559,0.588-1.095,1.145-2.122
	c0.034,0.787,0.082,0.951,0.042,1.091c-4.044,14.369-8.103,28.733-12.132,43.106c-0.323,1.155-0.939,1.624-2.143,1.828
	c-3.613,0.613-7.196,1.403-10.793,2.109C609.272,281.686,608.969,281.637,608.342,281.637z M613.824,286.018
	c-2.443,0.495-4.566,1.794-7.068,0.577C608.942,284.375,611.008,284.186,613.824,286.018z M617.438,284.515
	c-0.398-0.032-0.78-0.251-1.17-0.384c0.871-0.523,1.715-0.756,2.566-0.794c0.938-0.042,1.889,0.18,2.826,0.141
	c5.696-0.241,11.303,0.317,16.806,1.813c0.794,0.216,1.54,0.61,2.309,0.921c-0.07,0.241-0.141,0.483-0.212,0.724
	c-0.928-0.079-1.895-0.022-2.778-0.264c-1.688-0.461-3.31-1.172-5-1.622c-1.052-0.279-2.215-0.502-3.269-0.346
	C625.468,285.304,621.457,284.835,617.438,284.515z M625.082,289.45c0.964,0.086,1.928,0.173,2.893,0.259
	c0.008,0.25,0.015,0.499,0.021,0.748c-0.996-0.152-1.991-0.305-2.987-0.457C625.033,289.817,625.058,289.633,625.082,289.45z
	 M674.986,111.106c-1.67-0.601-3.129-1.82-4.623-2.848c-0.383-0.263-0.541-0.852-0.825-1.329c2.005-0.633,4.009-0.846,5.029-0.281
	c3.117,1.726,5.909,3.922,8.782,5.997c-0.111,0.185-0.223,0.37-0.334,0.555C680.331,112.525,677.578,112.04,674.986,111.106z
	 M679.047,294.018c0.172-0.021,0.346-0.042,0.518-0.063c0.855,2.155,1.71,4.311,2.777,7.001c-1.68-0.477-3.076-0.349-3.334-1.69
	C678.676,297.539,678.756,295.751,679.047,294.018z M680.189,108.198c-0.492-0.363-0.926-0.805-1.387-1.21
	c0.064-0.206,0.129-0.411,0.192-0.617c2.313,0.129,4.69-0.546,6.915,0.769c6.186,3.654,12.159,7.617,17.67,12.244
	c0.307,0.257,0.488,0.663,0.899,1.239c-0.56-0.099-0.855-0.06-0.978-0.187c-1.918-2.004-4.324-2.518-6.986-2.458
	c-1.861,0.042-3.611-0.402-5.164-1.564C687.652,113.646,683.906,110.941,680.189,108.198z M684.224,250.765
	c0.938,2.066,1.671,4.179,0.964,6.621c-0.498-2.167-0.998-4.333-1.496-6.499C683.869,250.846,684.046,250.806,684.224,250.765z
	 M705.552,118.2c-5.054-3.595-10.091-7.178-15.476-11.008c1.021-0.138,2.53-0.011,4.295,0.3c0.709,0.125,1.461,0.282,2.236,0.462
	c0.118,0.027,0.236,0.055,0.355,0.084c0.525,0.125,1.062,0.265,1.604,0.41c1.133,0.304,2.287,0.647,3.43,1.018
	c4.604,1.493,8.936,3.405,10.215,4.799c0,0,0,0.001,0.001,0.001C709.984,115.581,707.758,116.896,705.552,118.2z M712.486,117.828
	c3.148-1.292,6.16-1.52,8.953,0.895c0.656,0.568,1.564,0.848,2.208,1.426c0.622,0.559,1.053,1.332,1.579,2.027
	c1.331,0.563,2.918,0.957,4.186,1.819c6.163,4.19,11.814,9.015,17.089,14.278c0.497,0.496,0.938,1.049,1.405,1.575
	c-0.117,0.154-0.233,0.307-0.35,0.461c-1.574-0.909-3.145-1.822-4.72-2.726c-7.081-4.065-14.405-7.639-21.979-10.679
	c-1.128-0.453-2.557-0.693-3.707-0.428c-1.559,0.359-2.639-0.059-3.697-1.021c-1.479-1.343-2.968-2.677-4.419-4.05
	c-0.316-0.299-0.494-0.745-0.766-1.171C709.49,118.923,711.018,118.431,712.486,117.828z M693.614,275.443
	c0.233,0.369,0.511,0.736,0.711,1.14c1.347,2.718,2.599,5.485,4.034,8.155c1.604,2.981,2.648,6.071,3.19,9.444
	c1.062,6.61,2.448,13.168,3.7,19.748c-0.087,0.069-0.174,0.138-0.26,0.207c-0.297-0.544-0.627-1.074-0.887-1.636
	c-3.982-8.638-7.367-17.514-10.272-26.562c-0.847-2.638-1.128-5.461-1.61-8.21C692.042,276.707,692.342,275.834,693.614,275.443z
	 M663.627,242.387c-0.013-0.829,0.08-1.658,0.146-2.884c6.342,13.367,9.844,48.215,7.745,58.611
	c-1.208-0.899-1.754-2.122-2.139-3.402c-2.319-7.721-4.63-15.445-6.876-23.188c-0.279-0.966-0.31-2.07-0.188-3.077
	C663.37,259.789,663.753,251.102,663.627,242.387z M665.205,302.387c0.4,0.518,0.802,1.037,1.397,1.807
	c-1.72,0.17-1.744-0.68-1.864-1.445C664.895,302.628,665.05,302.507,665.205,302.387z M687.295,345.792
	c-0.773-0.2-1.482-0.261-2.074-0.556c-2.498-1.246-4.955-2.573-7.441-3.841c-0.561-0.285-1.188-0.649-1.773-0.632
	c-1.846,0.053-3.387-0.783-5.021-1.415c-2.748-1.062-5.498-2.154-8.317-2.995c-5.04-1.503-10.134-2.824-15.202-4.235
	c-0.596-0.166-1.167-0.421-1.766-0.641c2.015-5.798,4.068-11.416,5.912-17.102c1.836-5.657,3.463-11.382,5.173-17.05
	c1.554,0.102,2.462,0.806,3.224,1.792c1.826,2.364,3.369,4.836,3.79,7.897c0.206,1.496,0.608,2.98,1.075,4.419
	c0.433,1.329,0.787,1.415,2.357,0.968c-1.17-2.185-1.602-4.512-1.666-7.111c1.381,0.234,2.566,0.375,2.969,1.429
	c1.103,2.887,2.896,5.618,2.768,8.838c-0.141,3.496-0.56,6.981-0.859,10.471c-0.076,0.875-0.171,1.747-0.244,2.622
	c-0.061,0.738-0.121,1.511,0.892,1.646c1.117,0.149,1.327-0.649,1.431-1.488c0.135-1.108,0.269-2.219,0.346-3.332
	c0.133-1.928,0.538-3.505,1.321-4.876C678.514,328.917,682.84,337.229,687.295,345.792z M620.722,199.957
	c-0.118-4.23-0.341-8.458-0.488-12.688c-0.071-2.016,0.216-2.366,2.116-2.808c1.863-0.433,3.695-0.351,5.294,0.771
	c2.147,1.508,4.228,3.115,6.315,4.706c0.99,0.753,1.258,1.757,0.986,2.983c-0.518,2.338-0.934,4.699-1.449,7.038
	c-3.24,14.705-7.869,28.963-13.832,42.788c-0.277,0.644-0.607,1.265-0.912,1.897c-0.162-0.031-0.326-0.062-0.488-0.092
	c0.054-0.46,0.094-0.922,0.164-1.379c0.4-2.604,0.869-5.199,1.201-7.812C621.123,223.596,621.053,211.779,620.722,199.957z
	 M638.053,195.185c1.541,0.714,1.543,1.775,1.362,2.804c-0.388,2.199-0.774,4.406-1.327,6.567
	c-3.075,12.026-7.492,23.573-12.608,34.864c-0.349,0.769-0.8,1.49-1.203,2.234C630.275,226.602,634.839,211.149,638.053,195.185z
	 M647.127,205.668c1.736,2.755,3.154,5.135,4.711,7.42c0.729,1.071,0.929,2.105,0.793,3.369c-0.922,8.604-0.802,17.232-0.297,25.851
	c0.127,2.182,0.153,4.306-0.405,6.411c-2.354,8.878-4.715,17.755-7.104,26.624c-0.416,1.541-1.024,3.029-1.467,4.563
	c-0.34,1.177-0.93,1.722-2.246,1.542c-1.096-0.15-2.289-0.256-3.332,0.023c-2.017,0.54-3.951,0.277-5.926-0.057
	c-1.652-0.279-3.309-0.58-4.976-0.727c-1.438-0.127-2.608-0.583-3.358-1.722c4.251-12.067,8.724-23.955,12.615-36.031
	C640.044,230.801,643.374,218.481,647.127,205.668z M642.018,283.648c-0.884,1.26-1.594,0.595-2.717-0.01
	C640.436,283.245,641.156,282.888,642.018,283.648z M650.611,299.379c-1.576-1.435-2.35-3.324-3.623-5.323
	C651.588,294.56,652.723,295.609,650.611,299.379z M647.076,288.665c1.342,0.706,2.685,1.411,4.45,2.339
	C647.939,291.145,647.561,290.962,647.076,288.665z M646.944,284.926c0.413-0.127,0.916-0.473,1.226-0.346
	c1.613,0.663,3.22,1.37,4.742,2.217c0.84,0.468,0.8,1.285-0.111,2.338c-1.811-0.962-3.586-1.846-5.285-2.857
	C647.177,286.077,647.127,285.39,646.944,284.926z M654.425,260.746c0.175,0.008,0.351,0.017,0.526,0.025
	c0.568,3.298,2.045,6.435,1.503,9.929c-0.646,4.172-1.302,8.344-1.983,12.511c-0.098,0.599-0.363,1.171-0.61,1.937
	c-2.104-0.926-4.034-1.776-6.028-2.654C650.066,275.123,652.246,267.934,654.425,260.746z M644.784,324.365
	c-0.56,2.125-1.312,4.199-2.01,6.409c-4.468-0.749-8.761-1.468-13.153-2.205c4.793-11.661,9.51-23.137,14.426-35.098
	c0.928,1.141,1.662,1.954,2.293,2.841c0.972,1.366,1.742,2.898,2.841,4.146c1.032,1.172,1.188,2.285,0.812,3.719
	C648.228,310.898,646.553,317.644,644.784,324.365z M639.021,290.399c-3.005,0.857-4.085,0.726-5.722-0.949
	c2.137,0.159,3.971,0.296,5.805,0.432C639.076,290.054,639.049,290.227,639.021,290.399z M651.926,95.226
	c0.441,0.153,0.801,0.541,1.199,0.82c-3.387,0.383-6.641,0.37-9.896,0.387c-5.266,0.027-10.302-0.767-14.989-3.431
	c-2.488-1.414-5.219-2.4-7.838-3.586c-0.633-0.286-1.254-0.595-1.881-0.893c0.05-0.182,0.101-0.364,0.151-0.545
	c2.69,0,5.384-0.077,8.071,0.025c1.986,0.076,4.066,0.058,5.926,0.648C639.133,90.704,645.52,92.997,651.926,95.226z
	 M658.484,95.023c-2.381,0.305-4.205-1.067-6.135-2.121C654.529,93.201,656.68,93.591,658.484,95.023z M660.013,282.851
	c1.536,2.568,2.639,6.556,2.428,8.24c-2.911-0.481-3.798-1.637-3.272-4.294C659.398,285.632,659.663,284.476,660.013,282.851z
	 M668.555,103.764c-0.973-0.065-1.88,0.135-2.446-0.215c-1.396-0.865-2.636-1.984-3.939-3
	C665.107,100.966,667.398,102.22,668.555,103.764z M668.087,98.283c3.338,1.03,6.414,2.658,9.411,4.521
	c-2.371,0.67-4.565,0.822-6.668-0.624c-1.436-0.985-3.08-1.661-4.605-2.52c-0.411-0.231-0.732-0.625-1.094-0.943
	c0.052-0.158,0.104-0.316,0.155-0.474C666.225,98.244,667.23,98.019,668.087,98.283z M722.486,112.424
	c-2.318,0.391-4.334,1.113-6.559-0.101c-2.729-1.489-5.553-2.823-8.419-4.027c-5.463-2.295-11.07-4.326-17.038-4.53
	c-5.057-0.173-9.771-1.056-14.037-3.882c-0.824-0.546-1.77-0.909-2.658-1.356C687.67,96.127,714.773,104.066,722.486,112.424z
	 M734.345,120.634c-0.099,0.237-0.198,0.473-0.297,0.71c-1.847-0.641-3.946,0.215-5.655-1.205c-1.539-1.279-3.508-2.023-4.981-3.844
	c1.977-0.412,3.781-0.847,5.304,0.083C730.712,117.6,732.479,119.198,734.345,120.634z M735.697,124.628
	c2.945,1.035,5.91,2.126,8.12,4.42c4.976,5.165,9.851,10.428,14.748,15.668c0.532,0.569,0.938,1.256,1.401,1.889
	c-0.111,0.135-0.222,0.27-0.333,0.404c-0.505-0.33-1.021-0.645-1.514-0.99c-1.626-1.14-3.259-2.269-4.856-3.447
	c-0.634-0.468-1.238-1.004-1.758-1.595c-4.592-5.223-9.598-10.016-14.931-14.474c-0.584-0.488-1.111-1.043-1.851-1.744
	C735.272,124.68,735.516,124.565,735.697,124.628z M833.412,292.582c-1.258-3.034-0.691-7.342,1.101-9.212
	C834.764,286.61,834.436,289.627,833.412,292.582z M841.226,259.458c-0.153-0.599-0.185-1.646-0.479-1.726
	c-2.355-0.639-1.716-2.597-1.887-4.113c-0.775-6.907-1.467-13.824-2.199-20.736c-0.125-1.174-0.301-2.343-0.505-3.917
	C838.877,234.003,842.302,253.982,841.226,259.458z M828.387,369.624c4.515-17.428,8.441-34.981,11.143-52.79
	c2.062-13.601,4.014-27.218,4.218-41.013c0.005-0.335,0.131-0.669,0.2-1.003c0.16-0.003,0.321-0.006,0.482-0.009
	c0.219,1.305,0.512,2.603,0.643,3.917c0.318,3.183,0.566,6.372,0.836,9.56c0.825,9.763,0.685,19.494-1.137,29.149
	c-3.491,18.516-8.764,36.531-15.316,54.183c-0.188,0.503-0.473,0.969-0.867,1.764C827.439,371.872,828.104,370.718,828.387,369.624z
	 M827.294,347.286c-0.05-2.352,0.345-4.567,1.028-6.817c3.957-13.025,7.034-26.244,8.301-39.831c0.244-2.621-0.076-5.335,0.463-7.88
	c1.467-6.926,2.022-13.908,2.073-20.958c0.004-0.571,0.173-1.141,0.335-2.143c0.518,1.125,0.824,1.79,1.131,2.454
	c0.156-0.034,0.312-0.068,0.469-0.102c-0.186-2.592-0.371-5.185-0.557-7.776c1.41,1.321,1.403,2.905,1.42,4.497
	c0.094,9.444-0.479,18.843-1.605,28.223c-2.596,21.613-6.52,42.978-11.705,64.115c-0.18,0.731-0.445,1.442-0.672,2.162
	c-0.209-0.046-0.418-0.093-0.627-0.14c0-0.872,0.001-1.743-0.001-2.615C827.338,356.078,827.387,351.681,827.294,347.286z
	 M826.891,327.833c0.146-3.023,0.436-6.041,0.512-9.064c0.067-2.689,0.558-5.166,2.146-7.428c0.953-1.359,1.597-2.935,2.402-4.4
	c0.21-0.384,0.504-0.722,0.898-1.275c0.215,4.067-4.057,23.135-5.879,25.767C826.934,329.976,826.839,328.901,826.891,327.833z
	 M827.987,310.47c-0.179-2.604,0.819-4.593,2.626-6.755C830.027,307.312,829.285,309.206,827.987,310.47z M824.975,210.655
	c-5.7-12.797-13.133-24.503-22.154-35.21c-0.547-0.648-1.036-1.345-1.552-2.02c0.155-0.119,0.311-0.238,0.466-0.356
	c4.171,3.083,8.336,6.228,11.513,10.375c3.106,4.055,5.961,8.311,8.773,12.579c2.871,4.358,5.05,9.023,6.331,14.153
	c2.469,9.895,3.189,13.382,2.51,15.134c-0.998-2.586-1.906-5.056-2.906-7.487c-0.703-1.71-1.375-3.395-0.645-5.49
	C825.613,212.758,825.385,211.574,824.975,210.655z M812.42,365.473c2.021-11.16,3.578-22.379,4.439-33.692
	c0.064-0.852,0.312-1.735,0.675-2.51c1.249-2.667,2.569-5.301,3.9-7.928c0.332-0.655,0.81-1.236,1.22-1.851
	c0.164,0.05,0.328,0.101,0.492,0.151c0.095,0.678,0.236,1.354,0.277,2.036c0.443,7.348,0.095,14.685-0.497,22.006
	c-0.165,2.039-0.513,4.178-1.329,6.028c-2.349,5.324-4.971,10.528-7.512,15.766c-0.375,0.771-0.898,1.47-1.354,2.202
	c-0.181-0.044-0.36-0.089-0.541-0.134C812.266,366.855,812.296,366.156,812.42,365.473z M818.166,398.881
	c1.52-11.939,3.038-23.879,4.557-35.818c0.256,0.025,0.51,0.051,0.766,0.077C824.123,375.381,823.104,387.397,818.166,398.881z
	 M808.812,473.953c0.442-5.554,0.67-11.135,1.366-16.656c1.91-15.137,3.789-30.285,6.171-45.351
	c0.812-5.132,3.08-10.035,4.69-15.041c0.016-0.05,0.128-0.069,0.415-0.211c0,0.725,0.054,1.282-0.009,1.827
	c-0.505,4.445-0.863,8.915-1.581,13.326c-3.234,19.868-6.569,39.719-9.883,59.574c-0.148,0.89-0.446,1.756-0.675,2.633
	C809.142,474.02,808.977,473.987,808.812,473.953z M805.271,502.63c0.367-0.914,0.58-1.89,0.863-2.838
	c0.203,0.034,0.406,0.067,0.609,0.101c0.115,5.748,0.23,11.496,0.346,17.244c-0.17,0.031-0.34,0.061-0.51,0.092
	c-0.332-0.953-0.568-1.953-1.012-2.85C803.652,510.496,803.68,506.598,805.271,502.63z M799.512,509.344
	c0.004-0.447,0.101-0.893,0.221-1.894c1.788,3.224,1.695,5.504-0.229,7.634C799.504,512.986,799.494,511.165,799.512,509.344z
	 M801.598,467.213c2.598-4.382,3.93-9.233,4.725-14.208c0.554-3.465,0.755-6.986,1.146-10.479c0.069-0.625,0.257-1.246,0.456-1.846
	c0.928-2.8,1.506-5.583,1.251-8.619c-0.544-6.48,0.647-12.877,1.475-19.277c0.211-1.632,0.929-3.194-0.145-4.824
	c-0.301-0.458-0.139-1.249-0.116-1.885c0.098-2.715,0.219-5.428,0.338-8.142c0.086-1.967-0.475-3.651-2.199-4.759
	c-1.356-0.871-1.582-1.989-1.201-3.507c0.99-3.954,1.824-7.947,2.799-11.905c0.223-0.907,0.675-1.787,1.163-2.593
	c2.812-4.646,5.662-9.269,8.509-13.893c0.268-0.434,0.604-0.826,1.17-1.593c0,1.168,0.079,1.868-0.012,2.544
	c-2.879,21.55-5.73,43.104-8.682,64.646c-2.593,18.935-5.057,37.875-5.314,57.026c-0.018,1.272-0.138,2.565-0.403,3.807
	c-1.021,4.768-2.116,9.52-3.198,14.274c-0.121,0.529-0.343,1.036-0.518,1.554c-0.189,0.031-0.38,0.063-0.57,0.095
	c-0.477-1.577-0.895-3.174-1.443-4.725c-1.191-3.363-1.586-6.809-1.508-10.368c0.094-4.314,0.121-8.639-0.066-12.949
	C799.117,472.478,800.054,469.817,801.598,467.213z M799.094,420.683c-0.001-0.942,0.172-1.914,0.437-2.822
	c1.386-4.753,2.818-9.493,4.259-14.229c0.141-0.465,0.447-0.879,0.908-1.759c0.183,1.218,0.371,1.914,0.379,2.612
	c0.062,5.268,0.103,10.536,0.117,15.804c0.003,0.953-0.113,1.91-0.225,2.86c-0.117,1-0.131,2.056-0.48,2.977
	c-0.83,2.19-1.217,4.362-1.19,6.748c0.037,3.251-0.444,6.512-0.762,9.762c-0.076,0.78-0.204,1.653-0.616,2.282
	c-0.924,1.413-0.91,2.922-0.561,4.387c0.65,2.722-0.839,4.835-1.458,7.197c-0.198-0.053-0.397-0.106-0.597-0.159
	c-0.039-0.384-0.111-0.769-0.113-1.153C799.148,443.688,799.102,432.186,799.094,420.683z M803.808,388.247
	c-0.949-0.837-1.596-1.408-2.372-2.093c1.062-0.975,1.893-1.737,2.723-2.5c0.191,0.136,0.382,0.272,0.573,0.409
	C804.453,385.321,804.176,386.579,803.808,388.247z M799.63,392.965c1.874,1.967,2.505,2.726,2.305,3.709
	c-0.628,3.091-1.399,6.152-2.114,9.225c-0.185-0.039-0.369-0.079-0.553-0.118C798.709,401.56,798.915,394.255,799.63,392.965z
	 M798.565,362.472c-0.046-1.715,0.646-3.054,1.599-4.397c1.521-2.144,2.966-4.345,4.354-6.578c1.348-2.165,2.549-4.42,3.877-6.597
	c0.895-1.464,1.898-2.861,2.854-4.289c0.131,0.028,0.262,0.056,0.393,0.083c0,0.586,0.076,1.184-0.012,1.757
	c-1.729,11.221-3.463,22.441-5.248,33.653c-0.133,0.83-0.521,1.709-1.042,2.369c-1.483,1.882-3.077,3.679-4.675,5.467
	c-0.311,0.349-0.835,0.506-1.401,0.833c-0.114-0.587-0.218-0.89-0.225-1.196C798.879,376.542,798.754,369.506,798.565,362.472z
	 M790.051,473.932c0.414,0.738,0.604,1.494,0.703,2.261c0.826,6.425,1.611,12.855,2.462,19.277c0.462,3.485,1.4,6.947,1.485,10.435
	c0.384,15.831,0.543,31.667,0.769,47.501c0.009,0.586-0.134,1.174-0.205,1.762c-0.659-0.96-0.935-1.937-1.089-2.933
	c-0.542-3.477-1.01-6.965-1.565-10.439c-0.798-4.995-1.101-10.007-0.771-15.062c0.143-2.175,0.41-4.292,1.438-6.26
	c0.181-0.346,0.14-0.808,0.257-1.592c-0.993,0.601-1.648,0.997-2.818,1.704C789.598,504.779,789.266,489.375,790.051,473.932z
	 M794.381,393.595c0.011,10.396,0.09,20.792-0.035,31.186c-0.035,2.837-1.337,5.451-2.301,8.086
	c-0.18-0.024-0.359-0.049-0.539-0.073c-0.045-0.754-0.151-1.511-0.128-2.262c0.147-4.715,0.236-9.435,0.511-14.143
	c0.409-7.021,0.941-14.035,1.463-21.048c0.062-0.84-0.033-1.809,0.804-2.647C794.271,393.144,794.381,393.37,794.381,393.595z
	 M793.191,375.815c0.176-2.217,0.351-4.433,0.525-6.65C794.386,371.447,794.434,373.68,793.191,375.815z M794.491,461.745
	c0.001,0.319-0.013,0.639-0.017,0.958c-0.016,0.939-0.426,1.522-1.423,1.55c-0.962,0.026-1.19-0.631-1.262-1.407
	c-0.044-0.477-0.079-0.956-0.089-1.435c-0.121-6.548-0.171-13.098-0.383-19.643c-0.092-2.81,1.105-5.053,2.408-7.318
	c0.166,0.021,0.332,0.042,0.498,0.062c0.061,0.609,0.172,1.218,0.174,1.827C794.438,444.808,794.463,453.276,794.491,461.745z
	 M786.729,168.871c-0.32-0.396-0.465-0.934-0.838-1.718c2.247-0.239,4.099-0.572,5.541,1.003c3.551,3.876,7.079,7.772,10.588,11.686
	c0.307,0.342,0.403,0.874,0.694,1.539c-2.308-0.222-3.568-1.562-4.945-2.744c-1.503-1.291-2.999-2.613-4.635-3.719
	C790.656,173.241,788.591,171.169,786.729,168.871z M790.245,162.071c-5.047-4.779-10.178-9.47-15.271-14.2
	c-0.48-0.446-0.921-0.935-1.381-1.404c5.175,2.611,19.649,14.692,21.204,17.505C792.999,163.803,791.55,163.306,790.245,162.071z
	 M788.029,379.615c-1.656,0.248-3.039,0.225-4.422-0.675c2.338,0.386,2.607-2.281,4.695-2.976
	C788.199,377.35,788.117,378.453,788.029,379.615z M770.611,383.634c2.521,0,4.75-0.173,6.939,0.046
	c2.45,0.246,4.859,0.873,7.295,1.289c2.713,0.463,2.904,0.668,2.785,3.376c-0.006,0.16-0.02,0.319-0.026,0.479
	c-0.669,14.914-1.336,29.829-2.013,44.743c-0.033,0.751-0.145,1.499-0.221,2.249c-0.156,0.016-0.312,0.031-0.47,0.046
	c-0.229-0.624-0.503-1.234-0.679-1.872c-4.439-16.082-8.872-32.167-13.291-48.254C770.756,385.097,770.727,384.417,770.611,383.634z
	 M760.437,141.167c0.144-0.136,0.287-0.273,0.431-0.409c8.799,6.792,17.168,14.075,25.123,21.96
	c-1.494,0.894-2.704,1.618-4.029,2.411c-0.264-0.119-0.665-0.217-0.965-0.447c-2.527-1.938-5.088-3.838-7.525-5.884
	c-0.956-0.803-1.664-1.92-2.416-2.945c-3.205-4.375-6.387-8.768-9.572-13.157C761.121,142.197,760.785,141.678,760.437,141.167z
	 M746.67,125.654c-1.219-0.534-2.354-1.347-3.388-2.199c-2.097-1.727-4.105-3.562-6.136-5.371c-0.496-0.442-0.934-0.952-1.795-1.838
	c1.977,0,3.38-0.112,4.76,0.019c7.52,0.711,14.795,2.505,21.957,4.881c3.41,1.131,6.237,2.856,8.81,5.441
	c8.347,8.387,16.851,16.613,24.683,25.499c6.19,7.022,12.379,14.035,17.333,22.024c0.49,0.791,0.942,1.605,1.412,2.408
	c-0.187,0.136-0.373,0.272-0.56,0.409c-0.354-0.42-0.704-0.843-1.061-1.261c-7.653-8.968-16.203-17.008-25.312-24.472
	C774.885,140.959,761.506,132.153,746.67,125.654z M708.525,358.442c-3.795-2.155-7.062-5.218-10.774-7.542
	c-2.592-1.623-4.097-3.946-5.593-6.41c-4.74-7.811-8.657-16.038-12.509-24.307c-0.904-1.942-0.819-3.718-0.286-5.694
	c0.763,0.949,1.343,1.961,1.893,2.99c0.452,0.845,0.789,1.762,1.321,2.55c0.538,0.796,1.282,1.334,2.239,0.707
	c-0.695-1.37-1.287-2.569-1.909-3.751c-0.781-1.484-1.383-3.126-2.434-4.391c-1.452-1.75-1.828-3.617-1.65-5.761
	c0.092-1.113,0-2.239,0.027-3.358c0.019-0.766,0.101-1.531,0.169-2.501c2.317,0.662,3.973,1.457,4.956,3.639
	c2.855,6.339,5.796,12.646,8.931,18.852c4.94,9.785,11.298,18.565,19.287,26.118c0.546,0.516,1.146,0.975,1.844,1.565
	c0.045-0.455,0.123-0.642,0.062-0.741c-0.463-0.746-0.922-1.497-1.439-2.206c-5.955-8.167-11.122-16.799-15.392-25.966
	c-0.517-1.109-0.839-2.154-0.579-3.443c0.407-2.016-0.105-3.975-0.945-5.831c-1.202-2.661-2.891-4.982-5.069-6.918
	c-1.521-1.352-2.28-3.025-2.467-5.007c0.007-0.002,0.014-0.003,0.021-0.005c-0.354-0.622-0.761-1.226-1.095-1.857
	c-0.015-0.029-0.032-0.057-0.048-0.086c-0.117-0.228-0.225-0.459-0.314-0.697c-2.176-5.76-4.271-11.55-6.434-17.315
	c-0.693-1.845-0.854-3.723-0.686-5.661c0.188-2.147,0.336-4.298,0.534-6.444c0.085-0.917,0.083-1.912,1.367-2.568
	c0.308,0.835,0.608,1.537,0.826,2.263c3.776,12.573,8.077,24.959,13.304,37.008c3.57,8.232,7.615,16.244,12.766,23.597
	c2.279,3.253,3.992,6.692,5.562,10.283c5.04,11.531,12.007,21.655,21.922,29.582c0.434,0.347,0.903,0.65,1.355,0.973
	c-7.354-8.205-13.224-17.262-17.904-27.176c0.562-0.196,0.869-0.303,1.318-0.459c-1.006-1.447-1.933-2.654-2.719-3.948
	c-0.825-1.36-1.672-2.742-2.238-4.219c-3.732-9.738-6.421-19.768-8.194-30.043c-0.1-0.575-0.077-1.172-0.116-1.841
	c0.354,0.127,0.561,0.136,0.629,0.238c0.399,0.598,0.775,1.212,1.141,1.831c5.463,9.241,11.352,18.18,18.492,26.242
	c0.896,1.011,1.632,2.172,2.378,3.306c4.794,7.281,9.471,14.642,14.382,21.842c4.683,6.865,9.242,13.836,14.822,20.045
	c0.212,0.236,0.426,0.488,0.568,0.768c0.562,1.103,0.129,1.87-1.129,1.898c-2.797,0.063-5.596,0.081-8.395,0.098
	c-0.477,0.003-0.962-0.05-1.428-0.151c-4.971-1.086-9.768-2.811-14.648-4.208c-2.957-0.847-6.049-2.022-8.569-4.094
	c-1.295-1.064-2.583-2.153-3.978-3.078C717.315,364.247,713.131,361.06,708.525,358.442z M694.936,316.149
	c-1.695-2.011-2.791-4.492-2.852-6.23C693.646,311.828,694.764,313.755,694.936,316.149z M597.861,365.745
	c0.789-6.087,2.824-11.956,4.998-17.725c0.546-1.45,1.471-2.426,2.92-2.952c3.447-1.253,6.857-2.626,10.348-3.749
	c1.77-0.569,3.68-0.7,5.609-1.044c0.039,0.789,0.066,1.306,0.093,1.824c1.173-2.091,3.044-2.06,5.02-2.014
	c3.517,0.081,7.037,0.014,10.556,0.029c0.777,0.003,1.555,0.092,2.631,0.161c-0.426,1.67-0.791,3.106-1.157,4.542
	c0.179,0.09,0.358,0.181,0.538,0.271c0.591-1.191,1.224-2.365,1.761-3.581c0.464-1.047,1.15-1.41,2.282-1.174
	c5.082,1.058,10.175,2.072,15.262,3.112c2.104,0.43,4.219,0.822,6.301,1.341c3.631,0.905,7.051,2.562,10.858,2.893
	c1.226,0.106,2.458,0.703,3.584,1.277c5.05,2.579,10.017,5.288,14.681,8.556c2.182,1.529,4.168,3.154,5.947,5.144
	c3.032,3.392,6.111,6.767,9.444,9.855c1.997,1.85,3.2,3.984,3.79,6.482c2.693,11.423,3.105,22.851,0.269,34.36
	c-0.935,3.79-2.36,7.258-4.351,10.562c-1.862,3.093-3.852,6.082-6.533,8.542c-6.747,6.189-14.922,7.586-23.648,6.87
	c-5.254-0.432-10.497-1.035-15.724-1.726c-6.563-0.868-13.21-0.965-19.681-2.734c-7.033-1.923-13.865-4.258-20.43-7.443
	c-2.908-1.412-5.449-3.687-8.877-3.976c-0.355-0.03-0.698-0.372-1.019-0.608c-1.864-1.378-3.745-2.736-5.563-4.173
	c-0.679-0.536-1.354-1.183-1.766-1.926c-1.198-2.162-2.522-4.307-3.332-6.621c-3.102-8.861-5.248-17.965-5.436-27.385
	C597.123,377.073,597.135,371.344,597.861,365.745z M547.863,353.12c0.669-0.65,1.351-1.289,2.006-1.954
	c6.783-6.893,13.579-13.772,20.327-20.7c1.222-1.254,2.177-2.755,4.198-2.856c0.504-0.025,1.034-0.433,1.47-0.772
	c2.771-2.155,5.74-4.113,8.229-6.559c7.406-7.275,13.576-15.508,18.244-24.825c0.344-0.686,0.836-1.615,1.445-1.792
	c2.752-0.803,5.555-1.771,8.374-1.895c1.917-0.084,3.759-0.275,5.638-0.589c1.467-0.246,3.008-0.291,4.489-0.149
	c3.815,0.364,7.623,0.826,11.418,1.365c1.241,0.176,2.444,0.673,3.642,1.094c0.936,0.328,1.107,1.057,0.801,1.945
	c-0.182,0.529-0.348,1.064-0.535,1.591c-2.814,7.91-5.625,15.82-8.45,23.726c-0.727,2.033-1.524,4.04-2.23,6.08
	c-0.357,1.033-0.914,1.525-2.083,1.54c-3.272,0.041-6.548,0.144-9.815,0.341c-2.462,0.148-4.925,0.405-7.366,0.754
	c-2.2,0.314-4.371,0.827-6.558,1.242c-2.742,0.521-5.417,1.16-7.937,2.488c-6.75,3.557-13.305,7.544-20.667,9.812
	c-0.905,0.279-1.853,0.421-2.776,0.64c-1.548,0.367-3.266,0.436-4.607,1.179c-3.481,1.926-7.305,3.262-10.381,5.92
	c-0.958,0.827-2.064,1.537-3.209,2.078c-1.037,0.489-2.217,0.673-3.334,0.992C548.085,353.583,547.975,353.351,547.863,353.12z
	 M576.047,323.796c1.935-2.351,3.75-4.471,5.467-6.669c1.719-2.2,3.338-4.478,5.001-6.722c1.663-2.244,3.276-4.527,5.003-6.721
	c1.68-2.135,2.86-4.662,5.169-7.006C594.909,303.763,582.838,319.481,576.047,323.796z M540.146,353.351
	c15.102-12.749,28.924-26.17,41.477-40.896c0.076,0.315,0.059,0.549-0.057,0.711c-0.84,1.169-1.648,2.366-2.56,3.477
	c-10.366,12.629-21.489,24.543-33.544,35.587C544.018,353.554,542.568,354.062,540.146,353.351z M534.284,352.515
	c6.94-5.305,13.742-10.503,20.544-15.702c-1.162,1.658-2.549,3.06-4.014,4.372c-4.049,3.625-8.134,7.207-12.195,10.816
	C537.369,353.112,536.043,353.468,534.284,352.515z M532.65,350.981c0.559-1.814,1.354-2.978,2.478-4.075
	c2.392-2.333,5.177-4.279,7.075-7.11c1.438-2.145,3.002-4.211,3.77-6.844c-1.881,1.41-3.76,2.819-5.64,4.229
	c-0.173-0.156-0.345-0.312-0.517-0.468c0.374-0.773,0.752-1.544,1.123-2.319c4.98-10.383,10.114-20.688,14.455-31.373
	c4.914-12.095,9.454-24.296,12.527-37.008c1.016-4.204,2.547-8.227,4.547-12.081c11.1-21.391,20.899-43.371,29.752-65.779
	c1.116-2.827,2.145-5.688,3.26-8.515c0.596-1.509,1.271-1.829,2.789-1.341c1.623,0.521,2.822,1.499,3.084,3.311
	c0.331,2.295,0.854,4.583,0.943,6.889c0.309,7.989,0.576,15.982,0.643,23.976c0.045,5.434,0.053,10.902-0.488,16.299
	c-1.55,15.455-4.072,30.74-9.312,45.451c-0.347,0.974-0.712,1.967-1.247,2.843c-2.417,3.959-4.858,7.905-7.388,11.793
	c-0.588,0.904-1.526,1.592-2.353,2.325c-1.064,0.946-2.182,1.832-3.26,2.763c-0.072,0.062-0.01,0.28-0.01,0.483
	c0.63-0.123,1.25-0.245,2.423-0.474c-1.333,1.886-2.334,3.313-3.347,4.732c-2.041,2.859-4.082,5.717-6.133,8.569
	c-1.346,1.872-2.529,3.898-4.088,5.573c-13.191,14.176-28.333,26.092-43.829,37.589C533.633,350.624,533.27,350.71,532.65,350.981z
	 M180.493,331.249c-0.112,5.431-1.903,9.992-2.484,15.118c-1.011-0.312-1.544-0.435-2.044-0.638
	c-2.141-0.87-4.271-1.768-6.409-2.645c-0.807-0.331-1.689-0.527-1.834-1.631c-0.145-1.11,0.403-1.763,1.252-2.365
	c2.925-2.075,5.802-4.218,8.727-6.292C178.434,332.276,179.278,331.914,180.493,331.249z M176.151,355.221
	c-3.643-1.109-5.493-3.502-6.614-6.741c2.486,0.243,4.691,1.092,6.792,2.2c0.317,0.167,0.597,0.81,0.55,1.19
	C176.748,352.932,176.438,353.971,176.151,355.221z M176.658,579.624c2.104,1.594,2.354,2.181,1.742,4.126
	C177.276,582.576,176.188,581.503,176.658,579.624z M186.091,327.664c2.725-1.974,5.637-3.716,8.976-4.373
	c2.158-0.424,4.405-0.605,6.708-0.097c0.377,1.839,0.347,3.562-0.454,5.187c-1.811,3.669-3.978,7.088-6.806,10.096
	c-1.181,1.255-2.154,2.766-2.964,4.297c-1.246,2.357-2.734,4.506-4.618,6.376c-0.616,0.611-1.282,1.28-2.307,0.77
	c-1.009-0.502-1.612-1.21-1.555-2.441c0.115-2.476,0.104-4.958,0.222-7.434c0.164-3.437,0.361-6.882,1.521-10.165
	C185.097,329.081,185.457,328.123,186.091,327.664z M240.581,670.146c-3.102-2.558-5.593-5.144-8.041-8.072
	c2.905-1.809,2.906-1.809,4.98,0.121c0.641,0.596,1.241,1.24,1.926,1.779C241.497,665.588,241.092,667.607,240.581,670.146z
	 M235.256,181.967c0.36-4.734,5.446-15.883,7.805-17.916c-1.178,2.106-1.319,4.381-1.343,6.709c-0.01,0.925-0.234,1.979-0.722,2.745
	C239.163,176.377,237.182,179.154,235.256,181.967z M221.008,238.025c0.831,3.458-0.259,6.701-1.002,9.942
	c-0.704,3.068-3.021,5.016-5.453,6.851C216.165,249.02,218.062,243.366,221.008,238.025z M216.426,242.549
	c0.427-3.758,2.018-8.521,3.2-9.85C220.305,234.52,218.917,238.948,216.426,242.549z M218.696,260.953
	c1.356,1.496,1.738,2.682,1.153,3.873c-0.509,1.035-1.271,1.802-2.581,1.551c0.005,0.018,0.005,0.034,0.01,0.051
	c-0.018-0.002-0.029,0-0.046-0.001c0.067,0.23,0.092,0.431,0.073,0.605c-0.046,0.438-0.357,0.72-0.922,0.92
	c-0.112,0.04-0.235,0.077-0.368,0.111c0.081-0.99,0.078-1.753,1.217-1.636c-0.006-0.019-0.008-0.036-0.014-0.055v0l-0.001-0.001
	h0.001c0.018,0.004,0.032,0.003,0.05,0.006C216.768,264.32,217.408,262.587,218.696,260.953z M215.824,261.698
	c-1.242-1.658-0.824-2.584,1.612-3.626C216.848,259.396,216.365,260.481,215.824,261.698z M218.515,296.183
	c-1.191,2.953-2.602,5.822-4.019,8.677c-0.54,1.088-1.366,2.034-2.062,3.045c-0.17-0.064-0.34-0.129-0.509-0.194
	c-0.46-2.557-0.967-5.152-0.211-7.731c2.154-7.352,4.41-14.673,6.643-22.002c0.155-0.511,0.445-0.982,0.673-1.472
	c0.178,0.034,0.354,0.069,0.532,0.104c0.04,0.77,0.093,1.54,0.117,2.311c0.083,2.633-0.002,5.283,0.273,7.896
	C220.299,290.099,219.718,293.205,218.515,296.183z M211.194,291.66c-0.036-2.203-0.2-4.412-0.082-6.605
	c0.27-4.974,1.322-9.66,5.594-12.926c0.189-0.144,0.325-0.367,0.525-0.486c0.348-0.208,0.726-0.363,1.47-0.725
	c-2.384,7.219-4.626,14.009-6.868,20.8C211.62,291.698,211.407,291.679,211.194,291.66z M211.39,271.835
	c0.691-3.384-0.463-7.185,2.343-10.271c1.426,0.979,1.509,2.058,1.075,3.287c-0.661,1.874-1.304,3.753-1.989,5.618
	c-0.203,0.553-0.522,1.063-0.789,1.593C211.816,271.986,211.604,271.911,211.39,271.835z M223.481,220.952
	c-0.486,3.297-0.235,6.759-2.105,9.748C220.312,227.056,221.86,223.996,223.481,220.952z M226.708,597.163
	c-2.076,0.115-4.143,0.757-6.36-0.038C221.871,596.205,223.47,596.186,226.708,597.163z M227.288,223.401
	c-0.935,3.69-1.869,7.381-2.805,11.071c-0.172-0.044-0.344-0.087-0.516-0.131C223.644,230.327,224.831,226.702,227.288,223.401z
	 M226.405,219.019c0.104-2.123,0.368-4.232,1.502-6.508C228.746,215.234,227.487,217.097,226.405,219.019z M228.338,228.636
	c0.118,0.036,0.236,0.072,0.354,0.108c-0.126,0.479-0.252,0.958-0.378,1.437c-0.147-0.055-0.296-0.109-0.444-0.164
	C228.026,229.556,228.182,229.096,228.338,228.636z M233.317,599.628c-1.969,0.782-3.557,0.275-5.118,0.048
	C229.773,599.279,231.345,598.545,233.317,599.628z M232.548,201.122c0.031,2.093-0.806,4.89-1.942,6.491
	C230.052,204.905,230.545,203.256,232.548,201.122z M232.305,191.323c0.153-1.241,0.805-2.207,2.049-2.851
	c-0.524,1.036-1.049,2.072-1.573,3.107C232.622,191.494,232.463,191.408,232.305,191.323z M234.597,201.238
	c0.107,0.04,0.214,0.08,0.32,0.12c-0.13,0.342-0.259,0.683-0.389,1.024c-0.104-0.039-0.209-0.078-0.313-0.118
	C234.343,201.923,234.47,201.581,234.597,201.238z M230.821,603.784c-2.072-0.059-4.144-0.144-6.215-0.222
	c-8.572-0.323-16.452-2.949-23.85-7.176c-0.053-0.029-0.06-0.139-0.042-0.092c6.811,1.508,13.574,3.047,20.359,4.485
	c2.641,0.56,5.298,1.107,8.042,0.946c1.19-0.07,2.401,0.018,3.588,0.157c0.376,0.043,0.705,0.483,1.056,0.742
	c-0.341,0.363-0.622,0.905-1.038,1.046C232.142,603.869,231.459,603.801,230.821,603.784z M192.229,602.867
	c-2.388-0.601-3.582-2.259-3.738-5.147c4.361,2.214,8.643,4.388,12.924,6.562c-0.05,0.137-0.1,0.274-0.149,0.412
	c-0.524-0.039-1.062-0.018-1.569-0.128C197.201,604.022,194.704,603.488,192.229,602.867z M219.642,610.099
	c-0.942,0.263-1.436,0.462-1.946,0.533c-3.975,0.556-7.956,0.632-11.953,0.217c-3.46-0.359-6.745-1.276-9.814-2.918
	c-0.407-0.217-0.722-0.607-1.08-0.917C203.007,608.191,211.315,607.021,219.642,610.099z M186.731,592.906
	c-1.322-0.986-2.053-2.329-1.948-4.02c4.6,3.274,8.935,6.814,13.7,9.625c4.724,2.785,9.88,4.834,14.646,7.109
	c-6.09-1.332-12.244-3.287-17.847-6.594C192.274,597.252,189.543,595.001,186.731,592.906z M190.454,313.977
	c0.553-4.758,11.235-24.947,14.547-27.245c0.265,0.67,0.718,1.275,0.703,1.869c-0.091,3.671-0.119,7.356-0.492,11.003
	c-0.404,3.967-1.158,7.898-1.764,11.845c-0.331,2.155-0.375,2.221-2.576,2.184c-3.19-0.054-6.386-0.315-9.535,0.477
	C191.069,314.177,190.746,314.026,190.454,313.977z M205.936,311.299c0.319,1.021,0.704,1.691-0.181,2.627
	C205.103,312.998,205.157,312.325,205.936,311.299z M207.15,276.495c-0.165,1.052-0.604,2.19-1.263,3.016
	c-5.152,6.458-9.326,13.518-13.072,20.852c-0.428,0.837-0.902,1.65-1.355,2.474c-0.161-0.084-0.322-0.168-0.483-0.253
	c3.938-11.192,9.159-21.736,16.122-32.063C207.612,272.93,207.426,274.739,207.15,276.495z M208.071,305.775
	c-0.164,0.015-0.328,0.029-0.491,0.044c-0.081-1.385-0.161-2.77-0.242-4.155c0.049-0.002,0.099-0.005,0.147-0.008
	C207.681,303.03,207.876,304.402,208.071,305.775z M209.855,593.562c1.989,0.715,3.843,1.745,6.043,1.856
	c0.937,0.047,1.942,0.479,2.298,1.679c-2.353,0.4-3.4,0.316-5.778-0.526c-7.8-2.764-15.034-6.602-21.709-11.489
	c-0.757-0.554-1.46-1.181-2.188-1.773c0.121-0.168,0.241-0.334,0.361-0.502c1.413,0.699,2.94,1.233,4.219,2.126
	C198.304,588.568,203.885,591.418,209.855,593.562z M249.262,148.522c-0.043,0.343-0.015,0.524-0.089,0.642
	c-0.425,0.676-0.872,1.337-1.315,2.001c-7.68,11.514-14,23.647-17.091,37.271c-0.261,1.148-0.788,2.265-1.35,3.312
	c-3.797,7.085-6.689,14.503-8.466,22.354c-0.298,1.319-0.738,2.614-1.197,3.889c-3.117,8.648-6.11,17.335-8.274,26.283
	c-0.157,0.65-0.427,1.272-0.828,2.448c-0.345-0.976-0.576-1.385-0.627-1.816c-0.306-2.618-0.752-5.236-0.821-7.862
	c-0.634-24.153,5.54-46.328,19.395-66.251c5.317-7.647,11.399-14.614,18.345-20.819
	C247.592,149.395,248.168,148.581,249.262,148.522z M244.703,670.243c1.652,1.06,3.735,3.601,4.298,5.245
	C245.644,675.374,243.964,673.324,244.703,670.243z M250.475,679.489c1.739-0.832,2.971-0.431,4.245,0.895
	c0.802,0.833,1.122,1.647,1.041,2.765c-0.143,1.99-0.189,3.988-0.286,5.982c-0.046,0.934-0.114,1.867-0.199,3.241
	c-4.635-2.902-7.391-6.647-9.173-11.505C247.775,680.356,249.207,680.094,250.475,679.489z M253.3,465.097
	c1.615-2.736,3.592-5.258,5.408-7.875c0.492-0.709,1.097-1.395,1.37-2.188c0.427-1.236,1.166-1.78,2.442-1.888
	c2.308-0.195,4.621-0.41,6.909-0.768c7.748-1.213,15.341-3.114,22.873-5.276c0.902-0.259,1.9-0.583,2.777-0.432
	c1.013,0.175,1.635-0.217,2.411-0.657c3.565-2.023,7.487-3.062,11.44-3.995c0.049-0.011,0.123,0.087,0.185,0.134
	c-1.432,3.376-44.504,60.963-47.381,63.2c-1.837-3.065-2.923-6.206-3.89-9.424c-0.592-1.969-1.393-3.904-2.336-5.732
	c-1.667-3.229-2.998-6.573-3.229-10.193c-0.223-3.5-0.171-7.029-0.033-10.537C252.306,467.986,252.568,466.337,253.3,465.097z
	 M260.797,695.958c-1.131-1.335-3.359-1.113-3.391-3.071c-0.023-1.521-0.559-3.195,0.734-4.521
	c-0.011-0.034-0.026-0.062-0.037-0.097c0.014,0.01,0.028,0.02,0.043,0.029c-0.982-1.56-0.642-3.115,0.042-5.064
	c3.503,2.415,7.258,3.507,11.57,3.296c0.094,1.636,0.174,3.017,0.252,4.374c-1.817,0.7-3.462,0.957-4.929,0.313
	c-1.388-0.609-2.557-1.716-3.886-2.648c-0.068,0.606-0.117,1.035-0.193,1.704c-0.585-0.403-1.114-0.771-1.622-1.121
	c-0.421-0.291-0.827-0.571-1.232-0.851c0.007,0.011,0.011,0.021,0.018,0.031l0.002,0.002c-0.011,0.011-0.016,0.022-0.026,0.032
	c0.294,0.905,0.741,1.633,1.308,2.227c0.942,0.99,2.212,1.609,3.638,2.058c2.399,0.753,4.79,1.529,7.225,2.31
	c-1.898,2.954-7.972,6.937-11.095,7.283c-1.249-1.956-1.66-4.116-1.562-6.577C258.823,695.774,259.703,695.856,260.797,695.958z
	 M265.637,509.909c1.296-1.858,2.459-3.695,4.354-5.441c0.602,1.235,1.186,2.098,1.453,3.05c0.527,1.88-0.236,3.649-1.669,4.292
	C268.376,512.437,267.21,511.946,265.637,509.909z M266.783,684.33c-0.211,0.086-0.422,0.255-0.617,0.238
	c-2.802-0.24-5.157-1.541-7.306-3.235c-0.942-0.743-0.74-1.626-0.019-2.416C262.855,679.587,264.949,681.02,266.783,684.33z
	 M275.354,687.314c-0.192,0.004-0.384,0.008-0.576,0.012c-0.172-0.588-0.539-1.211-0.439-1.748c0.056-0.295,0.896-0.443,1.383-0.659
	c0.12,0.135,0.239,0.27,0.359,0.404C275.838,685.987,275.596,686.65,275.354,687.314z M278.421,696.582
	c-0.791-0.249-1.4-0.439-2.372-0.745C277.646,694.556,277.688,694.574,278.421,696.582z M273.644,683.939
	c-0.048-0.223-0.098-0.444-0.146-0.666c0.708-0.568,1.468-0.775,2.416,0.094C275.156,683.557,274.4,683.748,273.644,683.939z
	 M279.74,690.262c1.385-1.816,1.765-1.702,3.061,0.915C281.625,690.826,280.742,690.561,279.74,690.262z M283.259,693.232
	c-1.568,2.339-2.051,2.453-3.136,0.952C281.213,693.853,282.235,693.542,283.259,693.232z M296.05,473.371l0.003,0.002
	c-0.042,0.022-0.078,0.051-0.12,0.074c-0.323,0.685-0.648,1.289-0.985,1.819c-0.004,0.007-0.009,0.013-0.013,0.02
	c-0.164,0.257-0.33,0.498-0.501,0.721c-0.097,0.126-0.198,0.234-0.297,0.35c-0.082,0.095-0.161,0.199-0.244,0.287
	c-0.153,0.161-0.312,0.303-0.474,0.442c-0.035,0.03-0.067,0.066-0.104,0.096c-0.597,0.49-1.259,0.839-2.024,1.072
	c1.635-1.861,2.717-3.726,4.645-4.812c0,0,0,0,0,0c0.021-0.043,0.041-0.08,0.062-0.124c0.041-0.028,0.082-0.057,0.123-0.084
	c0.217-0.429,0.435-0.856,0.651-1.285c0.184,0.155,0.368,0.309,0.553,0.463c-0.4,0.273-0.801,0.547-1.201,0.82
	c-0.023,0.046-0.047,0.092-0.07,0.139C296.053,473.372,296.051,473.37,296.05,473.371C296.051,473.37,296.051,473.37,296.05,473.371
	C296.051,473.37,296.051,473.371,296.05,473.371z M316.021,433.959c-0.706-0.498-1.385-1.04-2.122-1.484
	c-2.182-1.313-4.288-2.816-6.611-3.806c-1.953-0.832-3.527-2.013-4.943-3.48c-0.305-0.316-0.519-1.152-0.323-1.421
	c0.309-0.425,0.976-0.68,1.535-0.795c0.306-0.063,0.728,0.269,1.053,0.488C308.92,426.369,312.837,429.725,316.021,433.959z
	 M306.621,422.747c0.072-0.153,0.145-0.306,0.216-0.459c0.595-0.098,1.186-0.22,1.782-0.29c2.672-0.311,5.213,0.665,7.797,0.844
	c3.516,0.244,6.5,1.544,9.41,3.226c1.772,1.025,3.418,2.271,5.347,3.57c-2.764,3.265-5.179,6.364-8.103,9.448
	C318.164,432.738,312.906,427.228,306.621,422.747z M304.427,404.022c-8.15-0.546-16.054-1.076-23.958-1.605
	C285.071,401.166,300.085,402.316,304.427,404.022z M293.574,162.866c-1.336,2.064-2.774,4.065-4.233,6.045
	c-0.299,0.406-0.883,0.602-1.336,0.895c2.015-4.52,4.52-8.485,8.226-11.622C295.352,159.749,294.547,161.362,293.574,162.866z
	 M288.785,412.961c-5.425-1.888-10.887-3.672-16.331-5.503c-0.559-0.188-1.093-0.446-1.876-0.77c1.781-1.496,3.399-2.55,5.539-2.432
	c8.605,0.476,17.21,0.951,25.814,1.44c0.37,0.021,0.734,0.176,1.164,0.284c-1.117,2.526-3.852,2.439-5.663,3.804
	c0.227,0.52,0.41,0.94,0.751,1.722c-1.207,0.331-2.182,0.619-3.168,0.861c-0.926,0.228-1.923,0.271-2.783,0.64
	C291.027,413.524,289.986,413.379,288.785,412.961z M299.725,433.42c0.521,0.064,1.104,0.336,1.48,0.698
	c0.682,0.654,1.117,1.602,1.861,2.143c0.771,0.559,1.788,0.778,2.838,1.203c-0.934,0.619-3.264,1.522-6.375,2.55
	c-0.89,0.293-1.843,0.597-2.845,0.907c-0.501,0.155-1.015,0.312-1.539,0.47c-6.534,1.967-14.712,4.111-21.055,5.523
	c-0.015,0.003-0.028,0.006-0.042,0.009c-0.604,0.134-1.189,0.261-1.756,0.381c-0.129,0.027-0.255,0.053-0.382,0.08
	c-0.383,0.08-0.755,0.156-1.117,0.229c-0.409,0.082-0.808,0.16-1.188,0.232c-0.025,0.005-0.053,0.01-0.078,0.015
	c-2.163,0.406-3.839,0.641-4.768,0.635c-0.177-0.001-0.327-0.01-0.448-0.029c0.014-0.154-0.03-0.351,0.05-0.454
	c0.291-0.377,0.609-0.736,0.942-1.078c2.797-2.866,6.316-4.594,9.886-6.23c2.451-1.124,5.154-1.786,7.006-3.98
	c0.242-0.287,0.676-0.417,1.028-0.604C288.42,433.362,293.967,432.708,299.725,433.42z M313.064,448.602
	c-0.809,1.546-1.473,3.239-2.581,4.544c-2.727,3.21-5.664,6.242-8.538,9.325c-0.328,0.352-0.795,0.575-1.197,0.858
	c-0.1-0.104-0.2-0.209-0.301-0.313c3.992-5.495,7.984-10.991,12.072-16.617C313.534,447.249,313.399,447.961,313.064,448.602z
	 M256.253,426.946c3.288-0.923,6.612-1.665,10.038-1.636c0.094,0.193,0.188,0.387,0.281,0.58c-0.644,0.794-1.219,1.658-1.947,2.363
	c-0.792,0.767-1.725,1.944-2.6,1.947c-1.495,0.006-1.868,0.934-2.537,1.778c-0.793,0.999-1.596,1.999-2.483,2.91
	c-0.333,0.341-0.918,0.436-1.528,0.705c-1.125-2.69-0.936-5.186-0.175-7.672C255.422,427.527,255.866,427.054,256.253,426.946z
	 M261.985,414.741c1.296-1.698,2.621-3.377,4.012-4.998c1.159-1.35,2.635-1.634,4.339-1.075c5.303,1.74,10.621,3.431,15.925,5.166
	c0.313,0.103,0.556,0.42,1.03,0.795c-0.755,0.31-1.235,0.604-1.753,0.703c-2.407,0.461-4.423,1.697-6.484,2.946
	c-2.305,1.396-4.787,2.499-7.19,3.732c-0.424,0.218-0.822,0.498-1.264,0.666c-0.948,0.361-1.894,0.82-2.882,0.969
	c-3.228,0.487-6.473,0.857-9.713,1.258c-0.374,0.046-0.758,0.006-1.345,0.006c0.887-2.719,1.815-5.211,3.489-7.384
	C260.826,416.648,261.312,415.624,261.985,414.741z M266.94,172.764c-0.381,0.682-0.761,1.364-1.142,2.046
	c-0.15-0.081-0.301-0.163-0.452-0.244c0.369-0.688,0.739-1.376,1.108-2.064C266.617,172.589,266.778,172.677,266.94,172.764z
	 M273.543,166.843c-0.237,3.815-0.443,7.378-0.702,10.937c-0.032,0.447-0.244,0.967-0.546,1.293
	c-2.272,2.459-4.536,4.942-8.212,6.59c-0.082-1.056-0.4-1.897-0.154-2.512c1.48-3.699,3.296-7.235,5.471-10.59
	c0.77,0.178,1.358,0.313,2.167,0.5c-0.101-1.265-0.448-2.402-0.202-3.392C271.631,168.602,272.324,167.562,273.543,166.843z
	 M277.08,129.882c-0.394,0.459-0.787,0.919-1.181,1.379c-0.139-0.115-0.277-0.231-0.416-0.346c0.374-0.49,0.748-0.979,1.122-1.47
	C276.764,129.59,276.922,129.736,277.08,129.882z M284.562,158.121c-2.324,4.483-4.572,8.819-6.82,13.155
	c-0.153-0.06-0.307-0.119-0.46-0.178c0.71-4.032,1.834-7.955,3.959-11.513C281.84,158.581,282.917,157.715,284.562,158.121z
	 M292.447,153.084c1.064-0.719,2.404-0.707,4.034,0.213c-0.49,0.904-0.812,1.696-1.302,2.366c-3.94,5.403-7.909,10.785-11.88,16.166
	c-0.375,0.508-0.76,1.048-1.255,1.422c-0.752,0.569-1.725,0.225-1.802-0.702c-0.069-0.83,0.027-1.802,0.41-2.521
	c2.353-4.426,4.645-8.899,7.31-13.136C288.963,155.304,290.822,154.184,292.447,153.084z M302.737,114
	c-5.013,0.839-8.984,3.808-13.255,6.119C292.915,115.904,296.585,112.202,302.737,114z M331.713,102.043
	c-2.207,2.683-4.612,4.926-6.158,7.655c-1.983,3.5-4.783,3.776-8.118,3.271c-0.867-0.132-1.713-0.396-2.578-0.54
	c-3.306-0.553-6.614-1.08-9.921-1.622c-0.598-0.098-1.191-0.223-1.927-0.362C306.88,106.865,326.292,101.164,331.713,102.043z
	 M339.849,94.452c-1.66,2.338-3.499,2.686-5.712,1.222C336.001,95.275,337.663,94.919,339.849,94.452z M343.918,101.619
	c3.305,0.479,6.584,1.131,9.864,1.763c0.393,0.075,0.737,0.406,1.104,0.619c-0.002,0.177-0.003,0.355-0.004,0.533
	c-1.267,0.334-2.516,0.796-3.804,0.979c-3.216,0.454-6.126,1.649-8.908,3.27c-0.882,0.514-1.848,0.964-2.833,1.197
	c-2.288,0.541-4.611,0.931-7.199,1.437c0.281-0.396,0.494-0.825,0.821-1.133c2.838-2.678,5.658-5.378,8.584-7.958
	C342.115,101.821,343.164,101.51,343.918,101.619z M362.311,92.611c-1.354,2.162-2.51,4.127-3.814,5.987
	c-0.267,0.379-1.128,0.577-1.659,0.495c-2.745-0.421-5.473-0.954-8.201-1.474c-0.17-0.033-0.297-0.296-0.438-0.447
	C351.989,92.825,355.899,91.501,362.311,92.611z M370.563,82.331c-1.515,2.908-2.478,3.426-4.357,2.41
	C367.474,83.662,368.791,82.791,370.563,82.331z M372.687,93.141c-0.721,1.421-1.567,2.521-2.857,3.25
	c-1.929,1.091-3.839,2.213-5.781,3.28c-0.557,0.306-1.194,0.464-1.994,0.766c0-0.631-0.089-0.911,0.013-1.067
	c1.34-2.064,2.685-4.126,4.086-6.149c0.246-0.354,0.748-0.733,1.145-0.747C369.08,92.409,370.9,92.249,372.687,93.141z
	 M401.127,69.732c-2.87,3.329-5.466,6.292-8.876,8.474c-3.896,2.493-7.708,5.12-11.573,7.664c-0.515,0.339-1.159,0.818-1.68,0.75
	c-1.867-0.248-3.707-0.703-5.617-1.092c0.145-0.453,0.155-0.725,0.294-0.883c0.475-0.538,0.997-1.033,1.497-1.548
	c6.715-6.938,15.165-10.729,24.254-13.351C399.815,69.635,400.265,69.732,401.127,69.732z M373.776,88.846
	c0.681,0.135,1.361,0.27,2.042,0.404c-0.036,0.18-0.072,0.359-0.108,0.539c-0.684-0.132-1.367-0.265-2.051-0.397
	C373.698,89.209,373.737,89.028,373.776,88.846z M387.517,497.256c0,0.519,0,1.039,0,1.558c-0.066,0.001-0.132,0.003-0.197,0.004
	c0-0.52,0-1.04,0-1.56C387.385,497.257,387.45,497.257,387.517,497.256z M397.724,509.771c0.188,4.688-1.485,8.741-2.419,12.93
	C395.431,516.653,396.432,511.207,397.724,509.771z M406.377,67.63c-0.696,1.32-0.696,1.32-2.307,0.696
	C404.992,68.048,405.685,67.839,406.377,67.63z M422.393,507.912c2.324,4.612,4.647,9.224,6.971,13.836
	c-0.159,0.074-0.318,0.148-0.478,0.222c-1.177-2.351-2.352-4.703-3.531-7.053c-1.137-2.265-2.277-4.528-3.417-6.792
	C422.09,508.054,422.241,507.983,422.393,507.912z M426.459,67.93c-0.523,0.254-1.047,0.507-1.57,0.761
	c-0.081-0.214-0.163-0.429-0.244-0.643c0.522-0.227,1.045-0.454,1.567-0.68C426.294,67.555,426.377,67.743,426.459,67.93z
	 M429.183,454.855c-0.121,0.042-0.242,0.084-0.363,0.126c-0.151-0.431-0.303-0.861-0.454-1.292c0.115-0.04,0.23-0.081,0.346-0.121
	C428.868,453.998,429.025,454.427,429.183,454.855z M433.428,515.432c0.371,0.485,0.562,1.152,0.7,1.766
	c1.513,6.777,3.006,13.559,4.479,20.345c0.101,0.464,0.014,0.968,0.014,2.023c-0.641-1.059-1.013-1.569-1.272-2.13
	c-0.402-0.868-0.792-1.75-1.075-2.661c-2.779-8.931-6.044-17.675-9.967-26.171c-0.39-0.845-0.746-1.706-1.118-2.56
	c0.144-0.075,0.287-0.15,0.431-0.225c0.191,0.126,0.434,0.213,0.568,0.384C428.615,509.268,431.049,512.329,433.428,515.432z
	 M436.176,480.806c0.358-0.48,0.827-0.879,1.646-1.734c0.727,2.271,1.234,4.023,1.853,5.735c0.465,1.286,0.215,2.261-0.768,3.22
	c-1.881,1.836-3.662,3.774-5.51,5.646c-0.421,0.428-0.94,0.758-1.717,1.372c-0.86-3.082-1.555-5.793,0.28-8.438
	C433.323,484.645,434.749,482.724,436.176,480.806z M435.28,474.822c-1.116,1.844-2.341,3.624-3.567,5.398
	c-0.199,0.289-0.622,0.423-0.907,0.606c0-7.001,0-13.82,0-20.639c0.275-0.031,0.551-0.063,0.825-0.095
	c1.378,4.24,2.793,8.469,4.087,12.734C435.893,473.404,435.619,474.261,435.28,474.822z M432.395,442.282
	c2.978,8.464,5.616,16.73,7.38,25.251c-0.241,0.076-0.483,0.152-0.725,0.228c-0.247-0.557-0.528-1.102-0.737-1.673
	c-1.48-4.049-2.929-8.11-4.424-12.155c-0.886-2.397-1.854-4.764-2.753-7.157C430.536,445.18,430.619,443.719,432.395,442.282z
	 M471.861,409.774c-0.672,3.993-24.077,46.376-28.534,51.685c-0.206-0.218-0.503-0.39-0.576-0.63
	c-2.22-7.239-4.417-14.486-6.645-21.821c3.532-2.249,6.852-4.625,10.414-6.553c3.248-1.758,5.46-4.633,8.286-6.821
	c0.182-0.141,0.32-0.366,0.418-0.58c1.384-3.036,4.136-4.817,6.452-6.982c2.423-2.265,5.64-3.625,7.38-6.707
	C469.563,410.466,470.616,409.823,471.861,409.774z M504.896,386.472c-0.371,0.487-0.66,1.192-1.818,0.363
	c0.652-0.363,1.107-0.616,1.562-0.869C504.727,386.134,504.812,386.303,504.896,386.472z M506.282,76.827
	c3.597,2.103,6.667,4.777,9.407,7.812c-0.143,0.154-0.283,0.308-0.425,0.461C512.271,82.342,509.276,79.584,506.282,76.827z
	 M499.182,399.526c0.699-2.19,1.424-4.372,2.089-6.572c0.562-1.858,1.937-2.706,3.957-2.997c-1.831,3.286-3.661,6.573-5.492,9.859
	C499.551,399.719,499.366,399.623,499.182,399.526z M497.807,90.21c1.562,1.155,2.976,2.202,4.39,3.248
	C498.611,93.283,497.858,92.672,497.807,90.21z M493.739,394.627c-3.277,2.123-6.593,4.187-9.907,6.253
	c-0.165,0.104-0.428,0.05-0.635,0.069c-0.057-0.208-0.174-0.391-0.125-0.496c1.782-3.831,3.562-7.662,5.4-11.466
	c0.215-0.446,0.705-0.958,1.152-1.059c2.307-0.52,4.642-0.915,7.561-1.466c-0.883,2.677-1.506,4.725-2.252,6.728
	C494.727,393.746,494.244,394.3,493.739,394.627z M478.695,435.733c-4.676,7.16-9.476,14.238-14.199,21.366
	c-4.515,6.813-9.674,13.121-15.021,19.283c-0.615,0.71-1.288,1.371-1.934,2.055c-0.214-0.05-0.428-0.1-0.642-0.15
	c-0.438-2.167-0.645-4.416-1.375-6.48c-0.908-2.568-0.149-4.467,1.216-6.642c6.156-9.816,12.38-19.605,18.097-29.677
	c5.363-9.447,10.138-19.229,15.127-28.886c0.687-1.328,1.526-2.358,2.86-3.09c2.803-1.537,5.536-3.199,8.31-4.792
	c0.584-0.336,1.215-0.592,2.328-1.126c-0.408,1.4-0.611,2.313-0.935,3.181c-3.657,9.812-7.3,19.628-11.032,29.411
	C480.761,432.113,479.822,434.008,478.695,435.733z M450.228,497.369c-0.718-4.334-1.396-8.676-2.152-13.003
	c-0.207-1.187,0.266-1.958,1.034-2.75c6.963-7.174,13.695-14.547,19.406-22.791c0.226-0.326,0.594-0.552,0.896-0.825
	c-5.56,13.662-11.758,26.928-18.6,40.213C450.396,497.622,450.25,497.506,450.228,497.369z M442.268,532.833
	c-0.153-0.771-0.164-1.577-0.182-2.368c-0.029-1.267,0.146-2.558-0.041-3.798c-0.429-2.843-0.919-5.686-1.574-8.484
	c-1.425-6.084-3.14-12.074-6.526-17.435c-0.423-0.669-0.663-1.451-1.014-2.168c-0.53-1.083-0.359-1.927,0.611-2.729
	c1.725-1.424,3.36-2.956,5.048-4.425c0.64-0.557,1.319-1.068,2.236-1.806c0.337,1.089,0.609,1.823,0.79,2.579
	c0.985,4.12,1.921,8.252,2.929,12.366c0.672,2.739,1.296,5.452-0.131,8.148c-0.023,0.045,0.053,0.142,0.113,0.291
	c0.464-0.134,0.937-0.271,1.533-0.444c1.33,7.229,2.812,14.27,2.858,21.503c0.084,13.029,0.196,26.058,0.188,39.087
	c-0.003,6.153-0.778,12.258-1.548,18.352c-0.213-0.017-0.427-0.032-0.64-0.049c0-1.416-0.021-2.833,0.003-4.249
	C447.233,568.919,445.825,550.785,442.268,532.833z M435.855,602.829c1.761-6.22,3.392-12.478,5.073-18.72
	c0.136-0.503,0.31-0.996,0.466-1.494c1.478,10.218,1.986,20.392,0.605,31.152c-0.825-0.905-1.335-1.371-1.733-1.918
	c-1.315-1.809-2.547-3.68-3.897-5.461C435.509,605.253,435.47,604.19,435.855,602.829z M431.904,599.366
	c-0.829-1.289-1.396-2.12-1.913-2.979c-10.04-16.651-16.704-34.661-21.04-53.526c-2.415-10.508-4.131-21.174-6.306-31.74
	c-0.952-4.623-1.128-9.156,0.113-13.734c0.354-1.306,0.404-2.695,0.771-3.996c0.145-0.512,0.914-1.326,1.158-1.248
	c1.166,0.372,2.445,0.794,3.311,1.6c0.95,0.886,1.475,2.223,2.225,3.335c0.211,0.313,0.564,0.529,1.037,0.957
	c0.323-1.516-1.161-3.199,1.135-4.051c0.527,0.91,1.075,1.764,1.534,2.664c4.508,8.826,8.972,17.674,13.506,26.486
	c6.392,12.423,6.456,12.404,9.053,26.063c1.224,6.438,2.286,12.89,1.643,19.519c-0.955,9.822-3.092,19.403-5.503,28.938
	C432.531,598.031,432.326,598.378,431.904,599.366z M403.468,670.285c6.162,10.534,12.03,20.803,16.835,31.639
	c-0.26,0.183-0.52,0.365-0.779,0.548c-0.191-0.357-0.315-0.777-0.583-1.062c-4.751-5.076-9.428-10.227-14.325-15.157
	c-2.127-2.142-3.237-4.506-3.991-7.396C399.706,675.335,401.479,673.131,403.468,670.285z M397.476,661.163
	c0.189-0.093,0.379-0.186,0.568-0.278c0.509,0.857,1.052,1.696,1.519,2.576c0.875,1.646,0.79,1.862-1.253,3.338
	C398.018,664.827,397.746,662.995,397.476,661.163z M394.606,637.283c-0.646-10.771-1.256-21.546-1.82-32.322
	c-0.069-1.336-0.148-2.869,0.41-3.996c0.972-1.958,0.945-3.848,0.539-5.826c-1.392-6.77-1.899-13.634-1.767-20.512
	c0.191-9.907,0.682-19.809,1.064-29.712c0.224-5.775,1.01-11.449,2.881-16.958c0.77-2.264,1.218-4.638,1.828-6.957
	c0.198-0.753,0.446-1.493,0.672-2.239c0.182,0.009,0.362,0.018,0.544,0.026c0.165,0.593,0.364,1.179,0.49,1.78
	c0.735,3.522,1.481,7.042,2.173,10.573c2.168,11.074,4.721,22.052,8.396,32.733c4.76,13.828,11.008,26.932,19.368,38.971
	c0.906,1.305,1.2,2.479,0.617,4.003c-0.8,2.088-1.295,4.293-2.109,6.374c-2.183,5.579-4.043,11.34-6.801,16.626
	c-5.249,10.062-11.031,19.844-16.609,29.732c-0.284,0.503-0.736,0.91-1.254,1.537c-0.573-0.836-1.008-1.395-1.362-2.001
	c-1.733-2.969-3.533-5.904-5.123-8.95c-0.682-1.306-1.098-2.821-1.307-4.289C395.032,643.029,394.779,640.154,394.606,637.283z
	 M316.953,717.561c-0.014-0.79,0.262-1.445,1.115-1.615c1.272-0.255,1.605-1.184,1.719-2.277c0.065-0.634,0.089-1.272,0.101-1.91
	c0.061-3.19,0.086-6.382,0.175-9.572c0.052-1.833,0.186-3.665,0.313-5.495c0.036-0.506,0.183-1.005,0.278-1.508
	c0.167-0.021,0.333-0.044,0.5-0.066c0.22,0.799,0.453,1.593,0.658,2.395c1.407,5.498,2.586,11.067,4.259,16.483
	c3.586,11.609,7.446,23.134,11.138,34.712c0.479,1.501,0.855,3.104,0.891,4.668c0.24,10.792,0.381,21.585,0.541,32.379
	c0.012,0.753-0.075,1.508-0.116,2.262c-0.147,0.03-0.295,0.061-0.442,0.091c-0.367-0.662-0.793-1.3-1.091-1.992
	c-2.466-5.727-5.002-11.426-7.339-17.205c-4.99-12.338-8.211-25.224-11.73-38.021C316.699,726.444,317.03,722.017,316.953,717.561z
	 M329.35,618.583c0.162,0.173,0.441,0.33,0.469,0.522c0.43,3.028,0.828,6.062,1.233,9.094c-0.604-0.953-0.847-1.957-0.974-2.975
	c-0.274-2.21-0.489-4.428-0.73-6.651c0-0.004-0.001-0.007-0.001-0.011c0-0.845,0-1.689,0-2.534c0.067,0.004,0.136,0.007,0.203,0.011
	C329.483,616.887,329.416,617.735,329.35,618.583z M334.561,675.148c-0.011,0.556,0.094,1.112,0.125,1.669
	c0.208,3.789,0.412,7.578,0.617,11.367c-2.482-11.861-4.12-23.817-4.826-35.936c0.142,0.349,0.318,0.688,0.42,1.048
	C332.905,660.448,334.71,667.633,334.561,675.148z M336.751,714.125c0.517,8.776,0.767,17.568,1.097,26.355
	c0.018,0.465-0.184,0.938-0.282,1.406c-0.675-0.821-0.989-1.632-1.241-2.462c-2.517-8.258-5.157-16.481-7.497-24.789
	c-2.859-10.156-5.465-20.387-7.021-30.845c-0.173-1.163-0.119-2.373-0.056-3.556c0.148-2.784,0.368-5.564,0.557-8.346
	c0.221-3.26,0.415-6.521,0.664-9.779c0.176-2.303,0.432-4.6,0.637-6.901c0.275-3.095,0.52-6.192,0.809-9.286
	c0.236-2.53,0.519-5.057,0.78-7.584c0.192-0.012,0.385-0.023,0.577-0.035c0.112,1.017,0.247,2.032,0.333,3.051
	c0.443,5.258,0.771,10.526,1.329,15.771c1.745,16.387,4.225,32.66,7.693,48.776C335.718,708.635,336.588,711.361,336.751,714.125z
	 M294.691,698.888c0.517-2.198,1.344-3.122,2.767-3.087c0.339,0.009,0.817,0.223,0.964,0.489c0.138,0.252,0.054,0.847-0.158,1.032
	C297.268,698.196,296.19,698.974,294.691,698.888z M292.536,552.09c-0.597-0.831-1.367-1.544-2.089-2.279
	c-2.645-2.692-4.747-5.788-6.604-9.043c-0.498-0.872-0.783-1.975-0.814-2.982c-0.098-3.11-0.16-6.233,0.039-9.333
	c0.101-1.561,1.013-3.059,1.182-4.626c0.492-4.579,3.282-8.098,5.385-11.899c1.337-2.418,3.263-4.521,4.998-6.707
	c1.84-2.316,3.699-4.624,5.687-6.811c0.951-1.046,2.106-2.031,3.362-2.653c3.357-1.662,6.819-3.115,10.241-4.648
	c0.729-0.327,1.518-0.558,2.181-0.985c1.879-1.208,3.958-1.613,6.131-1.871c1.652-0.196,3.418-0.357,4.884-1.057
	c6.96-3.32,14.304-5.562,21.569-8.042c4.386-1.498,8.698-3.213,13.023-4.883c2.461-0.95,4.859-2.062,7.33-2.986
	c0.908-0.339,1.941-0.346,3.025-0.522c0.135,0.868,0.292,1.408,0.291,1.948c-0.013,11.037,0.271,22.084-0.138,33.107
	c-0.784,21.207-3.633,42.226-6.539,63.225c-0.657,4.746-1.742,9.431-2.502,14.164c-0.811,5.053-1.377,10.145-2.212,15.191
	c-2.324,14.047-4.732,28.079-7.105,42.118c-0.094,0.552-0.194,1.104-0.237,1.661c-0.04,0.529-0.009,1.063-0.009,1.596
	c0.508-0.903,0.776-1.821,1.005-2.75c4.54-18.412,8.354-36.976,11.754-55.631c3.647-20.003,6.475-40.119,8.383-60.353
	c1.081-11.463,1.719-22.973,1.512-34.506c-0.026-1.429,0.073-2.796,0.636-4.204c0.441-1.105,0.703-2.829,0.141-3.679
	c-1.385-2.09-0.605-4.095-0.747-6.102c3.628-0.709,4.048-0.463,4.856,2.598c0.613,2.319,1.29,4.624,1.85,6.956
	c1.061,4.42,2.7,8.732,2.567,13.383c-0.006,0.236-0.033,0.583,0.102,0.694c0.606,0.502,0.94,1.826,2.132,0.812
	c0.017-0.014,0.113,0.065,0.178,0.104c0.399,3.094,0.8,6.188,1.199,9.283c0.217-0.014,0.434-0.027,0.651-0.041
	c0-1.326,0.066-2.656-0.015-3.977c-0.151-2.474-0.384-4.942-0.593-7.412c-0.094-1.109-0.198-2.211,1.105-3.362
	c0.134,0.847,0.249,1.307,0.272,1.771c0.544,10.469,0.886,20.943,0.239,31.417c-1.099,17.802-2.393,35.593-3.333,53.403
	c-0.429,8.137-0.484,16.316-0.221,24.46c0.369,11.424,1.188,22.832,1.835,34.246c0.049,0.872,0.244,1.736,0.386,2.602
	c0.192,1.182,0.418,2.357,0.597,3.541c1.251,8.302,2.448,16.612,3.781,24.901c0.244,1.52,0.039,2.745-0.612,4.115
	c-2.158,4.545-4.44,9.061-6.187,13.768c-5.584,15.058-9.073,30.655-11.454,46.516c-0.086,0.572-0.316,1.122-0.511,1.787
	c-0.429-0.256-0.671-0.336-0.818-0.501c-0.532-0.596-1.051-1.206-1.542-1.836c-17.312-22.164-29.306-46.838-35.12-74.427
	c-0.181-0.858-0.319-1.732-0.392-2.606c-0.322-3.905-0.596-7.815-0.92-11.722c-1.227-14.829-2.448-29.66-5.868-44.199
	c-1.716-7.293-1.969-14.548,0.536-21.741c0.393-1.13,0.696-2.293,1.006-3.45c0.447-1.666,0.293-2.117-1.228-2.891
	c-1.351-0.688-2.782-1.212-4.15-1.869c-2.015-0.967-3.998-1.999-6.005-2.981c-1.061-0.52-2.104-1.118-3.222-1.467
	c-4.058-1.265-8.065-2.62-11.575-5.114c-2.672-1.899-5.324-3.827-8.013-5.702C295.678,556.119,294.039,554.183,292.536,552.09z
	 M290.518,692.635c0.493-0.405,1.113-0.655,1.682-0.968c0.159,0.18,0.317,0.36,0.477,0.54c-0.37,0.556-0.664,1.196-1.146,1.628
	c-0.194,0.174-0.835-0.042-1.192-0.23C290.24,693.553,290.312,692.804,290.518,692.635z M287.351,696.92
	c1.097-2.103,1.097-2.103,2.773-0.61C289.057,696.544,288.204,696.732,287.351,696.92z M287.237,688.467
	c-2.069,1.882-2.72,1.697-4.159-1.041C284.587,685.744,285.176,685.875,287.237,688.467z M280.299,703.477
	c1.178,0.22,2.355,0.438,3.67,0.683C282.522,706.144,282.266,706.106,280.299,703.477z M279.232,700.298
	c2.799-1.971,5.012-0.539,7.347,0.746c-0.35,1.122-0.852,2.236-2.043,1.965C282.606,702.569,280.684,701.893,279.232,700.298z
	 M252.857,713.125c0.08-0.12,0.138-0.312,0.246-0.348c0.682-0.222,1.372-0.416,2.063-0.604c5.497-1.493,10.393-4.05,14.363-8.205
	c1.046-1.094,1.983-2.292,3.021-3.396c0.304-0.322,0.781-0.482,1.464-0.885c-0.204,2.247-3.174,3.393-1.404,5.934
	c1.166-1.013,2.11-1.976,3.204-2.72c0.495-0.337,1.349-0.434,1.918-0.254c0.273,0.086,0.422,1.083,0.357,1.636
	c-0.212,1.805-0.619,3.602,0.545,5.183C272.605,715.737,258.825,717.641,252.857,713.125z M217.479,670.314
	c3.997,5.787,9.254,9.697,16.433,10.496c2.298,0.255,4.625,0.354,6.938,0.341c1.308-0.008,2.047,0.358,2.543,1.615
	c2.086,5.287,5.625,9.231,10.896,11.551c0.516,0.227,1.116,0.787,1.238,1.297c0.604,2.536,1.063,5.107,1.614,7.872
	c-0.612,0.239-1.317,0.624-2.072,0.794c-3.271,0.739-6.555,1.413-9.833,2.114c-1.227,0.263-2.39,0.229-3.312-0.801
	c-1.358,2.493-3.682,0.533-5.465,1.887c2.155,0.639,4.31,1.278,6.465,1.918c-1.065,0.351-2.074,0.425-3.068,0.338
	c-5.033-0.44-9.706-2.087-13.998-4.664c-16.2-9.73-23.894-24.551-25.444-42.975c-0.041-0.488,0.176-0.999,0.34-1.848
	c3.933,2.391,8.023,3.323,12.25,3.867c0.622,0.08,1.29,0.839,1.686,1.447C215.688,667.102,216.438,668.808,217.479,670.314z
	 M228.458,662.845c1.554-0.277,2.477,0.049,3.529,1.188c2.275,2.461,4.582,4.944,7.183,7.039c2.052,1.653,2.42,3.558,2.238,6.191
	c-6.152,0.633-11.876,0.236-16.953-3.338c-3.515-2.475-6.544-5.417-8.72-9.529c1.028-0.084,1.658-0.112,2.282-0.189
	C221.502,663.778,225.007,663.461,228.458,662.845z M227.679,654.058c1.184,0.856,1.936,1.4,2.687,1.944
	C228.546,655.847,228.556,655.832,227.679,654.058z M217.314,646.938c1.854,1.01,2.357,2.51,2.885,3.992
	C218.99,649.962,217.375,649.302,217.314,646.938z M215.389,620.037c-1.89,0.658-3.758,0.603-5.644,0.022
	c-5.276-1.623-9.495-4.796-13.062-8.917c-0.06-0.069,0.037-0.273,0.088-0.577c0.68,0.209,1.334,0.435,2.002,0.61
	c1.696,0.444,3.376,1.02,5.102,1.27c7.624,1.101,15.135,0.608,22.457-1.919c1.59-0.549,3.193-0.913,5.563-0.671
	c-0.725,1.158-1.03,2.179-1.715,2.65c-3.203,2.205-6.102,4.937-9.999,6.005C218.564,618.954,216.971,619.485,215.389,620.037z
	 M213.793,644.837c0.283,0.611,0.373,1.409,0.271,2.079c-0.188,1.23-0.582,2.429-0.951,3.879c-3.992-2.443-5.026-8.586-2.208-11.633
	C211.88,641.054,212.902,642.916,213.793,644.837z M200.871,626.598c5.205-0.943,13.103-1.517,14.416-1.009
	c-1.586,1.675-3.136,3.31-4.829,5.097C207.895,630.619,203.115,628.691,200.871,626.598z M192.015,619.481
	c-2.905-3.742-5.306-7.754-7.184-12.089c-0.374-0.863-0.673-1.759-1.114-2.927c2.107-0.229,3.23,0.469,4.107,1.917
	c3.474,5.734,7.919,10.566,13.534,14.285c0.345,0.229,0.583,0.618,1.264,1.362c-1.983,0.054-3.469-0.007-4.929,0.155
	C195.198,622.462,193.518,621.417,192.015,619.481z M168.294,597.39c0.588,0.245,1.083,0.432,1.561,0.654
	c3.177,1.483,6.305,3.082,9.544,4.412c1.478,0.607,2.294,1.451,2.826,2.924c1.8,4.979,4.272,9.614,7.472,13.851
	c0.361,0.478,0.627,1.028,1.003,1.655C181.517,620.287,170.579,607.241,168.294,597.39z M164.674,579.291
	c-0.027-0.352,0.152-0.719,0.304-1.37c0.649,0.625,1.094,1.039,1.523,1.466c3.106,3.091,6.138,6.261,9.335,9.253
	c2.753,2.575,3.678,5.779,4.043,9.498c-0.565,0-0.743,0.05-0.875-0.007c-4.57-1.988-8.756-4.59-12.385-8.015
	c-0.589-0.556-1.069-1.458-1.171-2.255C165.085,585.017,164.895,582.151,164.674,579.291z M175.108,585.622
	c-3.647-3.031-6.772-6.554-9.627-10.322c-0.777-1.025-0.627-2.065,0.114-3.185c3.077,0.988,5.841,2.145,7.037,5.516
	c0.502,1.413,1.401,2.69,2.168,4.001c0.738,1.261,0.974,2.593,1.029,4.036C175.407,585.646,175.202,585.701,175.108,585.622z
	 M151.675,345.6c-0.124-0.269-0.125-0.595-0.257-1.271c0.844,0,1.404-0.082,1.934,0.013c3.613,0.649,7.22,1.338,10.829,2.009
	c1.791,0.333,2.866,1.263,3.531,3.087c1.157,3.172,3.286,5.635,6.454,7.079c1.93,0.88,2.156,1.588,1.254,3.512
	c-1,2.131-2.846,3.398-4.716,4.649c-1.828,1.224-3.537,1.219-5.16-0.386c-0.51-0.504-1.109-0.916-1.655-1.385
	C158.369,358.161,154.677,352.122,151.675,345.6z M162.323,367.305c-0.096,0.27-0.191,0.54-0.287,0.81
	c-0.798-0.047-1.686,0.114-2.375-0.185c-1.385-0.601-3.181-3.312-3.362-4.866C158.383,364.532,160.354,365.918,162.323,367.305z
	 M155.185,567.041c2.228,0.387,3.56,1.081,4.399,2.618c0.497,0.911,1,1.837,1.641,2.646c1.023,1.292,1.217,2.639,0.938,4.247
	c-0.299,1.722-0.268,3.5-0.41,5.252c-0.041,0.499-0.186,0.991-0.396,2.066C157.79,578.534,156.29,573.115,155.185,567.041z
	 M129.587,586.385c0.108-0.245,0.292-0.457,0.556-0.828c0.186,0.345,0.378,0.541,0.34,0.673c-0.054,0.192-0.249,0.422-0.43,0.474
	C129.93,586.738,129.57,586.424,129.587,586.385z M126.92,587.538c1.436,0.629,1.822,1.129,1.151,1.961
	c-0.231,0.043-0.463,0.085-0.695,0.128C127.253,589.062,127.129,588.498,126.92,587.538z M66.177,426.386
	c-0.626-2.848,0.752-9.566,2.328-11.58C69.964,419.103,68.635,422.781,66.177,426.386z M81.599,396.032
	c-2.21,1.129-4.491,2.12-6.744,3.166c1.549-3.356,3.981-5.696,7.334-7.659C82.513,394.33,82.411,395.617,81.599,396.032z
	 M82.809,398.026c-3.997,6.068-6.321,13.092-11.842,18.704c-0.518-5.053-0.237-9.287,3.216-12.925
	C77.436,400.376,80.55,397.983,82.809,398.026z M91.166,483.287c-3.176-0.975-4.46-2.319-2.096-5.045
	C89.744,479.863,90.367,481.363,91.166,483.287z M90.968,461.641c0.101-2.127,0.392-4.212,1.533-6.506
	c0.843,0.753,1.438,1.284,2.077,1.856c-1.083,1.766-2.024,3.299-2.966,4.833C91.397,461.763,91.183,461.702,90.968,461.641z
	 M87.249,451.013c-2.969-5.903-4.463-11.963-1.93-18.443c0.088-0.223,0.153-0.455,0.224-0.684c2.259-7.36,5.435-14.338,8.885-21.199
	c0.317-0.632,0.681-1.363,1.233-1.736c4.696-3.17,9.429-6.289,14.196-9.352c0.431-0.276,1.443-0.305,1.724-0.01
	c0.482,0.507,0.902,1.412,0.794,2.057c-0.132,0.788-0.69,1.653-1.32,2.18c-1.584,1.327-3.337,2.449-4.971,3.72
	c-0.791,0.616-1.679,1.26-2.159,2.099c-3.809,6.654-7.467,13.394-11.312,20.025c-1.376,2.371-2.666,4.706-3.116,7.449
	c-0.14,0.855-0.353,1.82-0.868,2.468c-1.481,1.864-1.042,3.64-0.24,5.588c0.86,2.088,0.513,4.172-0.512,6.393
	C87.478,451.222,87.313,451.142,87.249,451.013z M100.307,401.553c-0.113-0.146-0.227-0.292-0.34-0.438
	c0.377-0.218,0.753-0.435,1.129-0.653c0.069,0.106,0.138,0.212,0.206,0.319C100.971,401.038,100.639,401.295,100.307,401.553z
	 M90.731,408.151c0.563-2.629,2.521-4.452,6.022-5.447C95.76,405.021,93.217,407.257,90.731,408.151z M83.2,433.269
	c-0.64-3.141-0.451-6.294-0.332-9.458c0.122-3.233,1.218-5.839,3.939-7.726c1.108-0.768,2.058-1.763,3.114-2.611
	c0.378-0.303,0.859-0.478,1.48-0.811C88.592,419.723,85.896,426.496,83.2,433.269z M79.633,419.81
	c-0.813,0.807-1.281,1.986-2.726,2.576c-0.377-3.106-0.192-5.93,1.411-8.422c2.083-3.235,4.681-6.055,7.705-8.457
	c0.075-0.06,0.276,0.039,0.606,0.096c-0.302,0.664-0.595,1.282-0.865,1.909c-0.883,2.052-1.961,4.048-2.581,6.177
	C82.491,416.07,81.365,418.09,79.633,419.81z M90.116,390.621c-2.273,1.462-3.421,4.509-6.672,4.711
	C83.141,390.166,85.063,388.772,90.116,390.621z M116.264,374.546c-2.085,1.381-4.143,2.222-6.272,2.78
	c-3.544,0.929-7.129,1.705-10.711,2.473c-1.042,0.224-1.859,0.608-2.003,1.716c-0.309,2.376-1.777,3.383-3.999,3.65
	c-0.707,0.085-1.388,0.369-2.09,0.512c-1.348,0.274-2.649,0.159-4.167-0.59c0.613-0.893,1.073-1.707,1.668-2.406
	c3.545-4.17,8.117-6.63,13.391-7.831c4.319-0.984,8.719-0.803,13.104-0.7C115.462,374.157,115.735,374.346,116.264,374.546z
	 M118.729,460.249c-0.126,2.187-1.058,4.317-1.525,6.496c-0.275,1.279-1.029,1.874-2.212,2.198
	c-6.182,1.694-12.439,2.881-18.877,2.893c-0.678,0.001-1.355-0.145-2.093-0.229c-0.179-1.722,0.011-3.081,1.078-4.229
	c3.801-4.092,7.592-8.193,11.406-12.272c0.303-0.323,0.754-0.507,1.128-0.75c1.537,0.94,1.074,2.651,1.851,4.316
	c1.125-1.464,1.938-2.631,2.865-3.697c1.125-1.293,2.68-1.599,3.826-0.645C117.994,455.84,118.857,458.03,118.729,460.249z
	 M118.629,478.658c-3.743,2.916-7.019,6.296-9.978,9.983c-0.812,1.013-1.704,1.403-2.913,1.036
	c-2.747-0.833-5.515-1.615-8.215-2.582c-0.842-0.301-1.573-1.054-2.223-1.728c-2.622-2.726-1.795-6.047-1.696-9.427
	c0.644-0.142,0.951-0.271,1.257-0.268c6.853,0.065,13.521-1.099,20.098-2.936c1.929-0.539,3.391,0.311,4.391,2.349
	C120.102,476.62,119.97,477.614,118.629,478.658z M96.074,532.695c-0.97-1.249-2.411-1.782-1.46-3.342
	c1.704-2.795,3.298-5.658,4.959-8.479c0.139-0.235,0.445-0.37,0.704-0.576c0.123,0.275,0.255,0.425,0.236,0.551
	c-0.804,5.375-1.941,10.678-3.921,15.749c-0.567,1.455-1.544,2.778-2.481,4.052c-0.834,1.132-2.077,1.318-3.546,1.005
	c-0.357-3.704,0.979-6.742,2.898-9.681C94.294,532.203,94.982,532.394,96.074,532.695z M94.884,560.667
	c1.5,1.529,2.864,3.221,4.51,4.569c1.841,1.509,1.774,3.441,2.091,5.634c-3.681-2.415-7.595-7.913-7.77-11.167
	C94.322,560.2,94.63,560.407,94.884,560.667z M99.472,512.576c0.858-3.807,8.196-16.082,11.2-18.448
	C109.304,497.848,100.932,511.515,99.472,512.576z M121.745,596.693c0.838-1.487,1.559-2.781,2.296-4.065
	c0.387-0.675,0.802-1.334,1.204-1.999c0.2-0.007,0.4-0.014,0.601-0.021c0.136,0.458,0.453,0.949,0.374,1.366
	C126.009,593.083,123.197,596.039,121.745,596.693z M104.891,563.152c-0.675-12.89,1.088-25.522,4.136-37.992
	c0.656-2.683,1.867-5.268,3.121-7.748c0.612-1.212,1.845-2.156,2.93-3.06c0.396-0.329,1.289-0.44,1.767-0.227
	c2.599,1.158,4.09,4.664,3.106,7.559c-1.947,5.732-2.831,11.642-3.101,17.648c-0.354,7.91-0.532,15.815,1.128,23.643
	c0.629,2.967,0.99,5.989,1.465,8.988c0.247,1.565,0.25,3.048-1.522,3.713c0.33,2.501,0.643,4.861,0.982,7.436
	c-4.03-0.395-6.937-2.239-9.093-5.401C106.807,573.308,105.169,568.475,104.891,563.152z M93.055,567.812
	c2.45,2.824,5.262,5.334,7.893,8.004c0.833,0.845,1.738,1.666,2.365,2.654c0.938,1.479,1.673,3.088,2.463,4.657
	c0.23,0.458,0.353,0.972,0.723,2.023c-1.159-0.607-1.871-0.893-2.487-1.317c-2.83-1.945-5.758-3.778-8.409-5.946
	c-2.335-1.91-4.559-4.04-6.465-6.374c-4.197-5.138-4.705-11.135-3.082-17.631c0.202,0.486,0.472,0.955,0.596,1.461
	C87.804,560.006,89.932,564.212,93.055,567.812z M82.506,486.231c0.219-0.459,0.578-0.851,1.215-1.768
	c0,1.43-0.01,2.269,0.002,3.107c0.052,3.992-0.065,7.997,0.232,11.97c0.177,2.354,0.988,4.665,1.574,6.98
	c0.112,0.441,0.505,0.811,0.86,1.355c-0.205-3.836-0.543-7.409-0.547-10.983c-0.004-3.631,0.188-7.278,0.984-11.223
	c1.925,1.099,3.466,2.054,5.076,2.874c1.255,0.638,2.178,1.502,2.94,2.699c0.867,1.362,1.988,2.561,2.999,3.831
	c0.237-1.563-1.316-2.361-1.086-4.034c2.696,0.827,5.231,1.604,8.132,2.493c-7.035,10.107-12.051,20.831-15.96,32.356
	c-0.734-0.521-1.267-0.75-1.586-1.149c-2.09-2.615-4.334-5.137-6.145-7.937c-2.49-3.851-3.408-8.196-3.229-12.814
	C78.213,497.729,79.834,491.852,82.506,486.231z M82.619,476.873c-0.933-0.646-1.628-1.062-1.709-2.263
	c0.928,0.161,1.659,0.287,2.802,0.484C83.258,475.834,82.962,476.314,82.619,476.873z M66.325,441.575
	c-0.094-0.857-0.097-1.796,0.151-2.607c1.119-3.665,2.327-7.302,3.553-10.933c0.152-0.453,0.604-0.806,1.001-1.314
	c1.233,1.726,1.239,3.261,0.394,4.902c-0.813,1.577-1.534,3.202-2.295,4.805c0.116,0.053,0.232,0.106,0.35,0.16
	c0.949-1.304,1.898-2.608,3.127-4.294c0.527,2.068,0.818,3.635,1.338,5.123c0.55,1.579,1.253,3.113,2.007,4.608
	c0.672,1.334,1.357,2.702,2.609,3.631c-0.146-0.933-0.528-1.721-0.814-2.542c-0.892-2.561-1.842-5.109-2.562-7.719
	c-0.223-0.806,0.22-1.795,0.358-2.7c-0.327-1.663-1.922-3.365,0.504-5.042c0.563,0.341,1.108,0.67,1.654,1
	c-1.521-3.38,1.162-4.56,3.022-6.568c0.193,0.674,0.337,0.908,0.31,1.119c-0.983,7.643,0.586,15.126,1.422,22.651
	c0.306,2.749,1.086,5.502,3.29,7.245c1.312,1.037,1.624,2.049,1.472,3.421c-0.47,4.223-0.666,8.435-0.163,12.677
	c0.211,1.781-0.466,2.39-2.272,2.018c-2.418-0.497-4.788-1.229-7.177-1.866c-1.652-0.44-2.69-1.529-3.526-3.005
	C69.715,458.637,67.284,450.336,66.325,441.575z M65.037,455.211c1.073,2.821,1.975,5.188,2.877,7.555
	C65.176,461.712,64.28,459.24,65.037,455.211z"/>
<path d="M715.297,848.643c-0.3,4.767-0.504,9.539-0.752,14.309c0.153,0.021,0.307,0.042,0.459,0.063
	c0.275-1.542,0.617-3.075,0.818-4.628c1.924-14.915,3.459-29.87,4.238-44.892c0.281-5.428,0.354-10.873,0.342-16.31
	c-0.037-17.274-0.16-34.55-0.248-51.824c-0.01-2.065-0.001-4.131-0.001-6.195c0.173-0.019,0.346-0.037,0.519-0.055
	c0.145,0.559,0.347,1.109,0.426,1.677c1.158,8.316,2.306,16.635,3.439,24.954c0.119,0.87,0.191,1.752,0.199,2.629
	c0.136,15.354,0.506,30.712,0.303,46.062c-0.151,11.347-1.061,22.682-1.611,34.023c-0.066,1.383-0.01,2.771,0.191,4.18
	c1.802-5.886,2.42-11.971,3.007-18.044c0.591-6.127,1.072-12.268,1.413-18.413c0.337-6.083,0.439-12.18,0.653-18.554
	c0.437,0.395,0.621,0.479,0.636,0.587c0.712,5.384,1.874,10.756,2.022,16.157c0.456,16.556-0.487,33.097-1.142,49.639
	c-0.191,4.856,0.011,9.729,0.035,15.02c1.381-0.914,1.24-1.969,1.336-2.779c0.871-7.382,2.014-14.753,2.42-22.164
	c1.56-28.527,1.238-57.082,0.676-85.63c-0.215-10.966-1.627-21.843-3.1-32.704c-0.473-3.485-0.826-6.988-1.232-10.482
	c-0.121-1.034-0.163-2.05-1.366-2.587c-0.401-0.179-0.528-0.91-0.86-1.326c-0.272-0.345-0.711-0.879-0.986-0.829
	c-0.47,0.085-1.119,0.48-1.248,0.888c-0.336,1.052-0.553,2.176-0.598,3.28c-0.19,4.714-0.299,9.432-0.445,14.147
	c-0.029,0.942-0.097,1.885-0.146,2.827c-0.153,0.015-0.307,0.029-0.459,0.044c-0.16-0.902-0.385-1.799-0.466-2.708
	c-0.226-2.549-0.396-5.102-0.581-7.653c-0.046-0.638-0.03-1.282-0.104-1.916c-0.083-0.72-0.211-1.621-1.146-1.467
	c-0.404,0.067-0.913,0.887-0.972,1.408c-0.178,1.585-0.173,3.19-0.209,4.789c-0.023,0.959-0.056,1.739-1.004,2.478
	c-0.967,0.751-1.451,2.002-1.473,3.389c-0.065,4.156-0.312,8.311-0.348,12.467c-0.101,12.316-0.242,24.634-0.168,36.949
	C717.883,809.222,716.537,828.928,715.297,848.643z M729.109,749.388c1.531,4.73,2.842,36.307,1.828,41.401
	C728.145,777.09,728.977,763.225,729.109,749.388z"/>
</svg>
