<?xml version="1.0" encoding="utf-8"?>
<!-- Generator: Adobe Illustrator 16.0.0, SVG Export Plug-In . SVG Version: 6.00 Build 0)  -->
<!DOCTYPE svg PUBLIC "-//W3C//DTD SVG 1.1//EN" "http://www.w3.org/Graphics/SVG/1.1/DTD/svg11.dtd">
<svg version="1.1" id="Layer_1" xmlns="http://www.w3.org/2000/svg" xmlns:xlink="http://www.w3.org/1999/xlink" x="0px" y="0px"
	 width="612px" height="792px" viewBox="0 0 612 792" enable-background="new 0 0 612 792" xml:space="preserve">
<g>
	<path fill-rule="evenodd" clip-rule="evenodd" fill="#FFFFFF" d="M273.105,38.784c3.04,0,6.08,0,9.12,0
		c-2.75,1.054-6.327,1.337-9.12,0.651C273.105,39.218,273.105,39.001,273.105,38.784z"/>
	<path fill-rule="evenodd" clip-rule="evenodd" fill="#FFFFFF" d="M122.636,441.99c1.501,0.919-0.049,4.242-1.954,3.908
		C121.305,444.567,122.012,443.321,122.636,441.99z"/>
	<path fill-rule="evenodd" clip-rule="evenodd" fill="#FFFFFF" d="M130.452,455.018c1.938,0.057,1.743,3.885-0.651,3.257
		C129.593,456.765,129.906,455.773,130.452,455.018z"/>
	<path fill-rule="evenodd" clip-rule="evenodd" fill="#FFFFFF" d="M140.875,467.395c2.372,0.622-0.195,4.705,0,7.165
		C138.941,472.793,141.242,469.753,140.875,467.395z"/>
	<path fill-rule="evenodd" clip-rule="evenodd" d="M468.521,505.826c2,2.58,2.909,5.846,1.954,9.771
		C469.383,512.78,469.312,508.942,468.521,505.826z"/>
	<path fill-rule="evenodd" clip-rule="evenodd" d="M269.848,38.784c1.085,0,2.171,0,3.257,0c0,0.217,0,0.434,0,0.651
		c2.792,0.686,6.37,0.403,9.12-0.651c1.52,0,3.04,0,4.56,0c13.343,9.456,31.956,13.641,42.991,25.404
		c11.177,4.297,21.979,12.668,33.872,22.147c9.765,7.783,23.243,20.628,34.523,22.147c15.928,2.145,36.588-2.889,55.367-5.862
		c17.331-2.744,31.951-8.177,51.459-6.514c33.023,2.815,61.896,37.057,64.487,70.349c4.329,55.64-34.455,77.793-88.588,81.423
		c-10.11,0.678-20.742,1.63-31.918,0.651c-0.87-3.995-0.426-8.01,0-11.725c-7.792-11.755-10.984-27.911-18.238-41.688
		c-2.75-5.223-7.981-10.932-9.12-16.285c-1.52-7.147-2.03-11.778-7.165-16.285c-13.716-3.521-27.474,16.27-33.872,24.752
		c-21.94,20.024-51.004,34.173-87.285,41.037c-34.846,6.593-73.589,5.271-109.432,12.376c-0.651,4.777,1.263,6.988,2.605,9.771
		c-0.044,3.043-1.489-0.763-2.605-0.651c-0.395,4.737,1.789,6.896,2.605,10.422c-2.723,0.334-1.787-2.99-3.257-3.908
		c-0.759,2.083,2.76,5.475,3.257,8.468c-0.428,1.951-1.392-0.623-2.605,0c0.686,1.318,1.648,7.758-1.303,5.211
		c0.296,2.744,3.184,2.896,4.56,4.56c-0.971,2.909-0.383,4.211,1.303,5.862c-1.64,9.343-0.045,21.386,2.605,31.267
		c-4.208,10.325,5.122,18.3,7.166,26.707c-2.527-0.078-3.292-1.919-4.56-3.257c1.059,5.389,0.467,10.376,3.909,14.33
		c-2.188,2.163-2.21,7.356-0.651,11.725c-2.093,0.573-0.893-2.147-2.605-1.954c0.98,4.665,3.34,7.95,6.514,10.422
		c-0.284,0.967-0.833-0.257-1.954,0c1.464,2.228,4.675,2.707,5.211,5.863c-2.436-0.387-3.368-2.277-5.211-3.257
		c-0.513,1.837,3.582,4.653,5.862,5.863c0.239,1.108-0.508,1.229-1.303,1.303c5.021,4.373,5.619,10.171,14.331,13.028
		c-1.183,1.765-3.931-0.361-5.211-0.652c2.324,5.276,8.486,6.713,13.028,9.771c-0.803,1.979-2.24-0.706-3.908,0
		c1.812,2.53,4.878,3.807,7.165,5.862c-2.359,1.465-5.633-1.729-7.165-3.257c1.044,3.523,8.175,6.585,11.725,9.771
		c-0.869,1.854-2.896-0.502-3.908-0.651c-0.809,1.704,3.676,3.687,5.211,5.211c0.966-0.284-0.257-0.833,0-1.954
		c2.97,2.893,5.481,6.244,5.862,11.726c1.813-1.227,1.257-4.823,2.605-6.515c1.303,1.04,1.922,4.917,0.651,6.515
		c1.957,1.062,3.95-3.413,7.816-2.605c-0.375,2.447-4.291,1.354-4.56,3.908c2.79,0.401,2.656-2.121,5.211-1.954
		c1.728,1.717-1.929,1.377-1.954,3.257c6.86-0.225,10.198-1.954,14.331-5.862c1.887,0.364-0.999,1.016-0.651,1.954
		c6.072,1.87,11.404,0.517,14.982,5.211c1.107-2.43-0.385-1.031-0.651-3.257c3.136-0.313,3.097,2.548,3.908,4.56
		c1.751-0.499,4.741,0.62,5.211,3.257c0.884-0.202,0.541-1.631,0.651-2.605c0.863,2.363,4.924,5.871,4.56,3.908
		c2.899-1.191,3.518,5.342,8.468,2.605c0.583,2.103-2.125,0.915-2.605,1.954c0.633,2.917,4.203,2.29,5.862,2.605
		c-0.817,1.983-0.498,2.533,0.651,3.908c3.881,0.841,4.417-1.663,7.166-1.954c0.321,3.587,6.927,4.181,9.771,10.422
		c1.851,0.114-0.787-4.261,1.954-3.257c0.875,1.514-0.09,4.867,2.605,4.56c-0.793-3.747,4.2-2.773,3.908-5.862
		c5.24,1.062,7.463-2.432,13.679-1.954c-4.01,2.144,3.524,1.6,0,3.257c4.104,2.51,6.991,5.551,12.377,9.12
		c5.909-3.229,30.639,10.913,38.432,14.33c0.662-0.424,0.673-1.498,1.954-1.303c-0.566,3.443,1.591,0.092,1.954,2.605
		c5.823-3.762,10.229-4.34,20.192-1.954c1.246-0.274,2.804-0.236,2.605-1.954c1.923,1.334,8.451,3.047,7.817-1.303
		c1.718-0.198,1.68,1.359,1.954,2.605c2.388,0,4.776,0,7.165,0c1.436-1.376-0.836-1.926-0.651-3.908
		c1.313,0.857,2.204,2.139,2.605,3.908c4.236,0.246,5.53-0.289,7.816,1.303c1.879-0.695,2.16-1.976,1.303-3.908
		c1.45,1.372,1.794,3.851,3.908,4.56c1.862-2.338-0.863-4.441-0.651-7.165c1.341,0.179,0.613,2.427,1.954,2.605
		c3.866-0.856-0.62-3.374,0.651-4.56c1.326-1.307,1.735-0.17,2.605,0.651c1.412-15.098-3.551-31.822,5.862-38.432
		c1.611,6.423,1.677,14.391,6.515,17.587c0.948,1.715-2.534-1.818-3.258-2.605c-0.062,3.103,2.99,3.09,3.258,5.862
		c-1.633-0.538-2.061-2.282-3.258-3.257c0.091,8.317-1.287,13.489,1.304,20.845c1.534-0.551-0.542-2.857-0.651-3.908
		c1.673-0.35,1.984,6.25,4.56,7.165c-0.202,0.884-1.631,0.54-2.605,0.651c1.803,1.61,1.339,2.547,1.303,3.257
		c-0.009,1.53-1.777-0.238-1.303-1.303c2.343,11.283-1.019,23.605,5.211,29.312c-1.092,1.048-2.982-2.632-4.56-3.258
		c-3.009,4.825-4.256,8.287-3.908,14.331c-1.354-0.167-0.179-2.862-1.304-3.257c-3.269,8.021-13.199,9.381-15.633,18.238
		c-2.564-0.973,0.121-0.768,0-2.605c-3.647-0.824-2.183,3.462-3.257,5.211c-1.959,0.657-1.154-1.451-1.303-2.605
		c-2.816-0.312-4.181,1.794-5.862,1.303c-1.955,0.65-0.548,4.663-3.257,4.56c0.117-1.841-2.449-1.517-0.651-3.257
		c-0.74-1.524-2.179,1.669-2.605,2.605c-2.177-3.319-9.467-1.649-10.423,1.954c-1.524-0.167-0.375-2.861,0-3.257
		c-7.224-0.3-6.463,4.56-11.073,5.862c0.088-2.518,2.642-2.568,3.257-4.56c-1.392-0.282-4.146,3.653-5.211,5.862
		c-2.19-1.405,0.855-2.991,0.651-4.56c-1.283-1.028-2.625,3.427-3.908,4.56c-1.01-1.477,2.377-4.111,3.257-5.862
		c-4.697,1.253-9.873,3.897-16.936,5.211c0.404-1.983,3.504-1.272,3.908-3.257c-3.776-0.302-4.591,2.358-8.468,1.954
		c0.096-1.424,1.641-1.398,3.257-1.303c-10.769-2.634-20.327-0.739-32.569-1.954c-10.875-1.079-20.162-6.43-32.569-7.816
		c-8.345-0.933-18.776-8.011-27.358-11.073c-11.365-4.057-23.517-8.348-33.221-10.422c-4.217-0.902-9.128-0.971-13.028-3.257
		c-2.379-1.396-4.566-5.799-7.165-6.515c-5.566-1.531-11.706-4.217-13.028-5.862c-3.384-2.266-9.368-7.563-14.33-10.422
		c1.79,3.876,1.49,9.16,5.862,11.725c1.5-1.44-1.131-1.63-1.954-2.605c0.372-1.099,3.486,2.591,2.605-1.954
		c1.493,2.075,2.619,1.127,3.908,2.605c-2.189,0.538-3,0.467-4.56,2.605c-8.752-2.621-9.205-25.776-16.285-24.101
		c-1.61-8.161-6.506-13.035-9.771-19.542c-0.968,0.552-0.943,2.098-1.303,3.257c1.238-5.256-3.544-7.502-3.257-13.679
		c-0.801,0.284-1.337,0.834-1.303,1.954c-2.963-5.722-3.026-14.344-5.862-20.193c-1.99,1.205,0.752,3.096,0,5.212
		c-3.173-3.774-2.752-11.145-5.211-15.634c-0.966,0.554-1.4,1.64-1.303,3.257c-1.779,0.742,0.644-4.193,0-6.514
		c-1.63-0.11-2.039,1.001-2.605,1.954c1.858-3.358,5.472-10.59,7.165-16.284c-2.044,0.791-2.193-3.169-3.257-5.211
		c-1.138,0.6-1.438,2.037-1.303,3.909c-2.083-4.213-2.56-10.034-7.817-11.074c-1.625-5.975-4.125-11.073-3.908-18.89
		c-2.114,0.057-0.458,3.884-3.257,3.257c0.19-6.366,1.078-12.335,0-18.89c-1.507,2.402-0.227,7.59-0.651,11.074
		c-2.927-1.85-0.517-9.037-1.303-13.028c-1.457,0.281-0.264,3.21-0.651,4.56c-2.527-1.598-0.468-7.783-3.257-9.119
		c-1.702,1.119,0.918,3.373,0,5.862c-4.228-0.767-3.814-6.174-7.166-7.816c-1.679,0.157,0.895,1.121,0,2.605
		c-2.197-0.212-4.006-6.958-5.211-3.908c-9.187-6.651-18.049-17.968-22.798-32.569c-15.182-4.985-36.184-18.541-50.808-2.605
		c-3.721-10.047-3.368-20.084-4.56-29.963c-1.65-13.682-7.494-23.672-7.165-37.78c0.223-9.565-0.906-17.453,0-26.707
		c0.658-6.726,3.357-13.939,5.211-19.542c8.322-25.146,26.633-41.776,42.34-58.625c1.788-4.943,5.104-8.357,9.771-10.422
		c3.333-6.003,9.37-9.303,14.33-13.679c-4.686-15.767,6.62-20.574,14.331-26.055c15.456-4.649,29.118-15.273,44.945-20.844
		c7.091-2.496,15.696-4.218,24.102-6.514c8.444-2.307,16.993-4.382,25.404-7.166C250.042,41.716,259.648,41.674,269.848,38.784z"/>
	<path fill-rule="evenodd" clip-rule="evenodd" fill="#FFFFFF" d="M125.893,458.274c1.485,0.895,2.449-1.679,2.605,0
		c0.643,4.117-4.351,2.598-3.908,6.515c2.922-0.568,5.482-4.919,7.165-4.561c-1.109,4.536-6.633,4.657-8.468,8.469
		c4.862,0.081,5.108-3.276,9.771-4.56c0.791-1.164,0.119-3.79,1.303-4.561c2.35,4.294-3.511,5.458-3.257,9.771
		c2.673,0.067,1.307-3.905,4.56-3.257c-0.723,2.562-1.992,5.031,0.651,6.514c1.547-0.693-1.396-3.001,0.651-3.908
		c2.308,1.383,0.741,6.641,3.908,7.165c0.091,2.937-4.283,4.807-2.605,7.165c4.402-2.802,7.321-8.945,5.862-15.633
		c0.93-0.156,1.099-1.073,1.954-1.303c0.425,3.699-0.856,9.107,0.651,11.725c1.991-21.133-6.405-40.898-9.119-57.322
		c-10.16-2.084-17.165-7.042-26.056-12.376c-3.346,3.385-10.013,3.449-13.679,6.514c1.339,2.379-0.293,2.926-1.303,4.56
		c2.159,0.589,2.826-3.618,3.908-1.954c-1.583,1.263-4.798,4.292-3.257,6.515c0.566-0.954,0.975-2.065,2.605-1.955
		c-1.855,4.754,1.837,7.322-1.303,11.074c2.159,0.588,2.826-3.619,3.908-1.954c0.134,2.739-2.475,2.735-2.605,5.211
		c1.023,0.062,2.258-0.088,1.954,1.303c-0.213,3.044-3.695,2.818-3.908,5.862c1.714,1.638,2.194-1.634,3.908-1.954
		c-0.557,2.076,0.567,2.473,1.303,3.257c1.394,0.029,3.114-2.883,3.908-1.303c-1.379,1.443-4.273,1.372-3.908,4.56
		c2.952-2.609,4.559-0.599,6.514-0.651c-1.357-0.373-0.815-4.214,0.651-3.908c0.473,1.992-1.124,1.916-0.651,3.908
		c2.005-0.485,1.252,1.788,3.257,1.303c0.623-1.213-1.951-2.177,0-2.605c1.016,1.59,0.621,4.591,3.257,4.56
		c1.046-1.125,0.315-4.027,1.954-4.56c0.436,2.853-2.604,5.609-1.303,7.165c0.652-0.867,1.074-1.966,1.954-2.605
		c1.892,1.832-0.978,1.783-1.303,3.257c2.276,0.412,1.82,0.158,0.651,2.605c3.506-1.053,4.156-4.963,7.165-6.514
		c0.691,4.6-2.073,5.744-2.605,9.119c2.914-0.575,3.351-7.05,5.211-6.514C126.902,454.073,127.003,456.78,125.893,458.274z
		 M456.795,460.229c0.62-3.66-1.815-4.264-2.605-6.514C454.386,456.559,455.825,458.159,456.795,460.229z M470.475,515.597
		c0.955-3.925,0.046-7.19-1.954-9.771C469.312,508.942,469.383,512.78,470.475,515.597z"/>
	<path fill-rule="evenodd" clip-rule="evenodd" d="M454.189,453.715c0.79,2.25,3.226,2.854,2.605,6.514
		C455.825,458.159,454.386,456.559,454.189,453.715z"/>
	<path fill-rule="evenodd" clip-rule="evenodd" d="M127.847,452.412c-1.86-0.536-2.297,5.938-5.211,6.514
		c0.533-3.375,3.297-4.52,2.605-9.119c-3.009,1.551-3.659,5.461-7.165,6.514c1.168-2.447,1.625-2.193-0.651-2.605
		c0.325-1.474,3.194-1.425,1.303-3.257c-0.88,0.64-1.302,1.738-1.954,2.605c-1.301-1.556,1.739-4.312,1.303-7.165
		c-1.639,0.532-0.908,3.435-1.954,4.56c-2.637,0.031-2.242-2.97-3.257-4.56c-1.951,0.429,0.623,1.393,0,2.605
		c-2.005,0.485-1.251-1.788-3.257-1.303c-0.472-1.992,1.124-1.916,0.651-3.908c-1.466-0.306-2.009,3.535-0.651,3.908
		c-1.955,0.053-3.562-1.958-6.514,0.651c-0.365-3.188,2.529-3.116,3.908-4.56c-0.794-1.58-2.514,1.332-3.908,1.303
		c-0.735-0.784-1.859-1.181-1.303-3.257c-1.714,0.32-2.194,3.592-3.908,1.954c0.213-3.044,3.695-2.818,3.908-5.862
		c0.304-1.391-0.931-1.241-1.954-1.303c0.13-2.476,2.739-2.472,2.605-5.211c-1.083-1.665-1.749,2.542-3.908,1.954
		c3.14-3.752-0.552-6.32,1.303-11.074c-1.63-0.11-2.039,1.001-2.605,1.955c-1.541-2.223,1.674-5.252,3.257-6.515
		c-1.083-1.664-1.749,2.543-3.908,1.954c1.01-1.634,2.642-2.181,1.303-4.56c3.666-3.064,10.333-3.129,13.679-6.514
		c8.891,5.334,15.896,10.292,26.056,12.376c2.714,16.424,11.11,36.189,9.119,57.322c-1.508-2.617-0.226-8.025-0.651-11.725
		c-0.855,0.229-1.024,1.146-1.954,1.303c1.459,6.688-1.46,12.831-5.862,15.633c-1.677-2.358,2.697-4.229,2.605-7.165
		c-3.167-0.524-1.6-5.782-3.908-7.165c-2.048,0.907,0.896,3.215-0.651,3.908c-2.644-1.482-1.374-3.951-0.651-6.514
		c-3.253-0.648-1.887,3.324-4.56,3.257c-0.253-4.313,5.607-5.478,3.257-9.771c-1.184,0.771-0.512,3.396-1.303,4.561
		c-4.662,1.283-4.908,4.641-9.771,4.56c1.834-3.812,7.358-3.933,8.468-8.469c-1.683-0.358-4.243,3.992-7.165,4.561
		c-0.443-3.917,4.551-2.397,3.908-6.515c-0.157-1.679-1.121,0.895-2.605,0C127.003,456.78,126.902,454.073,127.847,452.412z
		 M120.682,445.898c1.905,0.334,3.455-2.989,1.954-3.908C122.012,443.321,121.305,444.567,120.682,445.898z M129.801,458.274
		c2.395,0.628,2.589-3.2,0.651-3.257C129.906,455.773,129.593,456.765,129.801,458.274z M140.875,474.56
		c-0.195-2.46,2.372-6.543,0-7.165C141.242,469.753,138.941,472.793,140.875,474.56z"/>
</g>
</svg>
